<?xml version="1.0" encoding="utf-8" standalone="no"?>
<!DOCTYPE svg PUBLIC "-//W3C//DTD SVG 1.1//EN"
  "http://www.w3.org/Graphics/SVG/1.1/DTD/svg11.dtd">
<svg xmlns:xlink="http://www.w3.org/1999/xlink" width="720pt" height="288pt" viewBox="0 0 720 288" xmlns="http://www.w3.org/2000/svg" version="1.1">
 <metadata>
  <rdf:RDF xmlns:dc="http://purl.org/dc/elements/1.1/" xmlns:cc="http://creativecommons.org/ns#" xmlns:rdf="http://www.w3.org/1999/02/22-rdf-syntax-ns#">
   <cc:Work>
    <dc:type rdf:resource="http://purl.org/dc/dcmitype/StillImage"/>
    <dc:date>2023-02-23T15:22:49.694147</dc:date>
    <dc:format>image/svg+xml</dc:format>
    <dc:creator>
     <cc:Agent>
      <dc:title>Matplotlib v3.6.2, https://matplotlib.org/</dc:title>
     </cc:Agent>
    </dc:creator>
   </cc:Work>
  </rdf:RDF>
 </metadata>
 <defs>
  <style type="text/css">*{stroke-linejoin: round; stroke-linecap: butt}</style>
 </defs>
 <g id="figure_1">
  <g id="patch_1">
   <path d="M 0 288 
L 720 288 
L 720 0 
L 0 0 
z
" style="fill: #ffffff"/>
  </g>
  <g id="axes_1">
   <g id="patch_2">
    <path d="M 90 256.32 
L 648 256.32 
L 648 34.56 
L 90 34.56 
z
" style="fill: #eaeaf2"/>
   </g>
   <g id="matplotlib.axis_1">
    <g id="xtick_1">
     <g id="line2d_1">
      <path d="M 115.363636 256.32 
L 115.363636 34.56 
" clip-path="url(#p3766014caa)" style="fill: none; stroke: #ffffff; stroke-linecap: round"/>
     </g>
     <g id="text_1">
      <!-- $\mathdefault{0}$ -->
      <g style="fill: #262626" transform="translate(112.623903 273.430347) scale(0.11 -0.11)">
       <defs>
        <path id="CMR17-30" d="M 2688 2025 
C 2688 2416 2682 3080 2413 3591 
C 2176 4039 1798 4198 1466 4198 
C 1158 4198 768 4058 525 3597 
C 269 3118 243 2524 243 2025 
C 243 1661 250 1106 448 619 
C 723 -39 1216 -128 1466 -128 
C 1760 -128 2208 -7 2470 600 
C 2662 1042 2688 1559 2688 2025 
z
M 1466 -26 
C 1056 -26 813 325 723 812 
C 653 1188 653 1738 653 2096 
C 653 2588 653 2997 736 3387 
C 858 3929 1216 4096 1466 4096 
C 1728 4096 2067 3923 2189 3400 
C 2272 3036 2278 2607 2278 2096 
C 2278 1680 2278 1169 2202 792 
C 2067 95 1690 -26 1466 -26 
z
" transform="scale(0.015625)"/>
       </defs>
       <use xlink:href="#CMR17-30" transform="scale(0.996264)"/>
      </g>
     </g>
    </g>
    <g id="xtick_2">
     <g id="line2d_2">
      <path d="M 216.818182 256.32 
L 216.818182 34.56 
" clip-path="url(#p3766014caa)" style="fill: none; stroke: #ffffff; stroke-linecap: round"/>
     </g>
     <g id="text_2">
      <!-- $\mathdefault{20}$ -->
      <g style="fill: #262626" transform="translate(211.338715 273.430347) scale(0.11 -0.11)">
       <defs>
        <path id="CMR17-32" d="M 2669 989 
L 2554 989 
C 2490 536 2438 459 2413 420 
C 2381 369 1920 369 1830 369 
L 602 369 
C 832 619 1280 1072 1824 1597 
C 2214 1967 2669 2402 2669 3035 
C 2669 3790 2067 4224 1395 4224 
C 691 4224 262 3604 262 3030 
C 262 2780 448 2748 525 2748 
C 589 2748 781 2787 781 3010 
C 781 3207 614 3264 525 3264 
C 486 3264 448 3258 422 3245 
C 544 3790 915 4058 1306 4058 
C 1862 4058 2227 3617 2227 3035 
C 2227 2479 1901 2000 1536 1584 
L 262 146 
L 262 0 
L 2515 0 
L 2669 989 
z
" transform="scale(0.015625)"/>
       </defs>
       <use xlink:href="#CMR17-32" transform="scale(0.996264)"/>
       <use xlink:href="#CMR17-30" transform="translate(45.690477 0) scale(0.996264)"/>
      </g>
     </g>
    </g>
    <g id="xtick_3">
     <g id="line2d_3">
      <path d="M 318.272727 256.32 
L 318.272727 34.56 
" clip-path="url(#p3766014caa)" style="fill: none; stroke: #ffffff; stroke-linecap: round"/>
     </g>
     <g id="text_3">
      <!-- $\mathdefault{40}$ -->
      <g style="fill: #262626" transform="translate(312.79326 273.430347) scale(0.11 -0.11)">
       <defs>
        <path id="CMR17-34" d="M 2150 4122 
C 2150 4256 2144 4256 2029 4256 
L 128 1254 
L 128 1088 
L 1779 1088 
L 1779 457 
C 1779 224 1766 160 1318 160 
L 1197 160 
L 1197 0 
C 1402 0 1747 0 1965 0 
C 2182 0 2528 0 2733 0 
L 2733 160 
L 2611 160 
C 2163 160 2150 224 2150 457 
L 2150 1088 
L 2803 1088 
L 2803 1254 
L 2150 1254 
L 2150 4122 
z
M 1798 3703 
L 1798 1254 
L 256 1254 
L 1798 3703 
z
" transform="scale(0.015625)"/>
       </defs>
       <use xlink:href="#CMR17-34" transform="scale(0.996264)"/>
       <use xlink:href="#CMR17-30" transform="translate(45.690477 0) scale(0.996264)"/>
      </g>
     </g>
    </g>
    <g id="xtick_4">
     <g id="line2d_4">
      <path d="M 419.727273 256.32 
L 419.727273 34.56 
" clip-path="url(#p3766014caa)" style="fill: none; stroke: #ffffff; stroke-linecap: round"/>
     </g>
     <g id="text_4">
      <!-- $\mathdefault{60}$ -->
      <g style="fill: #262626" transform="translate(414.247805 273.430347) scale(0.11 -0.11)">
       <defs>
        <path id="CMR17-36" d="M 678 2176 
C 678 3690 1395 4032 1811 4032 
C 1946 4032 2272 4009 2400 3776 
C 2298 3776 2106 3776 2106 3553 
C 2106 3381 2246 3323 2336 3323 
C 2394 3323 2566 3348 2566 3560 
C 2566 3954 2246 4179 1805 4179 
C 1043 4179 243 3390 243 1984 
C 243 253 966 -128 1478 -128 
C 2099 -128 2688 427 2688 1283 
C 2688 2081 2170 2662 1517 2662 
C 1126 2662 838 2407 678 1960 
L 678 2176 
z
M 1478 25 
C 691 25 691 1200 691 1436 
C 691 1896 909 2560 1504 2560 
C 1613 2560 1926 2560 2138 2120 
C 2253 1870 2253 1609 2253 1289 
C 2253 944 2253 690 2118 434 
C 1978 171 1773 25 1478 25 
z
" transform="scale(0.015625)"/>
       </defs>
       <use xlink:href="#CMR17-36" transform="scale(0.996264)"/>
       <use xlink:href="#CMR17-30" transform="translate(45.690477 0) scale(0.996264)"/>
      </g>
     </g>
    </g>
    <g id="xtick_5">
     <g id="line2d_5">
      <path d="M 521.181818 256.32 
L 521.181818 34.56 
" clip-path="url(#p3766014caa)" style="fill: none; stroke: #ffffff; stroke-linecap: round"/>
     </g>
     <g id="text_5">
      <!-- $\mathdefault{80}$ -->
      <g style="fill: #262626" transform="translate(515.702351 273.430347) scale(0.11 -0.11)">
       <defs>
        <path id="CMR17-38" d="M 1741 2264 
C 2144 2467 2554 2773 2554 3263 
C 2554 3841 1990 4179 1472 4179 
C 890 4179 378 3759 378 3180 
C 378 3021 416 2747 666 2505 
C 730 2442 998 2251 1171 2130 
C 883 1983 211 1634 211 934 
C 211 279 838 -128 1459 -128 
C 2144 -128 2720 362 2720 1010 
C 2720 1590 2330 1857 2074 2029 
L 1741 2264 
z
M 902 2822 
C 851 2854 595 3051 595 3351 
C 595 3739 998 4032 1459 4032 
C 1965 4032 2336 3676 2336 3262 
C 2336 2669 1670 2331 1638 2331 
C 1632 2331 1626 2331 1574 2370 
L 902 2822 
z
M 2080 1519 
C 2176 1449 2483 1240 2483 851 
C 2483 381 2010 25 1472 25 
C 890 25 448 438 448 940 
C 448 1443 838 1862 1280 2060 
L 2080 1519 
z
" transform="scale(0.015625)"/>
       </defs>
       <use xlink:href="#CMR17-38" transform="scale(0.996264)"/>
       <use xlink:href="#CMR17-30" transform="translate(45.690477 0) scale(0.996264)"/>
      </g>
     </g>
    </g>
    <g id="xtick_6">
     <g id="line2d_6">
      <path d="M 622.636364 256.32 
L 622.636364 34.56 
" clip-path="url(#p3766014caa)" style="fill: none; stroke: #ffffff; stroke-linecap: round"/>
     </g>
     <g id="text_6">
      <!-- $\mathdefault{100}$ -->
      <g style="fill: #262626" transform="translate(614.417163 273.430347) scale(0.11 -0.11)">
       <defs>
        <path id="CMR17-31" d="M 1702 4058 
C 1702 4192 1696 4192 1606 4192 
C 1357 3916 979 3827 621 3827 
C 602 3827 570 3827 563 3808 
C 557 3795 557 3782 557 3648 
C 755 3648 1088 3686 1344 3839 
L 1344 461 
C 1344 236 1331 160 781 160 
L 589 160 
L 589 0 
C 896 0 1216 0 1523 0 
C 1830 0 2150 0 2458 0 
L 2458 160 
L 2266 160 
C 1715 160 1702 230 1702 458 
L 1702 4058 
z
" transform="scale(0.015625)"/>
       </defs>
       <use xlink:href="#CMR17-31" transform="scale(0.996264)"/>
       <use xlink:href="#CMR17-30" transform="translate(45.690477 0) scale(0.996264)"/>
       <use xlink:href="#CMR17-30" transform="translate(91.380954 0) scale(0.996264)"/>
      </g>
     </g>
    </g>
    <g id="text_7">
     <!-- $q_A$ -->
     <g style="fill: #262626" transform="translate(363.233409 287.863421) scale(0.12 -0.12)">
      <defs>
       <path id="CMMI12-71" d="M 2822 2759 
C 2822 2790 2797 2816 2765 2816 
C 2714 2816 2464 2585 2342 2362 
C 2227 2646 2029 2816 1754 2816 
C 1030 2816 250 1884 250 939 
C 250 307 621 -64 1056 -64 
C 1395 -64 1677 193 1811 339 
L 1818 333 
L 1574 -615 
L 1517 -842 
C 1459 -1031 1363 -1031 1062 -1031 
C 992 -1031 928 -1031 928 -1152 
C 928 -1197 966 -1216 1011 -1216 
C 1101 -1216 1216 -1216 1306 -1216 
L 1958 -1216 
C 2054 -1216 2163 -1216 2259 -1216 
C 2298 -1216 2374 -1216 2374 -1095 
C 2374 -1031 2323 -1031 2227 -1031 
C 1926 -1031 1907 -986 1907 -935 
C 1907 -904 1914 -898 1933 -815 
L 2822 2759 
z
M 1920 762 
C 1888 652 1888 640 1798 518 
C 1658 339 1376 64 1075 64 
C 813 64 666 301 666 678 
C 666 1030 864 1747 986 2016 
C 1203 2464 1504 2695 1754 2695 
C 2176 2695 2259 2170 2259 2119 
C 2259 2113 2240 2028 2234 2016 
L 1920 762 
z
" transform="scale(0.015625)"/>
       <path id="CMMI12-41" d="M 1088 691 
C 864 314 646 186 339 186 
C 269 180 218 180 218 58 
C 218 24 250 0 294 0 
C 410 0 698 0 813 0 
C 998 0 1203 0 1382 0 
C 1421 0 1498 0 1498 122 
C 1498 180 1446 186 1408 186 
C 1261 186 1139 236 1139 388 
C 1139 476 1178 546 1261 685 
L 1747 1479 
L 3379 1479 
C 3386 1423 3386 1373 3392 1316 
C 3411 1152 3488 495 3488 376 
C 3488 186 3162 186 3059 186 
C 2989 186 2918 186 2918 70 
C 2918 0 2976 0 3014 0 
C 3123 0 3251 0 3360 0 
L 3725 0 
C 4115 0 4397 0 4403 0 
C 4448 0 4518 0 4518 122 
C 4518 186 4461 186 4365 186 
C 4013 186 4006 244 3987 434 
L 3597 4404 
C 3584 4531 3558 4544 3488 4544 
C 3424 4544 3386 4531 3328 4435 
L 1088 691 
z
M 1856 1664 
L 3142 3819 
L 3360 1664 
L 1856 1664 
z
" transform="scale(0.015625)"/>
      </defs>
      <use xlink:href="#CMMI12-71" transform="scale(0.996264)"/>
      <use xlink:href="#CMMI12-41" transform="translate(43.251731 -14.943915) scale(0.697382)"/>
     </g>
    </g>
   </g>
   <g id="matplotlib.axis_2">
    <g id="ytick_1">
     <g id="line2d_7">
      <path d="M 90 246.24 
L 648 246.24 
" clip-path="url(#p3766014caa)" style="fill: none; stroke: #ffffff; stroke-linecap: round"/>
     </g>
     <g id="text_8">
      <!-- $\mathdefault{0.0}$ -->
      <g style="fill: #262626" transform="translate(66.496924 250.045173) scale(0.11 -0.11)">
       <defs>
        <path id="CMMI12-3a" d="M 1178 307 
C 1178 492 1024 619 870 619 
C 685 619 557 466 557 313 
C 557 128 710 0 864 0 
C 1050 0 1178 153 1178 307 
z
" transform="scale(0.015625)"/>
       </defs>
       <use xlink:href="#CMR17-30" transform="scale(0.996264)"/>
       <use xlink:href="#CMMI12-3a" transform="translate(45.690477 0) scale(0.996264)"/>
       <use xlink:href="#CMR17-30" transform="translate(72.787654 0) scale(0.996264)"/>
      </g>
     </g>
    </g>
    <g id="ytick_2">
     <g id="line2d_8">
      <path d="M 90 220.282161 
L 648 220.282161 
" clip-path="url(#p3766014caa)" style="fill: none; stroke: #ffffff; stroke-linecap: round"/>
     </g>
     <g id="text_9">
      <!-- $\mathdefault{0.5}$ -->
      <g style="fill: #262626" transform="translate(66.496924 224.087335) scale(0.11 -0.11)">
       <defs>
        <path id="CMR17-35" d="M 730 3692 
C 794 3666 1056 3584 1325 3584 
C 1920 3584 2246 3911 2432 4100 
C 2432 4157 2432 4192 2394 4192 
C 2387 4192 2374 4192 2323 4163 
C 2099 4058 1837 3973 1517 3973 
C 1325 3973 1037 3999 723 4139 
C 653 4171 640 4171 634 4171 
C 602 4171 595 4164 595 4037 
L 595 2203 
C 595 2089 595 2057 659 2057 
C 691 2057 704 2070 736 2114 
C 941 2401 1222 2522 1542 2522 
C 1766 2522 2246 2382 2246 1289 
C 2246 1085 2246 715 2054 421 
C 1894 159 1645 25 1370 25 
C 947 25 518 320 403 814 
C 429 807 480 795 506 795 
C 589 795 749 840 749 1038 
C 749 1210 627 1280 506 1280 
C 358 1280 262 1190 262 1011 
C 262 454 704 -128 1382 -128 
C 2042 -128 2669 440 2669 1264 
C 2669 2030 2170 2624 1549 2624 
C 1222 2624 947 2503 730 2274 
L 730 3692 
z
" transform="scale(0.015625)"/>
       </defs>
       <use xlink:href="#CMR17-30" transform="scale(0.996264)"/>
       <use xlink:href="#CMMI12-3a" transform="translate(45.690477 0) scale(0.996264)"/>
       <use xlink:href="#CMR17-35" transform="translate(72.787654 0) scale(0.996264)"/>
      </g>
     </g>
    </g>
    <g id="ytick_3">
     <g id="line2d_9">
      <path d="M 90 194.324323 
L 648 194.324323 
" clip-path="url(#p3766014caa)" style="fill: none; stroke: #ffffff; stroke-linecap: round"/>
     </g>
     <g id="text_10">
      <!-- $\mathdefault{1.0}$ -->
      <g style="fill: #262626" transform="translate(66.496924 198.129496) scale(0.11 -0.11)">
       <use xlink:href="#CMR17-31" transform="scale(0.996264)"/>
       <use xlink:href="#CMMI12-3a" transform="translate(45.690477 0) scale(0.996264)"/>
       <use xlink:href="#CMR17-30" transform="translate(72.787654 0) scale(0.996264)"/>
      </g>
     </g>
    </g>
    <g id="ytick_4">
     <g id="line2d_10">
      <path d="M 90 168.366484 
L 648 168.366484 
" clip-path="url(#p3766014caa)" style="fill: none; stroke: #ffffff; stroke-linecap: round"/>
     </g>
     <g id="text_11">
      <!-- $\mathdefault{1.5}$ -->
      <g style="fill: #262626" transform="translate(66.496924 172.171658) scale(0.11 -0.11)">
       <use xlink:href="#CMR17-31" transform="scale(0.996264)"/>
       <use xlink:href="#CMMI12-3a" transform="translate(45.690477 0) scale(0.996264)"/>
       <use xlink:href="#CMR17-35" transform="translate(72.787654 0) scale(0.996264)"/>
      </g>
     </g>
    </g>
    <g id="ytick_5">
     <g id="line2d_11">
      <path d="M 90 142.408646 
L 648 142.408646 
" clip-path="url(#p3766014caa)" style="fill: none; stroke: #ffffff; stroke-linecap: round"/>
     </g>
     <g id="text_12">
      <!-- $\mathdefault{2.0}$ -->
      <g style="fill: #262626" transform="translate(66.496924 146.213819) scale(0.11 -0.11)">
       <use xlink:href="#CMR17-32" transform="scale(0.996264)"/>
       <use xlink:href="#CMMI12-3a" transform="translate(45.690477 0) scale(0.996264)"/>
       <use xlink:href="#CMR17-30" transform="translate(72.787654 0) scale(0.996264)"/>
      </g>
     </g>
    </g>
    <g id="ytick_6">
     <g id="line2d_12">
      <path d="M 90 116.450807 
L 648 116.450807 
" clip-path="url(#p3766014caa)" style="fill: none; stroke: #ffffff; stroke-linecap: round"/>
     </g>
     <g id="text_13">
      <!-- $\mathdefault{2.5}$ -->
      <g style="fill: #262626" transform="translate(66.496924 120.255981) scale(0.11 -0.11)">
       <use xlink:href="#CMR17-32" transform="scale(0.996264)"/>
       <use xlink:href="#CMMI12-3a" transform="translate(45.690477 0) scale(0.996264)"/>
       <use xlink:href="#CMR17-35" transform="translate(72.787654 0) scale(0.996264)"/>
      </g>
     </g>
    </g>
    <g id="ytick_7">
     <g id="line2d_13">
      <path d="M 90 90.492969 
L 648 90.492969 
" clip-path="url(#p3766014caa)" style="fill: none; stroke: #ffffff; stroke-linecap: round"/>
     </g>
     <g id="text_14">
      <!-- $\mathdefault{3.0}$ -->
      <g style="fill: #262626" transform="translate(66.496924 94.298142) scale(0.11 -0.11)">
       <defs>
        <path id="CMR17-33" d="M 1414 2157 
C 1984 2157 2234 1662 2234 1090 
C 2234 320 1824 25 1453 25 
C 1114 25 563 194 390 693 
C 422 680 454 680 486 680 
C 640 680 755 782 755 948 
C 755 1133 614 1216 486 1216 
C 378 1216 211 1165 211 926 
C 211 335 787 -128 1466 -128 
C 2176 -128 2720 430 2720 1085 
C 2720 1707 2208 2157 1600 2227 
C 2086 2328 2554 2756 2554 3329 
C 2554 3820 2048 4179 1472 4179 
C 890 4179 378 3829 378 3329 
C 378 3110 544 3072 627 3072 
C 762 3072 877 3155 877 3321 
C 877 3486 762 3569 627 3569 
C 602 3569 570 3569 544 3557 
C 730 3959 1235 4032 1459 4032 
C 1683 4032 2106 3925 2106 3320 
C 2106 3143 2080 2828 1862 2550 
C 1670 2304 1453 2304 1242 2284 
C 1210 2284 1062 2269 1037 2269 
C 992 2263 966 2257 966 2208 
C 966 2163 973 2157 1101 2157 
L 1414 2157 
z
" transform="scale(0.015625)"/>
       </defs>
       <use xlink:href="#CMR17-33" transform="scale(0.996264)"/>
       <use xlink:href="#CMMI12-3a" transform="translate(45.690477 0) scale(0.996264)"/>
       <use xlink:href="#CMR17-30" transform="translate(72.787654 0) scale(0.996264)"/>
      </g>
     </g>
    </g>
    <g id="ytick_8">
     <g id="line2d_14">
      <path d="M 90 64.53513 
L 648 64.53513 
" clip-path="url(#p3766014caa)" style="fill: none; stroke: #ffffff; stroke-linecap: round"/>
     </g>
     <g id="text_15">
      <!-- $\mathdefault{3.5}$ -->
      <g style="fill: #262626" transform="translate(66.496924 68.340304) scale(0.11 -0.11)">
       <use xlink:href="#CMR17-33" transform="scale(0.996264)"/>
       <use xlink:href="#CMMI12-3a" transform="translate(45.690477 0) scale(0.996264)"/>
       <use xlink:href="#CMR17-35" transform="translate(72.787654 0) scale(0.996264)"/>
      </g>
     </g>
    </g>
    <g id="ytick_9">
     <g id="line2d_15">
      <path d="M 90 38.577292 
L 648 38.577292 
" clip-path="url(#p3766014caa)" style="fill: none; stroke: #ffffff; stroke-linecap: round"/>
     </g>
     <g id="text_16">
      <!-- $\mathdefault{4.0}$ -->
      <g style="fill: #262626" transform="translate(66.496924 42.382465) scale(0.11 -0.11)">
       <use xlink:href="#CMR17-34" transform="scale(0.996264)"/>
       <use xlink:href="#CMMI12-3a" transform="translate(45.690477 0) scale(0.996264)"/>
       <use xlink:href="#CMR17-30" transform="translate(72.787654 0) scale(0.996264)"/>
      </g>
     </g>
    </g>
    <g id="text_17">
     <!-- $S$ -->
     <g style="fill: #262626" transform="translate(60.172328 149.039668) rotate(-90) scale(0.12 -0.12)">
      <defs>
       <path id="CMMI12-53" d="M 4064 4423 
C 4064 4480 4019 4480 4006 4480 
C 3981 4480 3974 4474 3898 4378 
C 3859 4333 3597 4001 3590 3995 
C 3379 4410 2957 4480 2688 4480 
C 1875 4480 1139 3743 1139 3025 
C 1139 2549 1427 2269 1741 2161 
C 1811 2135 2189 2033 2381 1989 
C 2707 1900 2790 1875 2925 1735 
C 2950 1703 3078 1557 3078 1258 
C 3078 667 2528 57 1888 57 
C 1363 57 781 280 781 991 
C 781 1112 806 1265 826 1328 
C 826 1348 832 1378 832 1391 
C 832 1417 819 1449 768 1449 
C 710 1449 704 1436 678 1328 
L 352 24 
C 352 18 326 -64 326 -71 
C 326 -128 378 -128 390 -128 
C 416 -128 422 -122 499 -26 
L 794 356 
C 947 126 1280 -128 1875 -128 
C 2701 -128 3456 666 3456 1460 
C 3456 1728 3392 1963 3149 2197 
C 3014 2331 2899 2363 2310 2516 
C 1882 2630 1824 2649 1709 2751 
C 1600 2858 1517 3011 1517 3227 
C 1517 3761 2061 4308 2669 4308 
C 3296 4308 3590 3926 3590 3323 
C 3590 3158 3558 2986 3558 2961 
C 3558 2903 3610 2903 3629 2903 
C 3686 2903 3693 2922 3718 3024 
L 4064 4423 
z
" transform="scale(0.015625)"/>
      </defs>
      <use xlink:href="#CMMI12-53" transform="scale(0.996264)"/>
     </g>
    </g>
    <g id="text_18">
     <!-- $\times\mathdefault{10^{−21}}\mathdefault{}$ -->
     <g style="fill: #262626" transform="translate(90 31.56) scale(0.11 -0.11)">
      <defs>
       <path id="CMSY10-2" d="M 2490 1785 
L 1210 3059 
C 1133 3136 1120 3148 1069 3148 
C 1005 3148 941 3091 941 3020 
C 941 2976 954 2963 1024 2892 
L 2304 1606 
L 1024 320 
C 954 249 941 236 941 192 
C 941 121 1005 64 1069 64 
C 1120 64 1133 76 1210 153 
L 2483 1427 
L 3808 102 
C 3821 96 3866 64 3904 64 
C 3981 64 4032 121 4032 192 
C 4032 204 4032 230 4013 262 
C 4006 275 2989 1280 2669 1606 
L 3840 2777 
C 3872 2816 3968 2899 4000 2937 
C 4006 2950 4032 2976 4032 3020 
C 4032 3091 3981 3148 3904 3148 
C 3853 3148 3827 3123 3757 3052 
L 2490 1785 
z
" transform="scale(0.015625)"/>
       <path id="CMSY10-0" d="M 4218 1472 
C 4326 1472 4442 1472 4442 1600 
C 4442 1728 4326 1728 4218 1728 
L 755 1728 
C 646 1728 531 1728 531 1600 
C 531 1472 646 1472 755 1472 
L 4218 1472 
z
" transform="scale(0.015625)"/>
      </defs>
      <use xlink:href="#CMSY10-2" transform="scale(0.996264)"/>
      <use xlink:href="#CMR17-31" transform="translate(77.487468 0) scale(0.996264)"/>
      <use xlink:href="#CMR17-30" transform="translate(123.177945 0) scale(0.996264)"/>
      <use xlink:href="#CMSY10-0" transform="translate(168.868422 36.153639) scale(0.697382)"/>
      <use xlink:href="#CMR17-32" transform="translate(223.109415 36.153639) scale(0.697382)"/>
      <use xlink:href="#CMR17-31" transform="translate(255.092597 36.153639) scale(0.697382)"/>
     </g>
    </g>
   </g>
   <g id="line2d_16">
    <path d="M 115.363636 246.24 
L 120.436364 241.910507 
L 125.509091 238.076138 
L 130.581818 234.530696 
L 135.654545 231.18976 
L 140.727273 228.007075 
L 145.8 224.953384 
L 150.872727 222.008501 
L 155.945455 219.157648 
L 161.018182 216.389542 
L 166.090909 213.695283 
L 171.163636 211.067671 
L 176.236364 208.500762 
L 181.309091 205.989564 
L 186.381818 203.529827 
L 191.454545 201.117889 
L 196.527273 198.750561 
L 201.6 196.425041 
L 206.672727 194.138848 
L 211.745455 191.889771 
L 216.818182 189.675826 
L 221.890909 187.495221 
L 226.963636 185.346333 
L 232.036364 183.227683 
L 237.109091 181.137919 
L 242.181818 179.075799 
L 247.254545 177.040179 
L 252.327273 175.030001 
L 257.4 173.044285 
L 262.472727 171.08212 
L 267.545455 169.142657 
L 272.618182 167.225102 
L 277.690909 165.328712 
L 282.763636 163.452791 
L 287.836364 161.596684 
L 292.909091 159.759774 
L 297.981818 157.941479 
L 303.054545 156.141249 
L 308.127273 154.358565 
L 313.2 152.592932 
L 318.272727 150.843882 
L 323.345455 149.110972 
L 328.418182 147.393778 
L 333.490909 145.691897 
L 338.563636 144.004944 
L 343.636364 142.332553 
L 348.709091 140.674373 
L 353.781818 139.030067 
L 358.854545 137.399316 
L 363.927273 135.781811 
L 369 134.177257 
L 374.072727 132.58537 
L 379.145455 131.005878 
L 384.218182 129.43852 
L 389.290909 127.883042 
L 394.363636 126.339202 
L 399.436364 124.806768 
L 404.509091 123.285512 
L 409.581818 121.775218 
L 414.654545 120.275676 
L 419.727273 118.786682 
L 424.8 117.308042 
L 429.872727 115.839565 
L 434.945455 114.381068 
L 440.018182 112.932374 
L 445.090909 111.49331 
L 450.163636 110.063709 
L 455.236364 108.643412 
L 460.309091 107.23226 
L 465.381818 105.830101 
L 470.454545 104.436789 
L 475.527273 103.05218 
L 480.6 101.676135 
L 485.672727 100.308517 
L 490.745455 98.949197 
L 495.818182 97.598045 
L 500.890909 96.254938 
L 505.963636 94.919754 
L 511.036364 93.592375 
L 516.109091 92.272686 
L 521.181818 90.960576 
L 526.254545 89.655935 
L 531.327273 88.358656 
L 536.4 87.068636 
L 541.472727 85.785775 
L 546.545455 84.509972 
L 551.618182 83.241132 
L 556.690909 81.979161 
L 561.763636 80.723966 
L 566.836364 79.475458 
L 571.909091 78.233549 
L 576.981818 76.998153 
L 582.054545 75.769188 
L 587.127273 74.546569 
L 592.2 73.330219 
L 597.272727 72.120057 
L 602.345455 70.916008 
L 607.418182 69.717996 
L 612.490909 68.525948 
L 617.563636 67.339792 
L 622.636364 66.159457 
" clip-path="url(#p3766014caa)" style="fill: none; stroke: #4c72b0; stroke-width: 1.5; stroke-linecap: round"/>
   </g>
   <g id="line2d_17">
    <path d="M 115.363636 117.902893 
L 120.436364 114.308839 
L 125.509091 111.21454 
L 130.581818 108.413861 
L 135.654545 105.822447 
L 140.727273 103.394111 
L 145.8 101.099663 
L 150.872727 98.918987 
L 155.945455 96.837377 
L 161.018182 94.843623 
L 166.090909 92.9289 
L 171.163636 91.086084 
L 176.236364 89.30931 
L 181.309091 87.593667 
L 186.381818 85.934988 
L 191.454545 84.329694 
L 196.527273 82.774683 
L 201.6 81.267243 
L 206.672727 79.804984 
L 211.745455 78.385789 
L 216.818182 77.007767 
L 221.890909 75.669228 
L 226.963636 74.36865 
L 232.036364 73.104657 
L 237.109091 71.876005 
L 242.181818 70.68156 
L 247.254545 69.520293 
L 252.327273 68.391262 
L 257.4 67.293607 
L 262.472727 66.226539 
L 267.545455 65.189336 
L 272.618182 64.181336 
L 277.690909 63.20193 
L 282.763636 62.250561 
L 287.836364 61.326718 
L 292.909091 60.42993 
L 297.981818 59.559769 
L 303.054545 58.715843 
L 308.127273 57.897793 
L 313.2 57.105297 
L 318.272727 56.338058 
L 323.345455 55.595814 
L 328.418182 54.878328 
L 333.490909 54.185389 
L 338.563636 53.516814 
L 343.636364 52.872443 
L 348.709091 52.252141 
L 353.781818 51.655798 
L 358.854545 51.083323 
L 363.927273 50.534652 
L 369 50.00974 
L 374.072727 49.508567 
L 379.145455 49.031132 
L 384.218182 48.577459 
L 389.290909 48.147593 
L 394.363636 47.741601 
L 399.436364 47.359576 
L 404.509091 47.00163 
L 409.581818 46.667903 
L 414.654545 46.358558 
L 419.727273 46.073784 
L 424.8 45.813796 
L 429.872727 45.578838 
L 434.945455 45.369183 
L 440.018182 45.185135 
L 445.090909 45.02703 
L 450.163636 44.89524 
L 455.236364 44.790172 
L 460.309091 44.712275 
L 465.381818 44.662039 
L 470.454545 44.64 
L 475.527273 44.646746 
L 480.6 44.682917 
L 485.672727 44.749215 
L 490.745455 44.846406 
L 495.818182 44.975329 
L 500.890909 45.136904 
L 505.963636 45.33214 
L 511.036364 45.562147 
L 516.109091 45.828149 
L 521.181818 46.131499 
L 526.254545 46.473696 
L 531.327273 46.856411 
L 536.4 47.281509 
L 541.472727 47.751087 
L 546.545455 48.267512 
L 551.618182 48.833474 
L 556.690909 49.452053 
L 561.763636 50.126803 
L 566.836364 50.861869 
L 571.909091 51.66214 
L 576.981818 52.533457 
L 582.054545 53.482921 
L 587.127273 54.519334 
L 592.2 55.653882 
L 597.272727 56.901247 
L 602.345455 58.281522 
L 607.418182 59.823872 
L 612.490909 61.574461 
L 617.563636 63.617619 
L 622.636364 66.159457 
" clip-path="url(#p3766014caa)" style="fill: none; stroke: #dd8452; stroke-width: 1.5; stroke-linecap: round"/>
   </g>
   <g id="line2d_18">
    <path d="M 115.363636 117.902893 
L 120.436364 118.638332 
L 125.509091 119.378401 
L 130.581818 120.123165 
L 135.654545 120.872687 
L 140.727273 121.627036 
L 145.8 122.386279 
L 150.872727 123.150486 
L 155.945455 123.919729 
L 161.018182 124.694081 
L 166.090909 125.473617 
L 171.163636 126.258413 
L 176.236364 127.048548 
L 181.309091 127.844103 
L 186.381818 128.645161 
L 191.454545 129.451805 
L 196.527273 130.264122 
L 201.6 131.082203 
L 206.672727 131.906136 
L 211.745455 132.736017 
L 216.818182 133.571941 
L 221.890909 134.414008 
L 226.963636 135.262317 
L 232.036364 136.116974 
L 237.109091 136.978086 
L 242.181818 137.845761 
L 247.254545 138.720114 
L 252.327273 139.601261 
L 257.4 140.489322 
L 262.472727 141.384419 
L 267.545455 142.286679 
L 272.618182 143.196234 
L 277.690909 144.113218 
L 282.763636 145.03777 
L 287.836364 145.970033 
L 292.909091 146.910156 
L 297.981818 147.85829 
L 303.054545 148.814593 
L 308.127273 149.779229 
L 313.2 150.752365 
L 318.272727 151.734176 
L 323.345455 152.724842 
L 328.418182 153.724549 
L 333.490909 154.733492 
L 338.563636 155.751869 
L 343.636364 156.77989 
L 348.709091 157.817769 
L 353.781818 158.86573 
L 358.854545 159.924007 
L 363.927273 160.992841 
L 369 162.072483 
L 374.072727 163.163196 
L 379.145455 164.265253 
L 384.218182 165.378939 
L 389.290909 166.504551 
L 394.363636 167.642399 
L 399.436364 168.792808 
L 404.509091 169.956118 
L 409.581818 171.132686 
L 414.654545 172.322883 
L 419.727273 173.527101 
L 424.8 174.745754 
L 429.872727 175.979273 
L 434.945455 177.228115 
L 440.018182 178.492761 
L 445.090909 179.773721 
L 450.163636 181.07153 
L 455.236364 182.38676 
L 460.309091 183.720015 
L 465.381818 185.071937 
L 470.454545 186.443211 
L 475.527273 187.834566 
L 480.6 189.246783 
L 485.672727 190.680698 
L 490.745455 192.137209 
L 495.818182 193.617284 
L 500.890909 195.121966 
L 505.963636 196.652386 
L 511.036364 198.209772 
L 516.109091 199.795463 
L 521.181818 201.410923 
L 526.254545 203.057761 
L 531.327273 204.737755 
L 536.4 206.452873 
L 541.472727 208.205313 
L 546.545455 209.99754 
L 551.618182 211.832342 
L 556.690909 213.712892 
L 561.763636 215.642837 
L 566.836364 217.626412 
L 571.909091 219.668591 
L 576.981818 221.775304 
L 582.054545 223.953734 
L 587.127273 226.212764 
L 592.2 228.563663 
L 597.272727 231.02119 
L 602.345455 233.605514 
L 607.418182 236.345876 
L 612.490909 239.288513 
L 617.563636 242.517827 
L 622.636364 246.24 
" clip-path="url(#p3766014caa)" style="fill: none; stroke: #55a868; stroke-width: 1.5; stroke-linecap: round"/>
   </g>
   <g id="line2d_19">
    <defs>
     <path id="md59133edd2" d="M 0 3 
C 0.795609 3 1.55874 2.683901 2.12132 2.12132 
C 2.683901 1.55874 3 0.795609 3 0 
C 3 -0.795609 2.683901 -1.55874 2.12132 -2.12132 
C 1.55874 -2.683901 0.795609 -3 0 -3 
C -0.795609 -3 -1.55874 -2.683901 -2.12132 -2.12132 
C -2.683901 -1.55874 -3 -0.795609 -3 0 
C -3 0.795609 -2.683901 1.55874 -2.12132 2.12132 
C -1.55874 2.683901 -0.795609 3 0 3 
z
" style="stroke: #c44e52"/>
    </defs>
    <g clip-path="url(#p3766014caa)">
     <use xlink:href="#md59133edd2" x="470.454545" y="44.64" style="fill: #c44e52; stroke: #c44e52"/>
    </g>
   </g>
   <g id="patch_3">
    <path d="M 90 256.32 
L 90 34.56 
" style="fill: none; stroke: #ffffff; stroke-width: 1.25; stroke-linejoin: miter; stroke-linecap: square"/>
   </g>
   <g id="patch_4">
    <path d="M 648 256.32 
L 648 34.56 
" style="fill: none; stroke: #ffffff; stroke-width: 1.25; stroke-linejoin: miter; stroke-linecap: square"/>
   </g>
   <g id="patch_5">
    <path d="M 90 256.32 
L 648 256.32 
" style="fill: none; stroke: #ffffff; stroke-width: 1.25; stroke-linejoin: miter; stroke-linecap: square"/>
   </g>
   <g id="patch_6">
    <path d="M 90 34.56 
L 648 34.56 
" style="fill: none; stroke: #ffffff; stroke-width: 1.25; stroke-linejoin: miter; stroke-linecap: square"/>
   </g>
   <g id="text_19">
    <!-- Entropy of the combined system as a function of $q_A$ -->
    <g style="fill: #262626" transform="translate(242.179077 28.56) scale(0.12 -0.12)">
     <defs>
      <path id="CMSS17-45" d="M 1958 433 
C 1446 433 1216 433 1101 433 
L 1101 2107 
L 3085 2107 
L 3085 2496 
L 1101 2496 
L 1101 4009 
L 1926 4009 
C 2003 4009 2080 4009 2157 4009 
L 3251 4009 
L 3251 4416 
L 563 4416 
L 563 0 
L 3334 0 
L 3334 433 
L 1958 433 
z
" transform="scale(0.015625)"/>
      <path id="CMSS17-6e" d="M 2618 1877 
C 2618 2283 2522 2816 1798 2816 
C 1389 2816 1120 2606 941 2389 
L 941 2758 
L 474 2758 
L 474 0 
L 960 0 
L 960 1559 
C 960 1964 1114 2428 1549 2428 
C 2112 2428 2131 2048 2131 1829 
L 2131 0 
L 2618 0 
L 2618 1877 
z
" transform="scale(0.015625)"/>
      <path id="CMSS17-74" d="M 1069 2368 
L 1901 2368 
L 1901 2737 
L 1069 2737 
L 1069 3520 
L 614 3520 
L 614 2737 
L 109 2737 
L 109 2368 
L 602 2368 
L 602 749 
C 602 384 685 -64 1107 -64 
C 1427 -64 1722 25 2003 172 
L 1901 548 
C 1747 414 1562 337 1363 337 
C 1082 337 1069 696 1069 856 
L 1069 2368 
z
" transform="scale(0.015625)"/>
      <path id="CMSS17-72" d="M 954 1363 
C 954 1965 1395 2368 1958 2368 
L 1958 2789 
C 1549 2789 1165 2585 934 2253 
L 934 2758 
L 480 2758 
L 480 0 
L 954 0 
L 954 1363 
z
" transform="scale(0.015625)"/>
      <path id="CMSS17-6f" d="M 2829 1356 
C 2829 2176 2221 2816 1504 2816 
C 768 2816 173 2157 173 1356 
C 173 544 787 -64 1498 -64 
C 2227 -64 2829 563 2829 1356 
z
M 1504 337 
C 1050 337 659 709 659 1408 
C 659 2151 1114 2427 1498 2427 
C 1914 2427 2342 2126 2342 1408 
C 2342 683 1926 337 1504 337 
z
" transform="scale(0.015625)"/>
      <path id="CMSS17-70" d="M 966 333 
C 1178 129 1466 -5 1773 -5 
C 2368 -5 2880 603 2880 1412 
C 2880 2159 2496 2816 1946 2816 
C 1626 2816 1242 2702 954 2472 
L 954 2765 
L 480 2765 
L 480 -1216 
L 966 -1216 
L 966 333 
z
M 966 2100 
C 1018 2176 1235 2415 1587 2415 
C 2035 2415 2394 1960 2394 1412 
C 2394 787 1958 384 1530 384 
C 1402 384 1267 415 1139 523 
C 966 674 966 768 966 857 
L 966 2100 
z
" transform="scale(0.015625)"/>
      <path id="CMSS17-79" d="M 2675 2752 
L 2176 2752 
C 1632 1294 1446 702 1434 383 
L 1427 383 
C 1408 696 1126 1460 902 2007 
L 602 2752 
L 83 2752 
L 1216 13 
C 1146 -178 1043 -465 1011 -529 
C 870 -885 774 -885 672 -885 
C 646 -885 442 -885 211 -809 
L 250 -1229 
C 410 -1261 570 -1280 685 -1280 
C 845 -1280 1165 -1280 1459 -497 
L 2675 2752 
z
" transform="scale(0.015625)"/>
      <path id="CMSS17-66" d="M 1075 2368 
L 1722 2368 
L 1722 2737 
L 1062 2737 
L 1062 3559 
C 1062 4014 1408 4092 1606 4092 
C 1670 4092 1850 4092 2080 4009 
L 2080 4429 
C 1933 4461 1754 4480 1613 4480 
C 1018 4480 602 3993 602 3359 
L 602 2737 
L 160 2737 
L 160 2368 
L 602 2368 
L 602 0 
L 1075 0 
L 1075 2368 
z
" transform="scale(0.015625)"/>
      <path id="CMSS17-68" d="M 2618 1891 
C 2618 2292 2522 2820 1798 2820 
C 1395 2820 1133 2623 947 2407 
L 947 4448 
L 474 4448 
L 474 32 
L 960 32 
L 960 1573 
C 960 1973 1114 2432 1549 2432 
C 2112 2432 2131 2056 2131 1839 
L 2131 32 
L 2618 32 
L 2618 1891 
z
" transform="scale(0.015625)"/>
      <path id="CMSS17-65" d="M 2502 1377 
C 2502 1590 2490 2003 2285 2345 
C 2061 2713 1696 2816 1421 2816 
C 755 2816 192 2188 192 1375 
C 192 582 774 -64 1510 -64 
C 1798 -64 2150 19 2470 248 
C 2470 274 2458 414 2451 420 
C 2451 433 2432 630 2432 656 
C 2125 407 1773 325 1517 325 
C 1107 325 666 667 646 1377 
L 2502 1377 
z
M 698 1728 
C 781 2084 1062 2421 1421 2421 
C 1517 2421 1965 2421 2080 1728 
L 698 1728 
z
" transform="scale(0.015625)"/>
      <path id="CMSS17-63" d="M 2464 2541 
C 2464 2585 2170 2714 2093 2739 
C 1882 2816 1613 2816 1542 2816 
C 710 2816 211 2093 211 1363 
C 211 595 768 -64 1517 -64 
C 1946 -64 2253 76 2502 242 
L 2464 664 
C 2189 453 1869 337 1523 337 
C 1024 337 698 774 698 1369 
C 698 1831 909 2414 1549 2414 
C 1901 2414 2099 2343 2394 2145 
L 2464 2541 
z
" transform="scale(0.015625)"/>
      <path id="CMSS17-6d" d="M 4288 1877 
C 4288 2308 4179 2816 3462 2816 
C 2982 2816 2694 2516 2566 2331 
C 2451 2670 2182 2816 1798 2816 
C 1363 2816 1088 2568 941 2389 
L 941 2758 
L 474 2758 
L 474 0 
L 960 0 
L 960 1559 
C 960 1939 1101 2428 1555 2428 
C 2138 2428 2138 2016 2138 1829 
L 2138 0 
L 2624 0 
L 2624 1559 
C 2624 1939 2765 2428 3219 2428 
C 3802 2428 3802 2016 3802 1829 
L 3802 0 
L 4288 0 
L 4288 1877 
z
" transform="scale(0.015625)"/>
      <path id="CMSS17-62" d="M 954 4416 
L 480 4416 
L 480 -13 
L 966 -13 
L 966 274 
C 1210 38 1504 -64 1766 -64 
C 2381 -64 2880 549 2880 1352 
C 2880 2086 2496 2756 1926 2756 
C 1523 2756 1165 2591 954 2419 
L 954 4416 
z
M 966 2046 
C 1107 2222 1306 2368 1587 2368 
C 1965 2368 2394 2097 2394 1352 
C 2394 558 1882 325 1530 325 
C 1402 325 1267 356 1139 464 
C 966 615 966 709 966 797 
L 966 2046 
z
" transform="scale(0.015625)"/>
      <path id="CMSS17-69" d="M 979 4183 
L 442 4183 
L 442 3648 
L 979 3648 
L 979 4183 
z
M 947 2739 
L 474 2739 
L 474 0 
L 947 0 
L 947 2739 
z
" transform="scale(0.015625)"/>
      <path id="CMSS17-64" d="M 2611 4416 
L 2138 4416 
L 2138 2438 
C 1939 2603 1613 2756 1254 2756 
C 672 2756 211 2131 211 1347 
C 211 562 666 -64 1235 -64 
C 1677 -64 1971 172 2125 306 
L 2125 -13 
L 2611 -13 
L 2611 4416 
z
M 2125 836 
C 2125 747 2125 653 1926 482 
C 1798 375 1645 325 1498 325 
C 1152 325 698 576 698 1340 
C 698 2134 1210 2368 1562 2368 
C 1798 2368 1990 2254 2125 2065 
L 2125 836 
z
" transform="scale(0.015625)"/>
      <path id="CMSS17-73" d="M 2061 2627 
C 1683 2807 1389 2807 1197 2807 
C 742 2807 198 2648 198 2003 
C 198 1359 902 1218 1094 1179 
C 1389 1122 1715 1058 1715 740 
C 1715 337 1254 337 1171 337 
C 915 337 563 407 243 638 
L 166 210 
C 531 0 883 -64 1178 -64 
C 1965 -64 2163 416 2163 781 
C 2163 1094 1984 1305 1862 1401 
C 1651 1568 1574 1587 1050 1696 
C 960 1709 646 1779 646 2066 
C 646 2432 1050 2432 1139 2432 
C 1555 2432 1811 2303 1984 2208 
L 2061 2627 
z
" transform="scale(0.015625)"/>
      <path id="CMSS17-61" d="M 2406 1791 
C 2406 2392 1978 2808 1402 2808 
C 1120 2808 813 2757 461 2553 
L 499 2135 
C 659 2248 934 2432 1395 2432 
C 1722 2432 1920 2180 1920 1782 
L 1920 1536 
C 896 1536 256 1238 256 726 
C 256 461 416 -64 947 -64 
C 1043 -64 1562 -64 1933 217 
L 1933 -19 
L 2406 -19 
L 2406 1791 
z
M 1920 816 
C 1920 701 1920 548 1728 434 
C 1562 325 1350 325 1261 325 
C 941 325 723 511 723 744 
C 723 1211 1722 1211 1920 1211 
L 1920 816 
z
" transform="scale(0.015625)"/>
      <path id="CMSS17-75" d="M 2618 2739 
L 2131 2739 
L 2131 972 
C 2131 498 1786 306 1421 306 
C 998 306 960 447 960 709 
L 960 2739 
L 474 2739 
L 474 678 
C 474 179 646 -64 1088 -64 
C 1306 -64 1798 -13 2144 306 
L 2144 0 
L 2618 0 
L 2618 2739 
z
" transform="scale(0.015625)"/>
     </defs>
     <use xlink:href="#CMSS17-45" transform="scale(0.996264)"/>
     <use xlink:href="#CMSS17-6e" transform="translate(55.892013 0) scale(0.996264)"/>
     <use xlink:href="#CMSS17-74" transform="translate(104.096956 0) scale(0.996264)"/>
     <use xlink:href="#CMSS17-72" transform="translate(137.928523 0) scale(0.996264)"/>
     <use xlink:href="#CMSS17-6f" transform="translate(169.838296 0) scale(0.996264)"/>
     <use xlink:href="#CMSS17-70" transform="translate(216.681919 0) scale(0.996264)"/>
     <use xlink:href="#CMSS17-79" transform="translate(262.284408 0) scale(0.996264)"/>
     <use xlink:href="#CMSS17-6f" transform="translate(336.513663 0) scale(0.996264)"/>
     <use xlink:href="#CMSS17-66" transform="translate(383.357286 0) scale(0.996264)"/>
     <use xlink:href="#CMSS17-74" transform="translate(443.213058 0) scale(0.996264)"/>
     <use xlink:href="#CMSS17-68" transform="translate(477.044625 0) scale(0.996264)"/>
     <use xlink:href="#CMSS17-65" transform="translate(525.249568 0) scale(0.996264)"/>
     <use xlink:href="#CMSS17-63" transform="translate(598.117502 0) scale(0.996264)"/>
     <use xlink:href="#CMSS17-6f" transform="translate(639.756325 0) scale(0.996264)"/>
     <use xlink:href="#CMSS17-6d" transform="translate(686.599948 0) scale(0.996264)"/>
     <use xlink:href="#CMSS17-62" transform="translate(760.829203 0) scale(0.996264)"/>
     <use xlink:href="#CMSS17-69" transform="translate(809.034146 0) scale(0.996264)"/>
     <use xlink:href="#CMSS17-6e" transform="translate(831.214869 0) scale(0.996264)"/>
     <use xlink:href="#CMSS17-65" transform="translate(879.419812 0) scale(0.996264)"/>
     <use xlink:href="#CMSS17-64" transform="translate(921.058634 0) scale(0.996264)"/>
     <use xlink:href="#CMSS17-73" transform="translate(1000.49269 0) scale(0.996264)"/>
     <use xlink:href="#CMSS17-79" transform="translate(1036.406232 0) scale(0.996264)"/>
     <use xlink:href="#CMSS17-73" transform="translate(1079.406373 0) scale(0.996264)"/>
     <use xlink:href="#CMSS17-74" transform="translate(1115.319915 0) scale(0.996264)"/>
     <use xlink:href="#CMSS17-65" transform="translate(1149.151482 0) scale(0.996264)"/>
     <use xlink:href="#CMSS17-6d" transform="translate(1190.790304 0) scale(0.996264)"/>
     <use xlink:href="#CMSS17-61" transform="translate(1296.248671 0) scale(0.996264)"/>
     <use xlink:href="#CMSS17-73" transform="translate(1341.170592 0) scale(0.996264)"/>
     <use xlink:href="#CMSS17-61" transform="translate(1408.313247 0) scale(0.996264)"/>
     <use xlink:href="#CMSS17-66" transform="translate(1484.46428 0) scale(0.996264)"/>
     <use xlink:href="#CMSS17-75" transform="translate(1513.090939 0) scale(0.996264)"/>
     <use xlink:href="#CMSS17-6e" transform="translate(1561.295882 0) scale(0.996264)"/>
     <use xlink:href="#CMSS17-63" transform="translate(1609.500825 0) scale(0.996264)"/>
     <use xlink:href="#CMSS17-74" transform="translate(1651.139647 0) scale(0.996264)"/>
     <use xlink:href="#CMSS17-69" transform="translate(1684.971214 0) scale(0.996264)"/>
     <use xlink:href="#CMSS17-6f" transform="translate(1707.151937 0) scale(0.996264)"/>
     <use xlink:href="#CMSS17-6e" transform="translate(1753.99556 0) scale(0.996264)"/>
     <use xlink:href="#CMSS17-6f" transform="translate(1833.429616 0) scale(0.996264)"/>
     <use xlink:href="#CMSS17-66" transform="translate(1880.27324 0) scale(0.996264)"/>
     <use xlink:href="#CMMI12-71" transform="translate(1940.129011 0) scale(0.996264)"/>
     <use xlink:href="#CMMI12-41" transform="translate(1983.380743 -14.943915) scale(0.697382)"/>
    </g>
   </g>
  </g>
 </g>
 <defs>
  <clipPath id="p3766014caa">
   <rect x="90" y="34.56" width="558" height="221.76"/>
  </clipPath>
 </defs>
</svg>
