<?xml version="1.0" encoding="utf-8" standalone="no"?>
<!DOCTYPE svg PUBLIC "-//W3C//DTD SVG 1.1//EN"
  "http://www.w3.org/Graphics/SVG/1.1/DTD/svg11.dtd">
<svg xmlns:xlink="http://www.w3.org/1999/xlink" width="720pt" height="288pt" viewBox="0 0 720 288" xmlns="http://www.w3.org/2000/svg" version="1.1">
 <metadata>
  <rdf:RDF xmlns:dc="http://purl.org/dc/elements/1.1/" xmlns:cc="http://creativecommons.org/ns#" xmlns:rdf="http://www.w3.org/1999/02/22-rdf-syntax-ns#">
   <cc:Work>
    <dc:type rdf:resource="http://purl.org/dc/dcmitype/StillImage"/>
    <dc:date>2023-10-09T10:07:30.420902</dc:date>
    <dc:format>image/svg+xml</dc:format>
    <dc:creator>
     <cc:Agent>
      <dc:title>Matplotlib v3.6.2, https://matplotlib.org/</dc:title>
     </cc:Agent>
    </dc:creator>
   </cc:Work>
  </rdf:RDF>
 </metadata>
 <defs>
  <style type="text/css">*{stroke-linejoin: round; stroke-linecap: butt}</style>
 </defs>
 <g id="figure_1">
  <g id="patch_1">
   <path d="M 0 288 
L 720 288 
L 720 0 
L 0 0 
z
" style="fill: #ffffff"/>
  </g>
  <g id="axes_1">
   <g id="patch_2">
    <path d="M 90 256.32 
L 648 256.32 
L 648 34.56 
L 90 34.56 
z
" style="fill: #eaeaf2"/>
   </g>
   <g id="matplotlib.axis_1"/>
   <g id="matplotlib.axis_2"/>
   <g id="line2d_1">
    <path d="M 115.363636 71.087037 
L 115.573123 71.917457 
L 115.625495 71.831021 
L 115.887354 72.018959 
L 116.201584 72.146467 
L 116.411071 72.314125 
L 117.982224 72.952974 
L 118.872543 73.50338 
L 119.97235 74.23663 
L 120.338952 74.433456 
L 120.548439 74.542344 
L 121.962476 75.450593 
L 122.276707 75.588859 
L 130.76093 83.046664 
L 131.598877 83.963147 
L 131.860736 84.19717 
L 132.436825 84.679236 
L 133.327145 85.375715 
L 134.06035 86.087151 
L 137.935859 89.085787 
L 138.459576 89.678068 
L 139.035665 90.271433 
L 139.978357 91.390296 
L 143.644379 95.320969 
L 146.420081 99.191925 
L 148.043606 100.592033 
L 148.619695 101.08791 
L 149.09104 101.628768 
L 149.98136 102.625431 
L 151.552513 104.856945 
L 152.180973 105.671885 
L 152.652319 106.2272 
L 153.437895 107.091529 
L 154.48533 108.360509 
L 155.428022 109.611669 
L 155.742252 110.028743 
L 158.884557 114.035943 
L 159.513018 114.954655 
L 160.246222 116.022533 
L 161.241285 117.477182 
L 161.97449 118.477377 
L 163.074297 119.834953 
L 164.016988 120.835794 
L 165.012051 122.15264 
L 165.326282 122.583258 
L 167.944869 126.354753 
L 168.259099 126.801631 
L 169.77788 129.121803 
L 170.458713 130.277632 
L 171.558519 131.932468 
L 172.029865 132.576842 
L 172.815441 133.635366 
L 173.182043 134.076239 
L 174.072363 135.22783 
L 175.905374 137.789795 
L 176.743322 139.033137 
L 176.952809 139.349556 
L 177.528898 140.285637 
L 178.052616 141.113926 
L 180.042742 144.014357 
L 181.194921 145.707925 
L 182.294727 147.279476 
L 182.870816 148.0717 
L 183.551649 149.076987 
L 184.808571 151.06605 
L 188.841195 156.774674 
L 189.679143 157.775758 
L 190.831322 159.468669 
L 191.197924 159.91512 
L 193.659396 162.976276 
L 194.235485 163.58193 
L 194.706831 164.212066 
L 195.387664 164.954182 
L 195.806638 165.395725 
L 200.467723 171.35082 
L 201.934132 173.592383 
L 202.300734 174.042172 
L 203.191054 175.233895 
L 203.348169 175.393987 
L 203.819515 176.02858 
L 204.552719 176.839062 
L 207.066563 180.109224 
L 207.27605 180.349264 
L 210.313611 184.269731 
L 210.627841 184.607075 
L 211.361046 185.44361 
L 212.565596 186.782916 
L 213.089314 187.383662 
L 213.927261 188.447984 
L 216.28399 191.288495 
L 219.426295 194.870657 
L 220.107127 195.765538 
L 220.316614 195.991987 
L 220.630845 196.276104 
L 230.005387 205.339131 
L 230.948079 206.00734 
L 231.419424 206.50588 
L 234.247499 209.060047 
L 234.823588 209.528974 
L 235.556792 210.155992 
L 235.766279 210.36329 
L 236.237625 210.693496 
L 236.447112 210.833328 
L 236.813714 211.07692 
L 237.59929 211.548962 
L 238.332495 212.095602 
L 238.646725 212.25525 
L 239.065699 212.553397 
L 239.222815 212.652481 
L 240.374993 213.540016 
L 240.89871 213.800083 
L 241.370056 214.063492 
L 241.736658 214.269677 
L 242.155632 214.488778 
L 242.417491 214.637737 
L 242.731722 214.792489 
L 242.941208 214.878658 
L 245.036078 215.925396 
L 245.245565 216.02203 
L 245.559796 216.205058 
L 246.711974 216.877499 
L 247.078576 217.101944 
L 247.864153 217.669063 
L 248.38787 218.00818 
L 251.477803 219.274461 
L 251.739662 219.358182 
L 252.315751 219.523623 
L 255.981773 220.664323 
L 256.505491 220.878746 
L 257.762412 221.388194 
L 258.181386 221.616202 
L 258.547989 221.804129 
L 258.862219 221.962445 
L 261.061832 222.889836 
L 262.842472 223.155916 
L 263.785163 223.420661 
L 264.256509 223.586099 
L 264.780226 223.672047 
L 265.094457 223.752872 
L 266.508494 224.059921 
L 267.346442 224.058806 
L 268.655736 224.115361 
L 268.917594 224.079069 
L 270.069773 224.293269 
L 275.568806 224.495895 
L 276.668613 224.670909 
L 276.982843 224.715664 
L 277.297074 224.748619 
L 278.972969 224.904927 
L 280.387007 224.983527 
L 280.963096 225.00802 
L 281.277326 224.991766 
L 284.1054 225.319968 
L 284.576746 225.360046 
L 285.571809 225.287904 
L 286.77636 225.070145 
L 287.876166 225.132492 
L 288.138025 225.21911 
L 288.661742 225.318416 
L 289.394947 225.41594 
L 290.494753 225.281449 
L 290.756612 225.197058 
L 294.056032 225.338007 
L 294.632121 225.273879 
L 295.470069 225.28902 
L 296.936478 225.377635 
L 297.460196 225.318184 
L 298.141028 225.237136 
L 298.560002 225.356484 
L 301.49282 226.052976 
L 302.802114 226.168312 
L 303.168716 226.185012 
L 304.949355 226.218194 
L 305.525444 226.228883 
L 306.049162 226.24781 
L 306.363392 226.275865 
L 306.88711 226.215523 
L 307.463199 226.233335 
L 307.986916 226.102411 
L 309.139095 226.141373 
L 309.453325 226.185462 
L 310.18653 226.314605 
L 311.548195 226.484274 
L 312.229028 226.492065 
L 312.648002 226.470244 
L 313.119348 226.468686 
L 313.433578 226.511882 
L 313.904924 226.525019 
L 314.376269 226.597385 
L 315.00473 226.727867 
L 315.423704 226.852779 
L 315.737935 226.895752 
L 316.261652 226.943845 
L 316.837741 227.026675 
L 317.256715 227.029348 
L 317.466202 227.089022 
L 317.728061 227.080114 
L 320.765622 227.191224 
L 321.498827 227.243551 
L 321.708314 227.273609 
L 321.917801 227.299216 
L 322.49389 227.374476 
L 323.017607 227.474452 
L 326.99786 228.036455 
L 327.364462 228.124407 
L 330.611511 228.645662 
L 331.711317 228.830913 
L 335.534455 229.264883 
L 335.848685 229.296279 
L 336.110544 229.393582 
L 336.424774 229.410281 
L 337.995927 229.829997 
L 338.833875 229.952016 
L 339.30522 230.011245 
L 339.567079 230.024159 
L 340.405027 230.179578 
L 341.295347 230.324532 
L 341.766692 230.420722 
L 343.652075 230.739355 
L 343.913934 230.746258 
L 344.856625 230.881637 
L 345.223228 230.911026 
L 346.375406 231.1967 
L 346.689636 231.257487 
L 349.360595 232.234755 
L 349.779569 232.226516 
L 352.031554 232.292645 
L 352.241041 232.366568 
L 353.236105 232.586336 
L 353.602707 232.692324 
L 354.388283 232.882256 
L 355.278603 232.906081 
L 356.640268 233.028318 
L 356.849755 233.054145 
L 357.687703 233.220475 
L 359.10174 233.317781 
L 359.258855 233.333592 
L 360.672892 233.531762 
L 361.039495 233.607469 
L 361.301353 233.632185 
L 361.667956 233.727486 
L 361.825071 233.768678 
L 362.296417 233.858857 
L 362.663019 233.89604 
L 362.872506 233.909845 
L 363.500967 234.036761 
L 364.181799 234.049227 
L 364.653145 234.033641 
L 365.124491 234.140963 
L 365.70058 234.133172 
L 366.067182 234.153434 
L 371.775703 235.031167 
L 371.985189 235.020257 
L 372.29942 235.061227 
L 372.823137 235.134483 
L 373.399227 235.226442 
L 373.713457 235.308381 
L 375.755955 235.685795 
L 376.48916 235.67778 
L 376.80339 235.704723 
L 377.169992 235.741239 
L 378.479286 236.128673 
L 378.89826 236.273627 
L 379.21249 236.345769 
L 379.78858 236.377388 
L 380.99313 236.283206 
L 381.30736 236.268954 
L 381.516847 236.27942 
L 382.564282 236.564422 
L 382.983256 236.657938 
L 383.40223 236.78552 
L 384.60678 237.040249 
L 385.025754 236.999503 
L 385.392356 237.015757 
L 387.749085 237.194783 
L 388.272802 237.14691 
L 388.587033 237.122642 
L 390.210557 237.196787 
L 390.472416 237.239314 
L 390.786646 237.331053 
L 391.20562 237.455076 
L 391.886453 237.442159 
L 393.457605 237.746982 
L 394.033694 237.816677 
L 394.452668 237.948271 
L 394.766899 238.025088 
L 397.280743 238.140653 
L 397.961575 237.974545 
L 399.794586 238.029983 
L 400.056445 238.045348 
L 401.575226 237.794188 
L 401.784713 237.792853 
L 402.360802 237.799312 
L 404.979389 238.235063 
L 406.655285 238.725142 
L 406.917144 238.802183 
L 407.179002 238.795949 
L 408.01695 238.736054 
L 408.278809 238.704879 
L 408.697783 238.649881 
L 409.273872 238.583527 
L 409.483359 238.573951 
L 410.164192 238.603565 
L 411.473486 238.688845 
L 411.787716 238.670587 
L 412.678036 238.657228 
L 413.201753 238.717126 
L 413.41124 238.723806 
L 413.725471 238.69397 
L 414.30156 238.694637 
L 414.563419 238.735607 
L 414.930021 238.743845 
L 415.663225 238.786817 
L 415.977456 238.814202 
L 416.448801 238.906161 
L 416.920147 239.012594 
L 417.129634 239.027957 
L 420.271939 238.815761 
L 420.586169 238.828897 
L 421.162259 238.686393 
L 421.685976 238.696639 
L 422.262065 238.703987 
L 422.733411 238.697531 
L 422.99527 238.680611 
L 426.556548 238.820889 
L 426.923151 238.750303 
L 427.970585 238.827344 
L 428.913277 238.821107 
L 429.122764 238.854729 
L 431.217634 238.830908 
L 432.107953 238.808642 
L 432.31744 238.814207 
L 433.312504 238.995228 
L 433.574362 239.00881 
L 434.307567 239.032631 
L 435.407373 239.10745 
L 436.245321 239.100104 
L 436.82141 239.188727 
L 437.764102 239.206313 
L 438.497306 239.330781 
L 440.277946 239.804609 
L 441.273009 239.827989 
L 441.691983 239.695501 
L 441.953842 239.636941 
L 442.529931 239.487759 
L 443.10602 239.419402 
L 443.786853 239.196737 
L 446.772042 239.157999 
L 447.138644 239.184048 
L 447.348131 239.183827 
L 447.714734 239.172472 
L 448.081336 239.211213 
L 449.966719 239.453024 
L 450.280949 239.488204 
L 451.694986 239.495999 
L 453.266139 239.721109 
L 454.104086 239.71866 
L 454.313573 239.723335 
L 455.09915 239.756959 
L 455.989469 239.772771 
L 456.513187 239.804167 
L 457.874852 239.801273 
L 458.084339 239.822427 
L 458.869915 239.787687 
L 459.446005 239.819527 
L 460.231581 239.67457 
L 460.912413 239.656311 
L 461.226644 239.616899 
L 462.431194 239.633599 
L 462.640681 239.657648 
L 463.059655 239.690156 
L 463.531001 239.709303 
L 463.845231 239.779223 
L 464.10709 239.81908 
L 464.787923 239.870516 
L 465.468755 239.887437 
L 466.673305 240.027936 
L 467.40651 239.939539 
L 467.930227 239.920611 
L 468.715804 239.783453 
L 474.529067 240.11589 
L 474.895669 240.183805 
L 475.157528 240.189148 
L 475.52413 240.296249 
L 475.733617 240.289792 
L 476.257335 240.39845 
L 476.519194 240.495975 
L 476.833424 240.513121 
L 477.042911 240.590163 
L 477.723744 240.555205 
L 480.342331 240.464354 
L 480.813677 240.522913 
L 481.127907 240.569228 
L 481.861112 240.65451 
L 482.227714 240.628458 
L 482.803803 240.520689 
L 484.427327 240.369722 
L 486.31271 240.721534 
L 488.250465 240.591049 
L 488.617067 240.603297 
L 489.036041 240.687241 
L 490.554821 241.169752 
L 491.340398 241.187345 
L 491.654628 241.22787 
L 492.649691 241.213841 
L 493.278152 241.364583 
L 493.854241 241.404441 
L 494.063728 241.439175 
L 494.430331 241.388407 
L 494.901676 241.366588 
L 495.163535 241.328512 
L 495.477765 241.218514 
L 496.106226 241.13546 
L 496.5252 241.168191 
L 497.625007 241.131897 
L 498.881929 241.308468 
L 499.143788 241.348103 
L 499.458018 241.380166 
L 500.453081 241.503075 
L 500.872055 241.570989 
L 504.485706 241.753572 
L 506.528204 241.515767 
L 506.842434 241.527346 
L 510.141854 242.084449 
L 510.403713 242.109164 
L 510.770315 242.19667 
L 511.136917 242.289072 
L 513.650761 242.481455 
L 514.122107 242.654019 
L 514.541081 242.635982 
L 514.80294 242.656245 
L 515.169542 242.704563 
L 515.431401 242.678064 
L 515.693259 242.627742 
L 517.054925 242.466535 
L 517.316783 242.524204 
L 517.997616 242.501939 
L 518.73082 242.719928 
L 519.516397 242.936353 
L 519.935371 242.915645 
L 522.03024 243.176164 
L 522.292099 243.265675 
L 522.553958 243.280594 
L 523.130047 243.317109 
L 524.12511 243.35318 
L 525.224917 243.446476 
L 525.643891 243.470523 
L 526.062865 243.528193 
L 526.324724 243.566046 
L 526.586582 243.530865 
L 527.005556 243.531756 
L 528.052991 243.490788 
L 528.367222 243.502809 
L 528.890939 243.467405 
L 529.624144 243.66958 
L 530.462091 243.847933 
L 531.457155 244.052118 
L 531.823757 244.024506 
L 532.399846 243.988659 
L 532.661705 243.992 
L 533.028307 243.889573 
L 533.70914 243.851945 
L 534.075742 243.824335 
L 534.337601 243.782252 
L 534.91369 243.751527 
L 535.123177 243.765109 
L 535.385036 243.818326 
L 535.908753 243.927429 
L 536.43247 243.853949 
L 537.427534 244.093533 
L 537.898879 244.255407 
L 538.370225 244.177029 
L 539.155801 244.195735 
L 539.41766 244.141183 
L 540.936441 244.154985 
L 542.088619 244.523488 
L 542.821823 244.575371 
L 543.083682 244.587839 
L 543.345541 244.5226 
L 543.92163 244.521267 
L 544.864322 244.480077 
L 545.440411 244.491432 
L 545.702269 244.423743 
L 546.068872 244.399695 
L 547.273422 244.256745 
L 549.892009 244.501895 
L 550.468098 244.420178 
L 553.81989 244.410831 
L 554.029377 244.405931 
L 554.343607 244.377207 
L 554.867325 244.420179 
L 555.810016 244.596527 
L 556.071875 244.689378 
L 556.438477 244.737694 
L 556.752708 244.807166 
L 558.585719 244.767755 
L 559.161808 244.767756 
L 559.476039 244.743039 
L 559.685526 244.720551 
L 560.104499 244.688264 
L 561.204306 244.747715 
L 561.413793 244.718323 
L 562.199369 244.768421 
L 563.403919 244.818965 
L 565.184559 244.700511 
L 565.603533 244.727676 
L 566.179622 244.662657 
L 566.493852 244.666219 
L 566.912826 244.702958 
L 567.541287 244.731237 
L 568.483979 244.714761 
L 568.693466 244.727675 
L 569.007696 244.681585 
L 569.269555 244.713204 
L 569.740901 244.729903 
L 570.107503 244.721888 
L 570.63122 244.785122 
L 570.840707 244.843014 
L 571.416797 245.018697 
L 571.573912 245.02983 
L 571.992886 245.124682 
L 573.302179 245.358702 
L 573.773525 245.374064 
L 574.925703 245.252714 
L 575.397049 245.172109 
L 575.816023 245.114216 
L 576.863458 245.066346 
L 578.382239 245.282552 
L 579.743904 245.196379 
L 580.52948 245.017135 
L 580.843711 244.884205 
L 582.729094 244.692492 
L 583.148068 244.882423 
L 583.8289 245.01246 
L 584.404989 245.024704 
L 585.190566 245.217531 
L 586.709346 245.225548 
L 586.971205 245.290122 
L 587.652038 245.190146 
L 587.966268 245.156302 
L 588.437614 245.073249 
L 588.594729 245.041854 
L 591.056201 245.071685 
L 591.265688 245.096401 
L 591.737034 245.167207 
L 592.627353 245.267852 
L 592.993956 245.319288 
L 594.093762 245.369835 
L 594.407993 245.399672 
L 594.722223 245.406796 
L 597.340811 245.673097 
L 597.550298 245.654838 
L 597.864528 245.652389 
L 598.23113 245.626337 
L 599.226193 245.666419 
L 599.645167 245.651947 
L 599.959398 245.675771 
L 600.168885 245.710506 
L 601.21632 245.633019 
L 602.001896 245.587373 
L 602.368498 245.650387 
L 602.630357 245.671987 
L 603.415933 245.765505 
L 603.93965 245.872606 
L 604.672855 246.085919 
L 605.039457 246.163852 
L 605.510803 246.103287 
L 605.825033 246.107294 
L 606.139264 246.05831 
L 606.558238 246.015779 
L 607.343814 245.938513 
L 607.762788 246.003975 
L 609.176825 246.186114 
L 609.595799 246.073446 
L 610.329003 246.150489 
L 610.53849 246.157838 
L 612.266758 246.185223 
L 613.785539 245.961223 
L 614.204513 246.031138 
L 614.518743 246.004417 
L 614.937717 246.013325 
L 615.356691 246.066989 
L 616.037524 245.905337 
L 616.351754 245.906896 
L 617.346817 245.878174 
L 617.608676 245.884407 
L 618.446624 246.055854 
L 620.384379 246.195909 
L 621.536557 246.093931 
L 621.955531 246.087032 
L 622.426877 246.115085 
L 622.636364 246.101058 
L 622.636364 246.101058 
" clip-path="url(#pbcffebc504)" style="fill: none; stroke: #4c72b0; stroke-width: 1.75; stroke-linecap: round"/>
   </g>
   <g id="line2d_2">
    <path d="M 115.363636 44.64 
L 119.815235 55.284506 
L 124.319205 65.479345 
L 128.823175 75.12685 
L 133.327145 84.256407 
L 137.883487 92.993504 
L 142.439829 101.256226 
L 147.048542 109.157636 
L 151.709628 116.707711 
L 156.370713 123.838702 
L 161.08417 130.647385 
L 165.849999 137.143355 
L 170.6682 143.336252 
L 175.538772 149.235732 
L 180.461716 154.851442 
L 185.437032 160.192999 
L 190.517091 165.321221 
L 195.649522 170.188124 
L 200.886697 174.848721 
L 206.228615 179.304252 
L 211.675276 183.556641 
L 217.226681 187.608448 
L 222.88283 191.46281 
L 228.696094 195.155498 
L 234.666473 198.683912 
L 240.793967 202.046547 
L 247.130948 205.268543 
L 253.625045 208.320863 
L 260.381 211.248764 
L 267.346442 214.024133 
L 274.573743 216.664103 
L 282.115274 219.180638 
L 289.971036 221.566146 
L 298.1934 223.828862 
L 306.834738 225.97357 
L 315.89505 227.991267 
L 325.479079 229.895345 
L 335.639198 231.684045 
L 346.427778 233.354773 
L 357.949562 234.911274 
L 370.309294 236.353912 
L 383.664089 237.685722 
L 398.171062 238.905676 
L 414.039701 240.013844 
L 431.584236 241.012614 
L 451.22364 241.903324 
L 473.481632 242.684817 
L 499.143788 243.357306 
L 529.414657 243.921343 
L 566.336737 244.378446 
L 613.52368 244.729292 
L 622.636364 244.776645 
L 622.636364 244.776645 
" clip-path="url(#pbcffebc504)" style="fill: none; stroke: #55a868; stroke-width: 1.75; stroke-linecap: round"/>
   </g>
   <g id="patch_3">
    <path d="M 90 256.32 
L 90 34.56 
" style="fill: none"/>
   </g>
   <g id="patch_4">
    <path d="M 648 256.32 
L 648 34.56 
" style="fill: none"/>
   </g>
   <g id="patch_5">
    <path d="M 90 256.32 
L 648 256.32 
" style="fill: none"/>
   </g>
   <g id="patch_6">
    <path d="M 90 34.56 
L 648 34.56 
" style="fill: none"/>
   </g>
   <g id="text_1">
    <!-- $0.127020291959839 + 3.72706709186279 e^{- 1604.133176549 t}$ -->
    <g style="fill: #262626" transform="translate(115.363636 252.912967) scale(0.1 -0.1)">
     <defs>
      <path id="CMR17-30" d="M 2688 2025 
C 2688 2416 2682 3080 2413 3591 
C 2176 4039 1798 4198 1466 4198 
C 1158 4198 768 4058 525 3597 
C 269 3118 243 2524 243 2025 
C 243 1661 250 1106 448 619 
C 723 -39 1216 -128 1466 -128 
C 1760 -128 2208 -7 2470 600 
C 2662 1042 2688 1559 2688 2025 
z
M 1466 -26 
C 1056 -26 813 325 723 812 
C 653 1188 653 1738 653 2096 
C 653 2588 653 2997 736 3387 
C 858 3929 1216 4096 1466 4096 
C 1728 4096 2067 3923 2189 3400 
C 2272 3036 2278 2607 2278 2096 
C 2278 1680 2278 1169 2202 792 
C 2067 95 1690 -26 1466 -26 
z
" transform="scale(0.015625)"/>
      <path id="CMMI12-3a" d="M 1178 307 
C 1178 492 1024 619 870 619 
C 685 619 557 466 557 313 
C 557 128 710 0 864 0 
C 1050 0 1178 153 1178 307 
z
" transform="scale(0.015625)"/>
      <path id="CMR17-31" d="M 1702 4058 
C 1702 4192 1696 4192 1606 4192 
C 1357 3916 979 3827 621 3827 
C 602 3827 570 3827 563 3808 
C 557 3795 557 3782 557 3648 
C 755 3648 1088 3686 1344 3839 
L 1344 461 
C 1344 236 1331 160 781 160 
L 589 160 
L 589 0 
C 896 0 1216 0 1523 0 
C 1830 0 2150 0 2458 0 
L 2458 160 
L 2266 160 
C 1715 160 1702 230 1702 458 
L 1702 4058 
z
" transform="scale(0.015625)"/>
      <path id="CMR17-32" d="M 2669 989 
L 2554 989 
C 2490 536 2438 459 2413 420 
C 2381 369 1920 369 1830 369 
L 602 369 
C 832 619 1280 1072 1824 1597 
C 2214 1967 2669 2402 2669 3035 
C 2669 3790 2067 4224 1395 4224 
C 691 4224 262 3604 262 3030 
C 262 2780 448 2748 525 2748 
C 589 2748 781 2787 781 3010 
C 781 3207 614 3264 525 3264 
C 486 3264 448 3258 422 3245 
C 544 3790 915 4058 1306 4058 
C 1862 4058 2227 3617 2227 3035 
C 2227 2479 1901 2000 1536 1584 
L 262 146 
L 262 0 
L 2515 0 
L 2669 989 
z
" transform="scale(0.015625)"/>
      <path id="CMR17-37" d="M 2886 3941 
L 2886 4081 
L 1382 4081 
C 634 4081 621 4165 595 4288 
L 480 4288 
L 294 3094 
L 410 3094 
C 429 3215 474 3540 550 3661 
C 589 3712 1062 3712 1171 3712 
L 2579 3712 
L 1869 2661 
C 1395 1954 1069 999 1069 165 
C 1069 89 1069 -128 1299 -128 
C 1530 -128 1530 89 1530 171 
L 1530 465 
C 1530 1508 1709 2196 2003 2636 
L 2886 3941 
z
" transform="scale(0.015625)"/>
      <path id="CMR17-39" d="M 2253 1864 
C 2253 464 1670 31 1190 31 
C 1043 31 685 31 538 294 
C 704 268 826 357 826 518 
C 826 692 685 749 595 749 
C 538 749 365 723 365 506 
C 365 71 742 -128 1203 -128 
C 1939 -128 2688 674 2688 2073 
C 2688 3817 1971 4179 1485 4179 
C 851 4179 243 3628 243 2778 
C 243 1991 762 1408 1414 1408 
C 1952 1408 2189 1903 2253 2112 
L 2253 1864 
z
M 1427 1510 
C 1254 1510 1011 1542 813 1922 
C 678 2169 678 2461 678 2771 
C 678 3146 678 3405 858 3684 
C 947 3817 1114 4032 1485 4032 
C 2240 4032 2240 2885 2240 2632 
C 2240 2182 2035 1510 1427 1510 
z
" transform="scale(0.015625)"/>
      <path id="CMR17-35" d="M 730 3692 
C 794 3666 1056 3584 1325 3584 
C 1920 3584 2246 3911 2432 4100 
C 2432 4157 2432 4192 2394 4192 
C 2387 4192 2374 4192 2323 4163 
C 2099 4058 1837 3973 1517 3973 
C 1325 3973 1037 3999 723 4139 
C 653 4171 640 4171 634 4171 
C 602 4171 595 4164 595 4037 
L 595 2203 
C 595 2089 595 2057 659 2057 
C 691 2057 704 2070 736 2114 
C 941 2401 1222 2522 1542 2522 
C 1766 2522 2246 2382 2246 1289 
C 2246 1085 2246 715 2054 421 
C 1894 159 1645 25 1370 25 
C 947 25 518 320 403 814 
C 429 807 480 795 506 795 
C 589 795 749 840 749 1038 
C 749 1210 627 1280 506 1280 
C 358 1280 262 1190 262 1011 
C 262 454 704 -128 1382 -128 
C 2042 -128 2669 440 2669 1264 
C 2669 2030 2170 2624 1549 2624 
C 1222 2624 947 2503 730 2274 
L 730 3692 
z
" transform="scale(0.015625)"/>
      <path id="CMR17-38" d="M 1741 2264 
C 2144 2467 2554 2773 2554 3263 
C 2554 3841 1990 4179 1472 4179 
C 890 4179 378 3759 378 3180 
C 378 3021 416 2747 666 2505 
C 730 2442 998 2251 1171 2130 
C 883 1983 211 1634 211 934 
C 211 279 838 -128 1459 -128 
C 2144 -128 2720 362 2720 1010 
C 2720 1590 2330 1857 2074 2029 
L 1741 2264 
z
M 902 2822 
C 851 2854 595 3051 595 3351 
C 595 3739 998 4032 1459 4032 
C 1965 4032 2336 3676 2336 3262 
C 2336 2669 1670 2331 1638 2331 
C 1632 2331 1626 2331 1574 2370 
L 902 2822 
z
M 2080 1519 
C 2176 1449 2483 1240 2483 851 
C 2483 381 2010 25 1472 25 
C 890 25 448 438 448 940 
C 448 1443 838 1862 1280 2060 
L 2080 1519 
z
" transform="scale(0.015625)"/>
      <path id="CMR17-33" d="M 1414 2157 
C 1984 2157 2234 1662 2234 1090 
C 2234 320 1824 25 1453 25 
C 1114 25 563 194 390 693 
C 422 680 454 680 486 680 
C 640 680 755 782 755 948 
C 755 1133 614 1216 486 1216 
C 378 1216 211 1165 211 926 
C 211 335 787 -128 1466 -128 
C 2176 -128 2720 430 2720 1085 
C 2720 1707 2208 2157 1600 2227 
C 2086 2328 2554 2756 2554 3329 
C 2554 3820 2048 4179 1472 4179 
C 890 4179 378 3829 378 3329 
C 378 3110 544 3072 627 3072 
C 762 3072 877 3155 877 3321 
C 877 3486 762 3569 627 3569 
C 602 3569 570 3569 544 3557 
C 730 3959 1235 4032 1459 4032 
C 1683 4032 2106 3925 2106 3320 
C 2106 3143 2080 2828 1862 2550 
C 1670 2304 1453 2304 1242 2284 
C 1210 2284 1062 2269 1037 2269 
C 992 2263 966 2257 966 2208 
C 966 2163 973 2157 1101 2157 
L 1414 2157 
z
" transform="scale(0.015625)"/>
      <path id="CMR17-2b" d="M 2413 1472 
L 4109 1472 
C 4198 1472 4307 1472 4307 1580 
C 4307 1695 4205 1695 4109 1695 
L 2413 1695 
L 2413 3386 
C 2413 3475 2413 3584 2304 3584 
C 2189 3584 2189 3482 2189 3386 
L 2189 1695 
L 493 1695 
C 403 1695 294 1695 294 1587 
C 294 1472 397 1472 493 1472 
L 2189 1472 
L 2189 -218 
C 2189 -307 2189 -416 2298 -416 
C 2413 -416 2413 -314 2413 -218 
L 2413 1472 
z
" transform="scale(0.015625)"/>
      <path id="CMR17-36" d="M 678 2176 
C 678 3690 1395 4032 1811 4032 
C 1946 4032 2272 4009 2400 3776 
C 2298 3776 2106 3776 2106 3553 
C 2106 3381 2246 3323 2336 3323 
C 2394 3323 2566 3348 2566 3560 
C 2566 3954 2246 4179 1805 4179 
C 1043 4179 243 3390 243 1984 
C 243 253 966 -128 1478 -128 
C 2099 -128 2688 427 2688 1283 
C 2688 2081 2170 2662 1517 2662 
C 1126 2662 838 2407 678 1960 
L 678 2176 
z
M 1478 25 
C 691 25 691 1200 691 1436 
C 691 1896 909 2560 1504 2560 
C 1613 2560 1926 2560 2138 2120 
C 2253 1870 2253 1609 2253 1289 
C 2253 944 2253 690 2118 434 
C 1978 171 1773 25 1478 25 
z
" transform="scale(0.015625)"/>
      <path id="CMMI12-65" d="M 1146 1479 
C 1318 1479 1754 1479 2061 1595 
C 2547 1783 2592 2158 2592 2274 
C 2592 2558 2349 2816 1926 2816 
C 1254 2816 288 2210 288 1073 
C 288 402 672 -64 1254 -64 
C 2125 -64 2675 609 2675 692 
C 2675 730 2637 762 2611 762 
C 2592 762 2586 756 2528 699 
C 2118 159 1510 64 1267 64 
C 902 64 710 350 710 822 
C 710 911 710 1071 806 1479 
L 1146 1479 
z
M 838 1600 
C 1114 2592 1722 2689 1926 2689 
C 2208 2689 2400 2522 2400 2277 
C 2400 1600 1376 1600 1107 1600 
L 838 1600 
z
" transform="scale(0.015625)"/>
      <path id="CMSY10-0" d="M 4218 1472 
C 4326 1472 4442 1472 4442 1600 
C 4442 1728 4326 1728 4218 1728 
L 755 1728 
C 646 1728 531 1728 531 1600 
C 531 1472 646 1472 755 1472 
L 4218 1472 
z
" transform="scale(0.015625)"/>
      <path id="CMR17-34" d="M 2150 4122 
C 2150 4256 2144 4256 2029 4256 
L 128 1254 
L 128 1088 
L 1779 1088 
L 1779 457 
C 1779 224 1766 160 1318 160 
L 1197 160 
L 1197 0 
C 1402 0 1747 0 1965 0 
C 2182 0 2528 0 2733 0 
L 2733 160 
L 2611 160 
C 2163 160 2150 224 2150 457 
L 2150 1088 
L 2803 1088 
L 2803 1254 
L 2150 1254 
L 2150 4122 
z
M 1798 3703 
L 1798 1254 
L 256 1254 
L 1798 3703 
z
" transform="scale(0.015625)"/>
      <path id="CMMI12-74" d="M 1286 2566 
L 1875 2566 
C 1997 2566 2061 2566 2061 2681 
C 2061 2752 2022 2752 1894 2752 
L 1331 2752 
L 1568 3692 
C 1594 3781 1594 3794 1594 3840 
C 1594 3943 1510 4000 1427 4000 
C 1376 4000 1229 3981 1178 3775 
L 928 2752 
L 326 2752 
C 198 2752 141 2752 141 2630 
C 141 2566 186 2566 307 2566 
L 877 2566 
L 454 881 
C 403 658 384 594 384 511 
C 384 211 595 -64 954 -64 
C 1600 -64 1946 868 1946 912 
C 1946 951 1920 970 1882 970 
C 1869 970 1843 970 1830 944 
C 1824 938 1818 931 1773 829 
C 1638 511 1344 64 973 64 
C 781 64 768 224 768 364 
C 768 370 768 492 787 568 
L 1286 2566 
z
" transform="scale(0.015625)"/>
     </defs>
     <use xlink:href="#CMR17-30" transform="scale(0.996264)"/>
     <use xlink:href="#CMMI12-3a" transform="translate(45.690477 0) scale(0.996264)"/>
     <use xlink:href="#CMR17-31" transform="translate(72.787654 0) scale(0.996264)"/>
     <use xlink:href="#CMR17-32" transform="translate(118.478131 0) scale(0.996264)"/>
     <use xlink:href="#CMR17-37" transform="translate(164.168608 0) scale(0.996264)"/>
     <use xlink:href="#CMR17-30" transform="translate(209.859086 0) scale(0.996264)"/>
     <use xlink:href="#CMR17-32" transform="translate(255.549563 0) scale(0.996264)"/>
     <use xlink:href="#CMR17-30" transform="translate(301.24004 0) scale(0.996264)"/>
     <use xlink:href="#CMR17-32" transform="translate(346.930517 0) scale(0.996264)"/>
     <use xlink:href="#CMR17-39" transform="translate(392.620994 0) scale(0.996264)"/>
     <use xlink:href="#CMR17-31" transform="translate(438.311471 0) scale(0.996264)"/>
     <use xlink:href="#CMR17-39" transform="translate(484.001948 0) scale(0.996264)"/>
     <use xlink:href="#CMR17-35" transform="translate(529.692425 0) scale(0.996264)"/>
     <use xlink:href="#CMR17-39" transform="translate(575.382902 0) scale(0.996264)"/>
     <use xlink:href="#CMR17-38" transform="translate(621.07338 0) scale(0.996264)"/>
     <use xlink:href="#CMR17-33" transform="translate(666.763857 0) scale(0.996264)"/>
     <use xlink:href="#CMR17-39" transform="translate(712.454334 0) scale(0.996264)"/>
     <use xlink:href="#CMR17-2b" transform="translate(780.284018 0) scale(0.996264)"/>
     <use xlink:href="#CMR17-33" transform="translate(874.138013 0) scale(0.996264)"/>
     <use xlink:href="#CMMI12-3a" transform="translate(919.82849 0) scale(0.996264)"/>
     <use xlink:href="#CMR17-37" transform="translate(946.925668 0) scale(0.996264)"/>
     <use xlink:href="#CMR17-32" transform="translate(992.616145 0) scale(0.996264)"/>
     <use xlink:href="#CMR17-37" transform="translate(1038.306622 0) scale(0.996264)"/>
     <use xlink:href="#CMR17-30" transform="translate(1083.997099 0) scale(0.996264)"/>
     <use xlink:href="#CMR17-36" transform="translate(1129.687576 0) scale(0.996264)"/>
     <use xlink:href="#CMR17-37" transform="translate(1175.378053 0) scale(0.996264)"/>
     <use xlink:href="#CMR17-30" transform="translate(1221.06853 0) scale(0.996264)"/>
     <use xlink:href="#CMR17-39" transform="translate(1266.759007 0) scale(0.996264)"/>
     <use xlink:href="#CMR17-31" transform="translate(1312.449484 0) scale(0.996264)"/>
     <use xlink:href="#CMR17-38" transform="translate(1358.139962 0) scale(0.996264)"/>
     <use xlink:href="#CMR17-36" transform="translate(1403.830439 0) scale(0.996264)"/>
     <use xlink:href="#CMR17-32" transform="translate(1449.520916 0) scale(0.996264)"/>
     <use xlink:href="#CMR17-37" transform="translate(1495.211393 0) scale(0.996264)"/>
     <use xlink:href="#CMR17-39" transform="translate(1540.90187 0) scale(0.996264)"/>
     <use xlink:href="#CMMI12-65" transform="translate(1586.592347 0) scale(0.996264)"/>
     <use xlink:href="#CMSY10-0" transform="translate(1631.804348 36.153639) scale(0.697382)"/>
     <use xlink:href="#CMR17-31" transform="translate(1686.045341 36.153639) scale(0.697382)"/>
     <use xlink:href="#CMR17-36" transform="translate(1718.028523 36.153639) scale(0.697382)"/>
     <use xlink:href="#CMR17-30" transform="translate(1750.011705 36.153639) scale(0.697382)"/>
     <use xlink:href="#CMR17-34" transform="translate(1781.994887 36.153639) scale(0.697382)"/>
     <use xlink:href="#CMMI12-3a" transform="translate(1813.978069 36.153639) scale(0.697382)"/>
     <use xlink:href="#CMR17-31" transform="translate(1832.946002 36.153639) scale(0.697382)"/>
     <use xlink:href="#CMR17-33" transform="translate(1864.929184 36.153639) scale(0.697382)"/>
     <use xlink:href="#CMR17-33" transform="translate(1896.912366 36.153639) scale(0.697382)"/>
     <use xlink:href="#CMR17-31" transform="translate(1928.895548 36.153639) scale(0.697382)"/>
     <use xlink:href="#CMR17-37" transform="translate(1960.87873 36.153639) scale(0.697382)"/>
     <use xlink:href="#CMR17-36" transform="translate(1992.861912 36.153639) scale(0.697382)"/>
     <use xlink:href="#CMR17-35" transform="translate(2024.845094 36.153639) scale(0.697382)"/>
     <use xlink:href="#CMR17-34" transform="translate(2056.828276 36.153639) scale(0.697382)"/>
     <use xlink:href="#CMR17-39" transform="translate(2088.811458 36.153639) scale(0.697382)"/>
     <use xlink:href="#CMMI12-74" transform="translate(2120.79464 36.153639) scale(0.697382)"/>
    </g>
   </g>
   <g id="text_2">
    <!-- Decay fit and the original relaxation time for pure water -->
    <g style="fill: #262626" transform="translate(232.485775 28.56) scale(0.12 -0.12)">
     <defs>
      <path id="CMSS17-44" d="M 570 4416 
L 570 0 
L 2144 0 
C 3194 0 4000 980 4000 2170 
C 4000 3398 3194 4416 2144 4416 
L 570 4416 
z
M 1094 357 
L 1094 4059 
L 2003 4059 
C 2861 4059 3475 3277 3475 2170 
C 3475 1107 2867 357 2003 357 
L 1094 357 
z
" transform="scale(0.015625)"/>
      <path id="CMSS17-65" d="M 2502 1377 
C 2502 1590 2490 2003 2285 2345 
C 2061 2713 1696 2816 1421 2816 
C 755 2816 192 2188 192 1375 
C 192 582 774 -64 1510 -64 
C 1798 -64 2150 19 2470 248 
C 2470 274 2458 414 2451 420 
C 2451 433 2432 630 2432 656 
C 2125 407 1773 325 1517 325 
C 1107 325 666 667 646 1377 
L 2502 1377 
z
M 698 1728 
C 781 2084 1062 2421 1421 2421 
C 1517 2421 1965 2421 2080 1728 
L 698 1728 
z
" transform="scale(0.015625)"/>
      <path id="CMSS17-63" d="M 2464 2541 
C 2464 2585 2170 2714 2093 2739 
C 1882 2816 1613 2816 1542 2816 
C 710 2816 211 2093 211 1363 
C 211 595 768 -64 1517 -64 
C 1946 -64 2253 76 2502 242 
L 2464 664 
C 2189 453 1869 337 1523 337 
C 1024 337 698 774 698 1369 
C 698 1831 909 2414 1549 2414 
C 1901 2414 2099 2343 2394 2145 
L 2464 2541 
z
" transform="scale(0.015625)"/>
      <path id="CMSS17-61" d="M 2406 1791 
C 2406 2392 1978 2808 1402 2808 
C 1120 2808 813 2757 461 2553 
L 499 2135 
C 659 2248 934 2432 1395 2432 
C 1722 2432 1920 2180 1920 1782 
L 1920 1536 
C 896 1536 256 1238 256 726 
C 256 461 416 -64 947 -64 
C 1043 -64 1562 -64 1933 217 
L 1933 -19 
L 2406 -19 
L 2406 1791 
z
M 1920 816 
C 1920 701 1920 548 1728 434 
C 1562 325 1350 325 1261 325 
C 941 325 723 511 723 744 
C 723 1211 1722 1211 1920 1211 
L 1920 816 
z
" transform="scale(0.015625)"/>
      <path id="CMSS17-79" d="M 2675 2752 
L 2176 2752 
C 1632 1294 1446 702 1434 383 
L 1427 383 
C 1408 696 1126 1460 902 2007 
L 602 2752 
L 83 2752 
L 1216 13 
C 1146 -178 1043 -465 1011 -529 
C 870 -885 774 -885 672 -885 
C 646 -885 442 -885 211 -809 
L 250 -1229 
C 410 -1261 570 -1280 685 -1280 
C 845 -1280 1165 -1280 1459 -497 
L 2675 2752 
z
" transform="scale(0.015625)"/>
      <path id="CMSS17-c" d="M 2752 4416 
L 2240 4416 
L 2240 3906 
L 2752 3906 
L 2752 4416 
z
M 2733 2737 
L 2259 2737 
L 2259 0 
L 2733 0 
L 2733 2737 
z
M 1075 2368 
L 1773 2368 
L 1773 2737 
L 1062 2737 
L 1062 3578 
C 1062 3919 1216 4092 1421 4092 
C 1542 4092 1664 4056 1773 3992 
L 1773 4410 
C 1722 4428 1574 4480 1421 4480 
C 941 4480 602 3993 602 3372 
L 602 2737 
L 160 2737 
L 160 2368 
L 602 2368 
L 602 0 
L 1075 0 
L 1075 2368 
z
" transform="scale(0.015625)"/>
      <path id="CMSS17-74" d="M 1069 2368 
L 1901 2368 
L 1901 2737 
L 1069 2737 
L 1069 3520 
L 614 3520 
L 614 2737 
L 109 2737 
L 109 2368 
L 602 2368 
L 602 749 
C 602 384 685 -64 1107 -64 
C 1427 -64 1722 25 2003 172 
L 1901 548 
C 1747 414 1562 337 1363 337 
C 1082 337 1069 696 1069 856 
L 1069 2368 
z
" transform="scale(0.015625)"/>
      <path id="CMSS17-6e" d="M 2618 1877 
C 2618 2283 2522 2816 1798 2816 
C 1389 2816 1120 2606 941 2389 
L 941 2758 
L 474 2758 
L 474 0 
L 960 0 
L 960 1559 
C 960 1964 1114 2428 1549 2428 
C 2112 2428 2131 2048 2131 1829 
L 2131 0 
L 2618 0 
L 2618 1877 
z
" transform="scale(0.015625)"/>
      <path id="CMSS17-64" d="M 2611 4416 
L 2138 4416 
L 2138 2438 
C 1939 2603 1613 2756 1254 2756 
C 672 2756 211 2131 211 1347 
C 211 562 666 -64 1235 -64 
C 1677 -64 1971 172 2125 306 
L 2125 -13 
L 2611 -13 
L 2611 4416 
z
M 2125 836 
C 2125 747 2125 653 1926 482 
C 1798 375 1645 325 1498 325 
C 1152 325 698 576 698 1340 
C 698 2134 1210 2368 1562 2368 
C 1798 2368 1990 2254 2125 2065 
L 2125 836 
z
" transform="scale(0.015625)"/>
      <path id="CMSS17-68" d="M 2618 1891 
C 2618 2292 2522 2820 1798 2820 
C 1395 2820 1133 2623 947 2407 
L 947 4448 
L 474 4448 
L 474 32 
L 960 32 
L 960 1573 
C 960 1973 1114 2432 1549 2432 
C 2112 2432 2131 2056 2131 1839 
L 2131 32 
L 2618 32 
L 2618 1891 
z
" transform="scale(0.015625)"/>
      <path id="CMSS17-6f" d="M 2829 1356 
C 2829 2176 2221 2816 1504 2816 
C 768 2816 173 2157 173 1356 
C 173 544 787 -64 1498 -64 
C 2227 -64 2829 563 2829 1356 
z
M 1504 337 
C 1050 337 659 709 659 1408 
C 659 2151 1114 2427 1498 2427 
C 1914 2427 2342 2126 2342 1408 
C 2342 683 1926 337 1504 337 
z
" transform="scale(0.015625)"/>
      <path id="CMSS17-72" d="M 954 1363 
C 954 1965 1395 2368 1958 2368 
L 1958 2789 
C 1549 2789 1165 2585 934 2253 
L 934 2758 
L 480 2758 
L 480 0 
L 954 0 
L 954 1363 
z
" transform="scale(0.015625)"/>
      <path id="CMSS17-69" d="M 979 4183 
L 442 4183 
L 442 3648 
L 979 3648 
L 979 4183 
z
M 947 2739 
L 474 2739 
L 474 0 
L 947 0 
L 947 2739 
z
" transform="scale(0.015625)"/>
      <path id="CMSS17-67" d="M 2848 2808 
C 2483 2808 2170 2738 1914 2617 
C 1702 2777 1485 2808 1338 2808 
C 781 2808 358 2349 358 1814 
C 358 1468 550 1207 563 1195 
C 448 1035 384 863 384 672 
C 384 448 474 289 544 200 
C 211 -3 166 -314 166 -435 
C 166 -898 749 -1280 1498 -1280 
C 2253 -1280 2835 -898 2835 -428 
C 2835 448 1856 448 1587 448 
L 1069 448 
C 973 448 717 448 717 791 
C 717 921 774 1004 781 1010 
C 877 940 1075 832 1338 832 
C 1869 832 2310 1278 2310 1827 
C 2310 2132 2170 2355 2112 2432 
L 2131 2432 
C 2150 2432 2419 2432 2515 2432 
C 2720 2432 2739 2429 2918 2419 
L 2848 2808 
z
M 1338 1182 
C 1120 1182 813 1315 813 1823 
C 813 2375 1165 2464 1331 2464 
C 1549 2464 1856 2331 1856 1823 
C 1856 1271 1504 1182 1338 1182 
z
M 1581 -10 
C 1734 -10 2381 -10 2381 -442 
C 2381 -714 1984 -929 1504 -929 
C 1018 -929 621 -720 621 -435 
C 621 -403 621 -10 1062 -10 
L 1581 -10 
z
" transform="scale(0.015625)"/>
      <path id="CMSS17-6c" d="M 947 4416 
L 474 4416 
L 474 0 
L 947 0 
L 947 4416 
z
" transform="scale(0.015625)"/>
      <path id="CMSS17-78" d="M 1587 1414 
L 2656 2739 
L 2099 2739 
L 1363 1777 
L 602 2739 
L 32 2739 
L 1139 1414 
L 0 0 
L 563 0 
L 1363 1121 
L 2195 0 
L 2758 0 
L 1587 1414 
z
" transform="scale(0.015625)"/>
      <path id="CMSS17-6d" d="M 4288 1877 
C 4288 2308 4179 2816 3462 2816 
C 2982 2816 2694 2516 2566 2331 
C 2451 2670 2182 2816 1798 2816 
C 1363 2816 1088 2568 941 2389 
L 941 2758 
L 474 2758 
L 474 0 
L 960 0 
L 960 1559 
C 960 1939 1101 2428 1555 2428 
C 2138 2428 2138 2016 2138 1829 
L 2138 0 
L 2624 0 
L 2624 1559 
C 2624 1939 2765 2428 3219 2428 
C 3802 2428 3802 2016 3802 1829 
L 3802 0 
L 4288 0 
L 4288 1877 
z
" transform="scale(0.015625)"/>
      <path id="CMSS17-66" d="M 1075 2368 
L 1722 2368 
L 1722 2737 
L 1062 2737 
L 1062 3559 
C 1062 4014 1408 4092 1606 4092 
C 1670 4092 1850 4092 2080 4009 
L 2080 4429 
C 1933 4461 1754 4480 1613 4480 
C 1018 4480 602 3993 602 3359 
L 602 2737 
L 160 2737 
L 160 2368 
L 602 2368 
L 602 0 
L 1075 0 
L 1075 2368 
z
" transform="scale(0.015625)"/>
      <path id="CMSS17-70" d="M 966 333 
C 1178 129 1466 -5 1773 -5 
C 2368 -5 2880 603 2880 1412 
C 2880 2159 2496 2816 1946 2816 
C 1626 2816 1242 2702 954 2472 
L 954 2765 
L 480 2765 
L 480 -1216 
L 966 -1216 
L 966 333 
z
M 966 2100 
C 1018 2176 1235 2415 1587 2415 
C 2035 2415 2394 1960 2394 1412 
C 2394 787 1958 384 1530 384 
C 1402 384 1267 415 1139 523 
C 966 674 966 768 966 857 
L 966 2100 
z
" transform="scale(0.015625)"/>
      <path id="CMSS17-75" d="M 2618 2739 
L 2131 2739 
L 2131 972 
C 2131 498 1786 306 1421 306 
C 998 306 960 447 960 709 
L 960 2739 
L 474 2739 
L 474 678 
C 474 179 646 -64 1088 -64 
C 1306 -64 1798 -13 2144 306 
L 2144 0 
L 2618 0 
L 2618 2739 
z
" transform="scale(0.015625)"/>
      <path id="CMSS17-77" d="M 4013 2752 
L 3526 2752 
L 3187 1601 
C 3117 1358 2918 685 2893 371 
L 2886 371 
C 2874 564 2765 1024 2586 1633 
L 2259 2752 
L 1818 2752 
L 1498 1658 
C 1338 1101 1216 627 1203 371 
L 1197 371 
C 1171 749 909 1633 870 1773 
L 582 2752 
L 83 2752 
L 915 0 
L 1402 0 
C 1734 1096 1990 1943 2010 2370 
C 2022 2160 2131 1707 2195 1484 
L 2618 0 
L 3181 0 
L 4013 2752 
z
" transform="scale(0.015625)"/>
     </defs>
     <use xlink:href="#CMSS17-44" transform="scale(0.996264)"/>
     <use xlink:href="#CMSS17-65" transform="translate(67.542842 0) scale(0.996264)"/>
     <use xlink:href="#CMSS17-63" transform="translate(109.181664 0) scale(0.996264)"/>
     <use xlink:href="#CMSS17-61" transform="translate(150.820486 0) scale(0.996264)"/>
     <use xlink:href="#CMSS17-79" transform="translate(193.139952 0) scale(0.996264)"/>
     <use xlink:href="#CMSS17-c" transform="translate(267.369207 0) scale(0.996264)"/>
     <use xlink:href="#CMSS17-74" transform="translate(317.495944 0) scale(0.996264)"/>
     <use xlink:href="#CMSS17-61" transform="translate(382.556624 0) scale(0.996264)"/>
     <use xlink:href="#CMSS17-6e" transform="translate(427.478544 0) scale(0.996264)"/>
     <use xlink:href="#CMSS17-64" transform="translate(475.683487 0) scale(0.996264)"/>
     <use xlink:href="#CMSS17-74" transform="translate(555.117543 0) scale(0.996264)"/>
     <use xlink:href="#CMSS17-68" transform="translate(588.94911 0) scale(0.996264)"/>
     <use xlink:href="#CMSS17-65" transform="translate(637.154053 0) scale(0.996264)"/>
     <use xlink:href="#CMSS17-6f" transform="translate(710.021988 0) scale(0.996264)"/>
     <use xlink:href="#CMSS17-72" transform="translate(754.263157 0) scale(0.996264)"/>
     <use xlink:href="#CMSS17-69" transform="translate(786.17293 0) scale(0.996264)"/>
     <use xlink:href="#CMSS17-67" transform="translate(808.353653 0) scale(0.996264)"/>
     <use xlink:href="#CMSS17-69" transform="translate(855.197277 0) scale(0.996264)"/>
     <use xlink:href="#CMSS17-6e" transform="translate(877.378 0) scale(0.996264)"/>
     <use xlink:href="#CMSS17-61" transform="translate(925.582943 0) scale(0.996264)"/>
     <use xlink:href="#CMSS17-6c" transform="translate(970.504863 0) scale(0.996264)"/>
     <use xlink:href="#CMSS17-72" transform="translate(1023.914699 0) scale(0.996264)"/>
     <use xlink:href="#CMSS17-65" transform="translate(1055.824472 0) scale(0.996264)"/>
     <use xlink:href="#CMSS17-6c" transform="translate(1097.463294 0) scale(0.996264)"/>
     <use xlink:href="#CMSS17-61" transform="translate(1119.644017 0) scale(0.996264)"/>
     <use xlink:href="#CMSS17-78" transform="translate(1164.565937 0) scale(0.996264)"/>
     <use xlink:href="#CMSS17-61" transform="translate(1207.566079 0) scale(0.996264)"/>
     <use xlink:href="#CMSS17-74" transform="translate(1252.488 0) scale(0.996264)"/>
     <use xlink:href="#CMSS17-69" transform="translate(1286.319566 0) scale(0.996264)"/>
     <use xlink:href="#CMSS17-6f" transform="translate(1308.500289 0) scale(0.996264)"/>
     <use xlink:href="#CMSS17-6e" transform="translate(1355.343913 0) scale(0.996264)"/>
     <use xlink:href="#CMSS17-74" transform="translate(1434.777969 0) scale(0.996264)"/>
     <use xlink:href="#CMSS17-69" transform="translate(1468.609536 0) scale(0.996264)"/>
     <use xlink:href="#CMSS17-6d" transform="translate(1490.790259 0) scale(0.996264)"/>
     <use xlink:href="#CMSS17-65" transform="translate(1565.019513 0) scale(0.996264)"/>
     <use xlink:href="#CMSS17-66" transform="translate(1637.887448 0) scale(0.996264)"/>
     <use xlink:href="#CMSS17-6f" transform="translate(1666.514107 0) scale(0.996264)"/>
     <use xlink:href="#CMSS17-72" transform="translate(1710.755276 0) scale(0.996264)"/>
     <use xlink:href="#CMSS17-70" transform="translate(1773.894162 0) scale(0.996264)"/>
     <use xlink:href="#CMSS17-75" transform="translate(1822.099105 0) scale(0.996264)"/>
     <use xlink:href="#CMSS17-72" transform="translate(1870.304048 0) scale(0.996264)"/>
     <use xlink:href="#CMSS17-65" transform="translate(1902.21382 0) scale(0.996264)"/>
     <use xlink:href="#CMSS17-77" transform="translate(1975.081755 0) scale(0.996264)"/>
     <use xlink:href="#CMSS17-61" transform="translate(2036.298846 0) scale(0.996264)"/>
     <use xlink:href="#CMSS17-74" transform="translate(2081.220767 0) scale(0.996264)"/>
     <use xlink:href="#CMSS17-65" transform="translate(2115.052334 0) scale(0.996264)"/>
     <use xlink:href="#CMSS17-72" transform="translate(2156.691156 0) scale(0.996264)"/>
    </g>
   </g>
  </g>
 </g>
 <defs>
  <clipPath id="pbcffebc504">
   <rect x="90" y="34.56" width="558" height="221.76"/>
  </clipPath>
 </defs>
</svg>
