<?xml version="1.0" encoding="utf-8" standalone="no"?>
<!DOCTYPE svg PUBLIC "-//W3C//DTD SVG 1.1//EN"
  "http://www.w3.org/Graphics/SVG/1.1/DTD/svg11.dtd">
<svg xmlns:xlink="http://www.w3.org/1999/xlink" width="720pt" height="288pt" viewBox="0 0 720 288" xmlns="http://www.w3.org/2000/svg" version="1.1">
 <metadata>
  <rdf:RDF xmlns:dc="http://purl.org/dc/elements/1.1/" xmlns:cc="http://creativecommons.org/ns#" xmlns:rdf="http://www.w3.org/1999/02/22-rdf-syntax-ns#">
   <cc:Work>
    <dc:type rdf:resource="http://purl.org/dc/dcmitype/StillImage"/>
    <dc:date>2023-10-09T01:31:00.739649</dc:date>
    <dc:format>image/svg+xml</dc:format>
    <dc:creator>
     <cc:Agent>
      <dc:title>Matplotlib v3.6.2, https://matplotlib.org/</dc:title>
     </cc:Agent>
    </dc:creator>
   </cc:Work>
  </rdf:RDF>
 </metadata>
 <defs>
  <style type="text/css">*{stroke-linejoin: round; stroke-linecap: butt}</style>
 </defs>
 <g id="figure_1">
  <g id="patch_1">
   <path d="M 0 288 
L 720 288 
L 720 0 
L 0 0 
z
" style="fill: #ffffff"/>
  </g>
  <g id="axes_1">
   <g id="patch_2">
    <path d="M 90 256.32 
L 648 256.32 
L 648 34.56 
L 90 34.56 
z
" style="fill: #eaeaf2"/>
   </g>
   <g id="matplotlib.axis_1"/>
   <g id="matplotlib.axis_2"/>
   <g id="line2d_1">
    <path d="M 115.363636 46.000747 
L 115.414465 45.996401 
L 115.617781 47.503127 
L 115.719439 46.843934 
L 115.821097 47.126446 
L 115.871926 47.229572 
L 116.024412 46.802955 
L 116.380215 46.318236 
L 116.63436 45.996401 
L 116.888504 45.704917 
L 116.990162 45.654358 
L 117.142649 45.620203 
L 117.295136 45.591078 
L 117.498451 45.523662 
L 117.650938 45.455945 
L 118.159228 44.956586 
L 118.667517 44.64 
L 118.870833 44.730751 
L 119.074148 44.685202 
L 119.379122 44.775431 
L 119.684095 44.911211 
L 119.836582 45.001788 
L 120.294043 45.544557 
L 120.853161 46.358537 
L 121.615595 47.171821 
L 122.022226 47.713721 
L 122.987976 48.707465 
L 123.75041 49.882363 
L 123.852068 50.062997 
L 124.258699 50.83247 
L 124.411186 51.058479 
L 124.817817 51.872111 
L 124.919475 52.007542 
L 125.224449 52.685221 
L 125.63108 53.182789 
L 125.885225 53.544577 
L 128.4775 58.291285 
L 128.782474 59.014861 
L 129.494079 60.461666 
L 129.951539 61.681593 
L 130.053197 61.817024 
L 130.358171 62.540079 
L 131.222263 64.257572 
L 131.476407 64.79982 
L 131.933868 65.839982 
L 132.645473 67.422392 
L 132.848788 67.738805 
L 133.814538 69.683177 
L 134.068683 70.180223 
L 134.170341 70.270626 
L 134.424485 70.63224 
L 134.881946 71.219516 
L 134.983604 71.264718 
L 135.695209 72.89146 
L 135.746038 72.891286 
L 135.949353 73.297928 
L 136.254327 73.659021 
L 137.728366 77.275337 
L 138.541629 78.948325 
L 139.558207 81.434423 
L 139.659865 81.61523 
L 140.422299 83.920347 
L 141.33722 86.813434 
L 141.693022 87.626719 
L 142.252141 88.801965 
L 142.455456 89.118377 
L 143.624522 91.378466 
L 144.539443 94.226179 
L 144.946074 95.628477 
L 145.657679 98.295034 
L 146.470942 100.781132 
L 148.961559 107.155626 
L 150.181454 109.188663 
L 150.38477 109.279067 
L 150.537256 109.505249 
L 151.096375 110.72535 
L 151.452177 111.49378 
L 151.960466 112.894687 
L 152.7229 115.15495 
L 153.129532 116.511178 
L 153.891966 118.77144 
L 154.14611 119.539697 
L 154.298597 119.991888 
L 155.010202 122.116198 
L 155.56932 123.878372 
L 156.026781 125.099168 
L 156.230097 125.641415 
L 156.840044 127.404459 
L 157.704136 129.936628 
L 158.110767 131.247827 
L 158.517398 132.513129 
L 158.822372 133.643521 
L 159.025688 134.231144 
L 159.432319 135.270785 
L 160.093095 136.807298 
L 160.34724 137.168217 
L 161.77045 139.92483 
L 162.329568 141.552616 
L 162.532884 142.095211 
L 162.888686 143.180228 
L 163.244489 144.038888 
L 163.346147 144.219695 
L 164.108581 146.524464 
L 164.464383 147.201969 
L 165.480962 149.191195 
L 166.04008 150.818981 
L 166.090909 150.818807 
L 167.00583 153.577506 
L 167.717435 156.289265 
L 168.530698 158.775885 
L 169.648934 162.345956 
L 172.139552 168.674727 
L 172.851157 169.759743 
L 173.003644 169.850668 
L 174.57934 172.833638 
L 174.833485 173.331032 
L 175.900893 175.907533 
L 176.866642 177.85121 
L 177.273274 178.66432 
L 177.324103 178.664146 
L 177.629076 179.161366 
L 178.493168 180.47187 
L 178.594826 180.607475 
L 178.950629 181.466135 
L 179.153944 181.782721 
L 180.32301 184.042115 
L 180.577154 184.494307 
L 180.78047 184.765343 
L 181.085444 185.307417 
L 182.66114 187.88444 
L 182.813627 188.110797 
L 183.423574 189.421301 
L 185.914192 193.670963 
L 186.117508 193.761367 
L 188.40481 198.01089 
L 188.760612 199.096092 
L 189.167244 199.954764 
L 189.268901 200.045168 
L 189.777191 200.722508 
L 190.336309 201.355341 
L 190.844598 202.033371 
L 191.556203 202.756422 
L 191.810348 203.163592 
L 192.267808 204.203233 
L 193.030242 205.921254 
L 193.386045 206.373095 
L 193.894334 207.050945 
L 193.995992 207.141172 
L 194.707597 207.637684 
L 194.860084 207.682886 
L 195.0634 207.863693 
L 195.52086 207.953567 
L 196.181636 208.676795 
L 196.537439 209.354468 
L 196.94407 209.851688 
L 197.503188 210.484866 
L 197.858991 210.891682 
L 198.36728 211.208802 
L 198.468938 211.25418 
L 198.82474 211.660466 
L 199.129714 211.751223 
L 199.33303 211.886828 
L 199.638003 212.293468 
L 199.993806 212.746016 
L 200.146293 212.745839 
L 200.349608 213.062251 
L 200.502095 213.152302 
L 201.162871 214.146034 
L 201.264529 214.236614 
L 201.620332 214.64396 
L 201.772818 214.734717 
L 202.17945 215.005928 
L 202.281108 215.005751 
L 204.161778 216.813646 
L 204.365094 217.174906 
L 204.771725 217.67248 
L 205.02587 217.943867 
L 206.042449 218.712297 
L 206.296593 218.802878 
L 208.787211 220.882159 
L 209.143013 220.791579 
L 209.2955 220.791579 
L 209.498816 221.017588 
L 209.651303 220.972563 
L 210.108763 221.244127 
L 210.210421 221.198925 
L 210.413737 221.335238 
L 210.566223 221.335414 
L 211.125342 221.244657 
L 211.328657 221.199809 
L 211.633631 221.335591 
L 211.836947 221.290743 
L 211.989433 221.199986 
L 212.396065 221.425995 
L 212.599381 221.380263 
L 213.10767 221.696145 
L 213.158499 221.650766 
L 213.209328 221.741347 
L 213.514301 222.147986 
L 213.870104 222.780811 
L 214.581709 223.820275 
L 214.98834 223.910502 
L 215.394972 224.407898 
L 215.49663 224.497948 
L 216.055748 224.905295 
L 216.208235 224.905118 
L 216.462379 224.995345 
L 216.614866 224.995345 
L 216.716524 225.04037 
L 216.869011 225.175975 
L 217.123155 225.266555 
L 217.428129 225.401984 
L 218.546365 224.542797 
L 219.207142 224.45257 
L 219.410457 224.407368 
L 219.918747 224.497772 
L 220.172891 224.724134 
L 220.325378 224.679109 
L 220.630352 224.814714 
L 220.782838 224.904764 
L 220.935325 224.905118 
L 221.341957 224.995875 
L 221.596101 225.086455 
L 222.053562 225.177212 
L 222.206048 225.222237 
L 222.307706 225.222414 
L 222.460193 225.267439 
L 222.61268 225.267439 
L 223.222627 225.673902 
L 223.375114 225.764305 
L 223.680087 225.899557 
L 224.340864 225.808977 
L 224.950811 225.401807 
L 225.255784 225.31105 
L 225.611587 225.085571 
L 225.814903 225.130773 
L 226.475679 225.0409 
L 226.577336 225.040723 
L 226.831481 225.130773 
L 226.983968 225.221 
L 227.33977 225.402337 
L 227.441428 225.402337 
L 227.695573 225.492741 
L 227.898889 225.583144 
L 228.254691 225.763952 
L 228.356349 225.854355 
L 228.762981 226.080187 
L 228.966296 226.034455 
L 229.220441 226.260641 
L 229.576243 226.351221 
L 229.982875 226.576877 
L 230.135362 226.576877 
L 230.440335 226.713012 
L 232.727637 226.803769 
L 232.880124 226.893996 
L 235.218255 226.802002 
L 235.574057 226.621725 
L 235.777373 226.712128 
L 235.980689 226.621725 
L 236.031518 226.667103 
L 236.082347 226.576877 
L 236.488978 226.531852 
L 236.641465 226.441271 
L 237.149754 226.351221 
L 237.302241 226.351575 
L 237.35307 226.441978 
L 237.403899 226.396953 
L 237.658043 226.306903 
L 238.013846 226.216323 
L 238.318819 226.080894 
L 239.843687 226.034986 
L 239.894516 225.944582 
L 239.945345 226.034809 
L 240.250319 226.125036 
L 240.860266 226.531498 
L 241.114411 226.440918 
L 241.317726 226.531145 
L 241.470213 226.622078 
L 241.927674 226.713012 
L 242.130989 226.848794 
L 242.283476 226.803416 
L 242.639279 226.984753 
L 243.04591 226.894703 
L 243.757515 226.171828 
L 243.960831 225.945466 
L 244.367462 225.855239 
L 244.621607 225.629053 
L 244.875752 225.719634 
L 245.180725 225.583498 
L 245.739843 225.674078 
L 246.095646 226.080541 
L 246.705593 226.48771 
L 247.010567 226.577584 
L 247.163053 226.622785 
L 247.773001 226.215616 
L 247.823829 226.260641 
L 247.874658 226.170237 
L 248.179632 226.080364 
L 248.332119 226.080364 
L 248.535435 226.125566 
L 248.840408 225.98943 
L 249.653671 226.079834 
L 250.263618 226.487357 
L 250.568592 226.577584 
L 250.822736 226.713012 
L 250.975223 226.667987 
L 251.280197 226.803769 
L 252.195118 226.8043 
L 252.347604 226.668517 
L 252.601749 226.577937 
L 253.00838 226.532735 
L 253.262525 226.30708 
L 253.669156 226.216323 
L 253.821643 226.2165 
L 254.228275 226.442509 
L 254.380762 226.442155 
L 254.634906 226.532735 
L 255.194024 226.622962 
L 255.600656 226.893643 
L 255.651485 226.848264 
L 255.702314 226.938491 
L 255.905629 227.210055 
L 255.956458 227.164853 
L 256.058116 227.255257 
L 256.566406 227.616518 
L 256.668063 227.616694 
L 257.125524 227.888082 
L 257.227182 227.888258 
L 257.430497 228.024217 
L 258.040445 228.431033 
L 258.802878 228.340807 
L 259.107852 228.205378 
L 259.20951 228.250403 
L 259.412826 228.069773 
L 259.514484 228.024571 
L 259.616141 227.889142 
L 259.66697 227.934344 
L 259.921115 228.024217 
L 260.124431 227.933814 
L 260.226089 228.024217 
L 260.276917 227.978839 
L 260.734378 228.069066 
L 260.937694 228.159999 
L 261.141009 228.114444 
L 261.293496 228.204848 
L 261.344325 228.114267 
L 261.395154 228.159646 
L 261.649299 228.249696 
L 262.564219 228.158939 
L 263.326653 227.616694 
L 263.428311 227.616341 
L 263.631627 227.571316 
L 264.597377 227.66225 
L 264.851521 227.888612 
L 265.105666 227.979369 
L 265.8681 228.521614 
L 266.223902 228.612371 
L 266.478047 228.702598 
L 266.732192 228.567346 
L 266.884678 228.567346 
L 267.037165 228.477119 
L 267.240481 228.295782 
L 267.697941 228.385832 
L 267.850428 228.385655 
L 268.25706 228.476589 
L 269.629441 229.560724 
L 270.290217 229.651481 
L 270.544361 229.741885 
L 270.849335 229.831758 
L 271.154309 229.967364 
L 271.306795 229.96754 
L 271.459282 229.967717 
L 271.764256 230.057944 
L 272.0184 230.148524 
L 272.120058 230.238751 
L 272.475861 230.419558 
L 273.034979 230.509785 
L 273.187466 230.509431 
L 273.695755 230.193196 
L 274.000729 230.238221 
L 274.153216 230.419205 
L 274.305702 230.374003 
L 274.610676 230.238574 
L 275.474768 230.328978 
L 276.084715 230.735794 
L 276.440517 230.781349 
L 276.593004 230.826904 
L 276.897978 230.916601 
L 277.304609 231.142963 
L 277.457096 231.142787 
L 278.372017 231.052913 
L 278.575332 230.872106 
L 278.829477 230.962333 
L 278.931135 230.962333 
L 279.286938 230.781172 
L 279.896885 230.871753 
L 282.48916 233.042322 
L 283.505739 233.131842 
L 283.658226 233.132018 
L 283.810712 233.132018 
L 284.166515 233.357851 
L 284.319002 233.176867 
L 284.369831 233.221892 
L 284.42066 233.267094 
L 284.471488 233.17669 
L 284.725633 233.08611 
L 284.928949 233.040731 
L 285.132265 233.040378 
L 285.284751 233.221185 
L 285.691383 233.311942 
L 286.047185 233.492749 
L 286.504646 233.402876 
L 286.707961 233.312295 
L 286.962106 233.403052 
L 287.114593 233.403229 
L 287.317909 233.629592 
L 287.521224 233.67497 
L 287.673711 233.58439 
L 287.927856 233.358734 
L 288.232829 233.267801 
L 288.436145 233.08717 
L 289.300237 232.99659 
L 289.503553 232.951388 
L 289.656039 232.996413 
L 290.011842 232.815429 
L 290.1135 232.860631 
L 290.469302 233.312826 
L 291.282565 233.900625 
L 291.638368 233.990852 
L 292.044999 234.533274 
L 292.858262 235.12072 
L 293.061578 235.166099 
L 293.264893 235.301527 
L 293.366551 235.30135 
L 293.671525 235.437132 
L 293.773183 235.482334 
L 293.976498 235.662965 
L 294.230643 235.79857 
L 294.535617 235.662965 
L 295.094735 235.572915 
L 295.247222 235.572738 
L 295.603024 235.481981 
L 295.80634 235.436956 
L 296.009656 235.482511 
L 296.162142 235.346729 
L 296.2638 235.346552 
L 296.822919 234.984938 
L 297.077063 234.894711 
L 297.483695 234.668349 
L 297.941155 234.578299 
L 298.093642 234.488072 
L 298.398615 234.623677 
L 298.754418 234.713904 
L 299.059392 235.031023 
L 299.364365 235.166806 
L 299.516852 235.257209 
L 299.923483 235.483218 
L 300.228457 235.573268 
L 300.838404 236.025286 
L 300.990891 236.025109 
L 301.143378 236.115336 
L 301.651667 236.431218 
L 302.007469 236.521798 
L 302.769903 237.199825 
L 302.820732 237.109598 
L 302.92239 236.973816 
L 302.973219 237.019195 
L 303.735653 236.9747 
L 303.938969 236.839448 
L 304.142285 236.884473 
L 304.548916 236.974346 
L 304.803061 237.110129 
L 305.362179 236.749045 
L 305.565495 236.884827 
L 305.819639 237.020609 
L 305.921297 237.020609 
L 306.124613 237.201239 
L 306.226271 237.291289 
L 306.480415 237.381339 
L 306.531244 237.290759 
L 306.582073 237.336137 
L 308.005283 238.465475 
L 308.259428 238.374894 
L 308.716888 238.284668 
L 308.971033 238.149416 
L 309.12352 238.149769 
L 309.428493 238.014341 
L 309.58098 237.923937 
L 309.733467 237.923761 
L 309.987612 237.833004 
L 310.140098 237.787979 
L 310.394243 237.878736 
L 310.648388 237.969316 
L 310.851703 238.104568 
L 312.325742 239.279284 
L 312.478229 239.369687 
L 312.630716 239.595519 
L 312.884861 239.640544 
L 313.088176 239.821351 
L 313.240663 239.776503 
L 313.342321 239.686099 
L 313.39315 239.731478 
L 313.596466 239.776503 
L 313.799781 239.731124 
L 314.104755 239.912285 
L 314.257242 239.821881 
L 314.3589 240.002688 
L 314.409729 239.912461 
L 314.765531 239.821704 
L 315.27382 239.460443 
L 315.324649 239.505645 
L 315.375478 239.415065 
L 315.680452 239.233728 
L 315.883768 239.324308 
L 316.137912 239.234082 
L 316.290399 239.46009 
L 316.341228 239.414712 
L 316.900346 239.504939 
L 317.103662 239.731301 
L 318.171069 240.589958 
L 318.323556 240.589781 
L 318.730188 240.861521 
L 318.831846 240.861345 
L 319.035161 240.906723 
L 319.238477 240.997303 
L 319.492622 241.132732 
L 319.645108 241.132555 
L 319.848424 241.223488 
L 320.102569 241.132908 
L 321.220805 241.990327 
L 321.881581 241.900277 
L 322.034068 241.81005 
L 322.237384 241.71947 
L 322.491529 241.62889 
L 322.694844 241.538664 
L 322.999818 241.223135 
L 323.203134 241.177756 
L 323.457278 240.951571 
L 323.914739 240.680714 
L 324.829659 240.770942 
L 325.693751 241.448791 
L 325.846238 241.403589 
L 326.252869 241.629774 
L 326.405356 241.629421 
L 326.608672 241.674445 
L 327.371106 241.584219 
L 327.676079 241.44879 
L 328.13354 241.358387 
L 328.286027 241.132732 
L 328.540171 241.222959 
L 328.794316 240.99695 
L 329.455092 240.90637 
L 329.55675 240.861345 
L 329.912552 241.268337 
L 330.319184 241.540076 
L 330.624157 241.358916 
L 331.081618 241.629773 
L 331.691565 241.675328 
L 331.742394 241.765555 
L 331.793223 241.720353 
L 332.047367 241.630303 
L 332.098196 241.675505 
L 332.250683 241.540076 
L 332.911459 241.042681 
L 333.063946 241.087706 
L 333.216433 241.042505 
L 333.775551 241.133261 
L 333.928038 241.178463 
L 334.080525 241.133261 
L 334.233011 241.223841 
L 334.334669 241.224195 
L 334.690472 241.404648 
L 334.944617 241.314245 
L 335.24959 241.358917 
L 335.300419 241.44932 
L 335.351248 241.359093 
L 335.503735 241.359447 
L 335.605393 241.404825 
L 335.808708 241.540254 
L 336.21534 241.63101 
L 336.571142 241.811994 
L 336.876116 241.902044 
L 337.079432 241.947069 
L 337.282747 242.037295 
L 337.740208 242.308152 
L 338.960102 242.216689 
L 339.214247 242.081437 
L 339.366733 242.126286 
L 339.620878 241.990858 
L 339.875023 242.081261 
L 340.179996 242.171665 
L 340.48497 242.307977 
L 341.501549 242.398733 
L 341.603206 242.48896 
L 341.654035 242.443758 
L 341.704864 242.398379 
L 341.857351 242.579539 
L 342.009838 242.579363 
L 342.619785 242.489665 
L 342.823101 242.443757 
L 343.128074 242.624741 
L 343.382219 242.533984 
L 344.602113 242.624564 
L 345.008745 242.850044 
L 345.161232 242.805018 
L 345.313718 242.805372 
L 345.669521 242.579363 
L 345.923666 242.85075 
L 346.126981 242.760347 
L 346.279468 242.895775 
L 346.330297 242.805372 
L 346.533613 242.66959 
L 346.889415 242.578834 
L 347.550191 242.126639 
L 347.702678 242.12664 
L 347.804336 242.081438 
L 348.007652 242.397673 
L 348.058481 242.352472 
L 348.363454 242.262068 
L 348.56677 242.21669 
L 350.498269 242.172547 
L 350.701585 241.946538 
L 350.803243 241.946538 
L 350.95573 241.946891 
L 351.41319 242.038001 
L 351.514848 242.037648 
L 351.718164 241.992623 
L 351.87065 242.038178 
L 352.073966 242.173783 
L 352.175624 242.173429 
L 352.531426 242.35406 
L 352.887229 242.44411 
L 353.548005 242.895952 
L 354.513755 242.804489 
L 355.631991 241.946009 
L 356.191109 241.90116 
L 356.241938 241.765555 
L 356.292767 241.856135 
L 356.546912 241.946892 
L 356.801057 241.856842 
L 357.10603 241.90169 
L 357.258517 241.99227 
L 357.360175 241.901867 
L 357.461833 241.90169 
L 357.563491 241.90169 
L 357.61432 241.856665 
L 357.665148 241.946892 
L 358.52924 241.857019 
L 358.732556 241.721414 
L 358.783385 241.811817 
L 358.834214 241.766439 
L 359.139187 241.630657 
L 359.240845 241.630481 
L 359.444161 241.584926 
L 359.850792 241.674799 
L 360.054108 241.85543 
L 360.206595 241.946009 
L 360.46074 242.036589 
L 360.714884 242.126816 
L 361.324831 242.57795 
L 361.426489 242.578127 
L 361.985608 242.939917 
L 362.544726 242.850043 
L 362.849699 242.533278 
L 363.612133 242.442874 
L 363.76462 242.443051 
L 363.967936 242.488252 
L 364.476225 242.398378 
L 364.628712 242.308152 
L 365.645291 242.218808 
L 366.102751 241.947951 
L 366.255238 241.857548 
L 366.458553 241.722296 
L 366.865185 241.812523 
L 367.170158 241.947422 
L 367.475132 242.036942 
L 367.932592 242.307976 
L 368.135908 242.39838 
L 368.593369 243.030498 
L 369.050829 243.301708 
L 369.203316 243.301179 
L 369.304974 243.301355 
L 369.559118 243.210598 
L 369.864092 243.165573 
L 369.96575 243.030145 
L 370.016579 243.120548 
L 370.270723 242.984766 
L 370.42321 242.984413 
L 370.88067 242.894186 
L 371.643104 242.352295 
L 371.693933 242.397673 
L 371.744762 242.307446 
L 371.84642 242.262068 
L 372.049736 242.126993 
L 373.930406 242.173077 
L 374.184551 242.444111 
L 374.286209 242.443757 
L 374.997814 242.94027 
L 375.455274 242.849513 
L 375.65859 242.668883 
L 376.827655 242.57848 
L 376.980142 242.443051 
L 377.183458 242.488253 
L 377.386774 242.307623 
L 377.945892 242.398556 
L 378.200036 242.488783 
L 378.50501 242.398379 
L 378.657497 242.398379 
L 378.809984 242.443228 
L 378.96247 242.533455 
L 379.165786 242.398026 
L 379.572418 242.307093 
L 379.724904 242.262244 
L 379.92822 242.307799 
L 380.182365 242.172017 
L 380.334852 242.262597 
L 380.538167 242.036588 
L 380.690654 242.036588 
L 381.148114 242.127345 
L 381.300601 242.127522 
L 381.402259 242.036942 
L 381.453088 242.08232 
L 381.758062 242.037295 
L 381.961377 241.811639 
L 382.164693 241.856841 
L 382.31718 241.81111 
L 382.520496 241.901337 
L 382.672982 241.855782 
L 382.876298 241.765202 
L 383.384587 242.081084 
L 384.147021 242.172018 
L 385.265258 243.030851 
L 385.366916 243.031027 
L 385.570231 243.076052 
L 385.773547 243.031027 
L 386.891784 242.940093 
L 387.501731 242.533278 
L 388.213336 242.442698 
L 388.569138 242.262067 
L 389.331572 242.353354 
L 389.941519 242.759817 
L 390.39898 242.85075 
L 390.958098 243.258272 
L 391.212243 243.167162 
L 391.517216 243.302414 
L 391.669703 243.302414 
L 391.873019 243.211834 
L 392.076334 243.031204 
L 392.177992 242.9408 
L 392.482966 242.759993 
L 392.838768 242.940623 
L 393.2454 242.714791 
L 393.347058 242.669589 
L 393.550373 242.488429 
L 393.804518 242.398556 
L 393.855347 242.308329 
L 393.906176 242.398909 
L 394.21115 242.307976 
L 394.414465 242.217926 
L 394.770268 242.398733 
L 395.12607 242.307976 
L 395.481873 242.127346 
L 396.244307 242.217926 
L 396.498451 242.307799 
L 396.752596 242.398026 
L 396.905083 242.578656 
L 396.955912 242.533278 
L 397.311714 242.623858 
L 397.921662 243.031027 
L 398.531609 243.121078 
L 398.684095 243.120725 
L 400.005648 243.030674 
L 400.412279 242.804136 
L 400.818911 242.849514 
L 400.920568 242.939918 
L 400.971397 242.894893 
L 401.174713 242.759817 
L 401.3272 242.759817 
L 402.038805 242.669767 
L 402.140463 242.669767 
L 402.29295 242.669943 
L 403.462015 242.759993 
L 404.021133 243.121607 
L 404.427765 243.212188 
L 404.63108 243.257389 
L 405.037712 243.031557 
L 405.749317 243.12196 
L 405.952633 243.167339 
L 406.206777 243.076052 
L 406.613409 242.985472 
L 406.765895 242.985649 
L 406.816724 242.985472 
L 406.969211 242.849691 
L 407.274185 242.939918 
L 407.4775 243.030321 
L 407.579158 243.030321 
L 407.680816 243.030145 
L 407.833303 242.939741 
L 409.104026 243.031204 
L 409.256513 243.031028 
L 409.358171 243.076582 
L 409.510658 243.212364 
L 409.968118 243.302944 
L 410.120605 243.348146 
L 410.171434 243.302944 
L 410.222263 243.393171 
L 410.527236 243.528776 
L 410.578065 243.5286 
L 410.781381 243.754608 
L 411.035526 243.844835 
L 411.28967 243.754785 
L 411.492986 243.799987 
L 411.79796 243.890567 
L 412.153762 244.070844 
L 412.357078 244.161248 
L 412.611222 244.251122 
L 412.916196 244.070844 
L 413.119512 244.251828 
L 413.373656 244.025642 
L 413.627801 244.115869 
L 413.831117 244.161071 
L 414.085261 244.070668 
L 414.237748 243.980264 
L 414.542722 243.844482 
L 414.847695 243.844306 
L 415.000182 243.663852 
L 415.152669 243.709583 
L 415.305156 243.709584 
L 415.610129 243.619003 
L 415.864274 243.528423 
L 416.06759 243.573449 
L 416.220077 243.483045 
L 416.423392 243.618297 
L 416.626708 243.52807 
L 416.830024 243.573272 
L 417.134997 243.483045 
L 417.389142 243.392641 
L 417.541629 243.482868 
L 417.694116 243.34691 
L 417.744944 243.437313 
L 418.558207 243.528246 
L 418.710694 243.528776 
L 420.184733 243.573978 
L 420.388049 243.709406 
L 420.642193 243.754608 
L 420.845509 243.89039 
L 421.252141 243.980087 
L 421.30297 244.070491 
L 421.353799 244.025113 
L 421.607943 243.935062 
L 421.862088 244.025113 
L 421.912917 244.024936 
L 422.065404 244.206096 
L 422.167061 244.296323 
L 422.472035 244.476777 
L 422.72618 244.386197 
L 422.878666 244.29597 
L 423.234469 244.11534 
L 423.539443 244.02476 
L 423.996903 243.753549 
L 424.454363 243.663146 
L 424.60685 243.617591 
L 424.708508 243.617767 
L 424.810166 243.572742 
L 424.962653 243.663322 
L 425.115139 243.61812 
L 425.267626 243.617944 
L 425.725087 243.708347 
L 425.928402 244.025113 
L 426.080889 244.160895 
L 426.233376 244.070668 
L 426.436692 244.206626 
L 426.690836 244.29703 
L 426.843323 244.252004 
L 427.097468 244.342761 
L 427.249954 244.297559 
L 427.605757 244.478366 
L 427.809073 244.433518 
L 428.469849 244.342408 
L 428.622336 244.342761 
L 429.588085 244.38708 
L 429.740572 244.522509 
L 429.943888 244.477307 
L 430.096375 244.432282 
L 430.147203 244.342055 
L 430.198032 244.432282 
L 430.350519 244.477307 
L 430.503006 244.431752 
L 430.655493 244.476777 
L 431.011295 244.296323 
L 431.367098 244.20592 
L 431.621242 244.11534 
L 431.7229 244.11534 
L 431.926216 244.069961 
L 432.078703 244.114987 
L 432.282019 244.024583 
L 432.637821 244.205214 
L 433.247768 244.295617 
L 433.501913 244.386021 
L 433.908544 244.431576 
L 433.959373 244.522156 
L 434.010202 244.476954 
L 434.213518 244.431929 
L 434.925123 244.341878 
L 435.128439 244.115693 
L 435.179268 244.206273 
L 435.331754 244.206449 
L 436.094188 244.296853 
L 436.195846 244.342231 
L 436.348333 244.251828 
L 436.602478 244.342231 
L 436.856622 244.433165 
L 437.517398 244.343114 
L 437.822372 244.207509 
L 438.178175 244.117458 
L 438.635635 243.846248 
L 438.788122 243.755844 
L 439.34724 243.3937 
L 439.601385 243.529129 
L 439.753871 243.483927 
L 440.109674 243.664028 
L 440.262161 243.709054 
L 440.465476 243.889861 
L 440.668792 243.979911 
L 441.685371 244.747105 
L 442.803607 244.657584 
L 443.464383 244.205037 
L 443.61687 244.114987 
L 443.921844 243.934533 
L 444.125159 243.979911 
L 444.277646 243.979735 
L 444.938422 243.889154 
L 445.141738 243.8436 
L 445.294225 243.934003 
L 446.00583 244.477131 
L 446.107488 244.431752 
L 446.361632 244.658114 
L 446.615777 244.748341 
L 446.920751 244.658114 
L 447.124066 244.612559 
L 447.225724 244.612736 
L 447.327382 244.612559 
L 447.784842 244.974703 
L 447.937329 244.884123 
L 449.411368 244.928972 
L 449.614684 245.06493 
L 449.868829 245.155157 
L 449.919657 245.064754 
L 449.970486 245.155157 
L 450.122973 245.109779 
L 450.27546 244.973997 
L 452.054473 244.884123 
L 452.257788 244.838922 
L 452.410275 244.838922 
L 452.461104 244.97435 
L 452.511933 244.928972 
L 453.172709 245.020258 
L 453.528512 245.200712 
L 453.680998 245.200536 
L 454.54509 245.291469 
L 455.053379 245.607705 
L 455.205866 245.56215 
L 455.714156 245.878033 
L 455.9683 245.787276 
L 456.324103 245.878209 
L 456.425761 245.878386 
L 456.883221 245.606469 
L 457.086537 245.561267 
L 457.340681 245.335082 
L 457.442339 245.335082 
L 458.052286 244.928795 
L 458.204773 244.929148 
L 458.509747 244.793366 
L 458.81472 244.70261 
L 459.068865 244.612383 
L 459.373839 244.702963 
L 459.577154 244.748341 
L 459.729641 244.748518 
L 460.187101 244.65882 
L 460.390417 244.613795 
L 460.847878 244.523215 
L 461.051193 244.47819 
L 461.762798 244.387963 
L 462.067772 244.206803 
L 462.220259 244.206803 
L 462.62689 244.296676 
L 463.084351 244.612736 
L 463.287666 244.567534 
L 463.440153 244.657938 
L 463.846784 244.56824 
L 463.897613 244.477837 
L 463.948442 244.523039 
L 464.202587 244.613442 
L 464.507561 244.704199 
L 464.761705 244.795132 
L 466.286573 244.885889 
L 466.489889 244.975939 
L 466.642376 244.975763 
L 467.252323 245.065636 
L 467.455639 245.155863 
L 467.811441 244.975233 
L 468.675533 245.06493 
L 468.878849 245.110132 
L 468.980506 245.200712 
L 469.336309 245.381519 
L 469.641283 245.381343 
L 469.692111 245.245737 
L 469.74294 245.291116 
L 469.946256 245.381343 
L 470.098743 245.335964 
L 470.25123 245.336317 
L 470.861177 245.245738 
L 471.064493 245.064577 
L 471.216979 245.019376 
L 471.267808 244.929148 
L 471.318637 244.974174 
L 471.471124 245.019376 
L 471.877756 244.79372 
L 472.640189 244.748341 
L 472.792676 244.657585 
L 473.09765 244.748518 
L 473.250137 244.748341 
L 473.758426 244.793543 
L 473.860084 244.883947 
L 473.910913 244.838745 
L 474.215886 244.747812 
L 474.368373 244.702433 
L 474.52086 244.792837 
L 474.724176 244.747812 
L 475.232465 244.838392 
L 475.588267 245.064754 
L 475.791583 244.97435 
L 475.94407 245.06493 
L 476.045728 244.974527 
L 476.249044 245.110132 
L 476.350701 245.064754 
L 476.503188 244.97488 
L 476.655675 245.065283 
L 477.163964 245.382226 
L 477.316451 245.382049 
L 477.977227 245.291645 
L 478.231372 245.201065 
L 479.095464 245.155334 
L 479.349608 244.929148 
L 479.502095 244.929325 
L 480.569503 245.019375 
L 480.721989 245.019199 
L 480.925305 244.928972 
L 481.077792 244.929148 
L 481.891055 245.019905 
L 482.043542 245.019905 
L 483.06012 244.930208 
L 483.314265 244.839804 
L 483.56841 244.930384 
L 483.771725 244.885359 
L 483.924212 244.840334 
L 484.280015 244.432988 
L 485.245764 244.523392 
L 485.44908 244.65882 
L 485.601567 244.568593 
L 485.804882 244.659174 
L 486.008198 244.704199 
L 486.211514 244.568594 
L 486.567316 244.613266 
L 486.821461 244.839628 
L 487.228093 244.748871 
L 487.533066 244.432635 
L 487.939698 244.342761 
L 488.092184 244.342408 
L 488.549645 244.342232 
L 488.702132 244.47766 
L 489.057934 244.658997 
L 489.972855 244.748871 
L 490.125342 244.793896 
L 490.277828 244.748341 
L 490.430315 244.748694 
L 491.040262 244.838745 
L 491.497723 245.109602 
L 492.361815 245.200006 
L 492.819275 245.47157 
L 492.971762 245.47157 
L 493.632538 245.381519 
L 493.886682 245.110485 
L 494.95409 245.020435 
L 495.41155 244.749401 
L 495.513208 244.749401 
L 495.665695 244.749224 
L 496.021498 244.658467 
L 496.275642 244.568064 
L 496.733103 244.477484 
L 497.038076 244.341702 
L 497.851339 244.432105 
L 497.952997 244.522332 
L 498.003826 244.431752 
L 498.512115 244.341702 
L 498.664602 244.341702 
L 499.122062 244.431399 
L 499.274549 244.476248 
L 499.732009 244.385491 
L 499.833667 244.385314 
L 500.18947 244.566298 
L 500.545272 244.656702 
L 500.799417 244.747988 
L 501.002733 244.838215 
L 501.256877 244.928795 
L 501.815996 245.019905 
L 502.375114 245.427251 
L 502.883403 245.111015 
L 503.03589 245.020611 
L 503.290035 244.929855 
L 503.442521 244.929678 
L 503.595008 244.749048 
L 504.154126 244.387786 
L 504.357442 244.297206 
L 504.509929 244.161778 
L 504.611587 244.161425 
L 504.865731 244.070668 
L 506.034797 244.161601 
L 506.746402 244.658997 
L 506.898889 244.749401 
L 507.051375 244.930031 
L 507.102204 244.885006 
L 507.407178 245.066166 
L 507.559665 245.066166 
L 508.322099 245.608411 
L 508.474586 245.698461 
L 508.627072 245.788688 
L 508.830388 245.74331 
L 509.033704 245.653083 
L 509.592822 245.290763 
L 509.745309 245.200359 
L 510.507743 244.657761 
L 510.66023 244.567534 
L 510.863545 244.522332 
L 511.016032 244.522509 
L 511.270177 244.296147 
L 512.08344 244.250945 
L 512.235926 244.11534 
L 512.490071 244.206273 
L 512.947531 244.29703 
L 513.100018 244.297206 
L 513.252505 244.297206 
L 513.404992 244.252004 
L 513.557479 244.161601 
L 513.811623 244.252358 
L 514.269084 244.342585 
L 514.523228 244.613972 
L 515.234833 244.658644 
L 515.336491 244.839628 
L 515.38732 244.794426 
L 515.590636 244.749224 
L 515.84478 244.839628 
L 516.098925 244.929855 
L 516.403899 244.794602 
L 516.658043 244.885006 
L 516.861359 244.839981 
L 517.318819 244.930384 
L 517.471306 244.975763 
L 517.623793 244.840334 
L 517.77628 244.840157 
L 518.23374 244.749224 
L 518.589543 244.56824 
L 518.691201 244.613442 
L 518.843687 244.794073 
L 518.894516 244.748871 
L 519.097832 244.658644 
L 519.351977 244.56877 
L 519.809437 244.523568 
L 520.012753 244.387786 
L 520.419384 244.297912 
L 520.673529 244.207685 
L 521.232647 244.16266 
L 521.435963 244.026702 
L 522.096739 243.935592 
L 522.249226 243.89039 
L 522.401713 243.890214 
L 522.554199 243.935592 
L 522.757515 244.116046 
L 522.910002 244.116222 
L 523.265804 244.29703 
L 524.231554 244.387433 
L 524.587357 244.568417 
L 524.89233 244.658997 
L 525.044817 244.749224 
L 525.807251 244.839451 
L 526.061396 245.065636 
L 526.264711 245.156393 
L 526.417198 245.24662 
L 527.586263 245.156393 
L 528.043724 244.885359 
L 528.348697 244.794249 
L 528.501184 244.749047 
L 528.7045 244.794426 
L 529.111131 244.567887 
L 529.822736 244.476601 
L 529.975223 244.476424 
L 530.076881 244.476601 
L 530.178539 244.476777 
L 530.788486 244.88377 
L 530.890144 244.929148 
L 531.042631 245.019552 
L 531.296775 245.064224 
L 531.500091 245.290409 
L 531.652578 245.335788 
L 531.805065 245.335788 
L 531.906723 245.380813 
L 532.211696 245.697755 
L 533.024959 245.606645 
L 533.990709 244.838215 
L 534.092367 244.838039 
L 534.346511 244.747635 
L 534.498998 244.747812 
L 534.753143 244.657055 
L 535.108945 244.883417 
L 535.210603 244.883417 
L 535.36309 244.883417 
L 535.464748 244.79319 
L 535.515577 244.838392 
L 536.837129 245.878386 
L 537.24376 245.969143 
L 537.396247 246.014697 
L 537.599563 245.834067 
L 537.650392 245.924647 
L 537.75205 245.92447 
L 537.904536 245.924294 
L 538.057023 246.059899 
L 538.260339 245.969319 
L 538.514484 246.059546 
L 538.717799 246.014344 
L 539.276917 245.923588 
L 539.531062 245.697755 
L 539.683549 245.788159 
L 539.836036 245.697579 
L 540.039351 245.742604 
L 540.700128 245.652553 
L 540.852614 245.652377 
L 541.005101 245.607175 
L 541.208417 245.472276 
L 541.462561 245.382226 
L 541.615048 245.381872 
L 541.869193 245.472453 
L 542.631627 245.381343 
L 542.834943 245.335964 
L 542.987429 245.335964 
L 543.089087 245.335964 
L 543.343232 245.426368 
L 543.495719 245.335964 
L 543.699034 245.290409 
L 544.054837 245.470863 
L 544.156495 245.425838 
L 544.359811 245.154628 
L 544.461468 245.200182 
L 544.512297 245.109779 
L 544.563126 245.155157 
L 544.715613 245.200359 
L 544.918929 245.15551 
L 545.122244 245.24609 
L 545.32556 245.291822 
L 545.732192 245.382402 
L 545.884678 245.427604 
L 545.986336 245.291999 
L 546.037165 245.382579 
L 546.189652 245.472982 
L 546.799599 245.563209 
L 546.901257 245.653436 
L 546.952086 245.608234 
L 547.206231 245.74384 
L 547.358717 245.698638 
L 547.409546 245.743663 
L 547.460375 245.653083 
L 548.222809 245.56268 
L 548.476954 245.427074 
L 548.527783 245.517478 
L 548.578612 245.472099 
L 548.781927 245.427251 
L 548.985243 245.3372 
L 549.747677 244.794426 
L 550.154309 244.749224 
L 550.306795 244.704022 
L 550.56094 244.613265 
L 550.764256 244.658644 
L 551.425032 244.749224 
L 552.390782 245.472806 
L 552.644926 245.563209 
L 553.000729 245.744016 
L 553.153216 245.653613 
L 553.356531 245.562856 
L 553.559847 245.608234 
L 553.763163 245.563033 
L 554.678083 245.472099 
L 554.932228 245.382049 
L 555.084715 245.337024 
L 555.288031 245.156217 
L 555.542175 245.291469 
L 555.694662 245.291645 
L 555.897978 245.336847 
L 556.101293 245.291645 
L 556.304609 245.382225 
L 556.507925 245.427957 
L 556.812899 245.337377 
L 557.016214 245.292175 
L 557.473675 245.201418 
L 557.626161 245.156393 
L 557.829477 245.337024 
L 558.083622 245.201595 
L 558.286938 245.246797 
L 558.388595 245.291645 
L 558.490253 245.382049 
L 558.541082 245.336671 
L 558.693569 245.336671 
L 561.133358 245.380636 
L 561.285844 245.471217 
L 561.48916 245.425838 
L 561.946621 245.335788 
L 562.099107 245.335611 
L 562.302423 245.425662 
L 562.45491 245.425838 
L 562.861541 245.651671 
L 564.84387 245.742074 
L 564.996356 245.742251 
L 565.30133 245.606822 
L 565.555475 245.697755 
L 565.809619 245.607352 
L 566.165422 245.517301 
L 566.368737 245.427251 
L 566.521224 245.427074 
L 567.232829 245.336671 
L 567.69029 245.064754 
L 567.791948 245.109955 
L 568.046092 244.883417 
L 568.503553 244.612206 
L 569.367644 244.521097 
L 569.57096 244.430693 
L 569.825105 244.566475 
L 569.926763 244.566475 
L 570.231736 244.883594 
L 570.435052 244.974174 
L 570.99417 245.336317 
L 571.349973 245.426898 
L 571.756604 245.652553 
L 572.010749 245.743134 
L 572.264893 245.833537 
L 572.671525 245.606822 
L 572.824012 245.606645 
L 573.027327 245.561797 
L 573.38313 245.47157 
L 573.637275 245.381166 
L 573.84059 245.290763 
L 574.145564 245.15551 
L 574.653853 245.065107 
L 574.80634 244.929325 
L 575.009656 244.974703 
L 575.2638 244.929501 
L 575.467116 244.794073 
L 575.924576 244.88377 
L 576.178721 244.97382 
L 576.280379 244.928442 
L 576.432866 244.973467 
L 577.805247 245.064224 
L 577.957734 245.245031 
L 578.415194 245.155334 
L 578.61851 245.06493 
L 579.126799 245.381696 
L 579.940062 245.291469 
L 579.990891 245.246444 
L 580.04172 245.336847 
L 580.346693 245.472276 
L 581.007469 245.56215 
L 581.159956 245.652377 
L 581.363272 245.471923 
L 582.481508 245.56215 
L 582.633995 245.652553 
L 582.88814 245.562326 
L 583.091456 245.381343 
L 583.599745 245.291292 
L 583.803061 245.246267 
L 584.006376 245.382049 
L 585.226271 245.472099 
L 585.327929 245.472099 
L 585.480415 245.472276 
L 585.785389 245.607528 
L 586.242849 245.652553 
L 586.344507 245.74278 
L 586.395336 245.697755 
L 586.547823 245.697932 
L 586.70031 245.607705 
L 586.954454 245.381519 
L 587.106941 245.381519 
L 587.767717 245.290939 
L 587.971033 245.245737 
L 588.987612 245.155157 
L 589.190927 245.109955 
L 589.394243 245.335964 
L 589.54673 245.245737 
L 590.156677 245.15551 
L 590.664966 244.840334 
L 590.817453 244.750283 
L 591.071598 244.660409 
L 591.376571 244.795838 
L 591.478229 244.750813 
L 591.681545 244.886242 
L 593.053926 244.975939 
L 593.562215 245.291998 
L 594.27382 245.382402 
L 594.578794 245.562856 
L 594.731281 245.562503 
L 594.883768 245.607705 
L 595.087083 245.472452 
L 595.341228 245.382225 
L 595.798688 245.291469 
L 596.103662 245.110309 
L 596.20532 245.110309 
L 596.408635 244.974703 
L 596.66278 244.884123 
L 596.916925 244.793896 
L 597.171069 244.703669 
L 597.374385 244.613442 
L 597.577701 244.56824 
L 597.831846 244.703846 
L 597.984332 244.704022 
L 598.187648 244.749577 
L 598.340135 244.749401 
L 598.594279 244.839451 
L 598.797595 244.884829 
L 599.255056 244.794955 
L 599.407542 244.794779 
L 600.01749 244.839628 
L 600.169976 244.930031 
L 600.983239 244.839274 
L 601.084897 244.839451 
L 601.186555 244.839628 
L 601.389871 244.794073 
L 601.542357 244.884476 
L 601.745673 244.929678 
L 602.050647 245.020435 
L 602.304791 245.246267 
L 602.457278 245.336847 
L 603.067225 245.743487 
L 603.168883 245.83389 
L 603.372199 245.879092 
L 603.473857 245.92447 
L 603.626344 246.059899 
L 603.728001 246.014521 
L 603.931317 246.150303 
L 605.405356 246.059016 
L 605.811988 245.833184 
L 606.015303 245.923234 
L 606.320277 245.787806 
L 606.726908 245.878209 
L 606.930224 245.969142 
L 607.184369 245.878739 
L 607.692658 245.787982 
L 607.895974 245.743134 
L 608.200947 245.833361 
L 608.455092 245.923941 
L 608.658408 245.833537 
L 608.861723 245.878562 
L 609.065039 245.833537 
L 609.5225 245.923588 
L 609.674986 245.923588 
L 610.234105 246.014168 
L 610.43742 246.104395 
L 610.691565 246.014521 
L 610.844052 246.059723 
L 611.098196 245.969496 
L 611.149025 246.059899 
L 611.199854 245.969319 
L 611.352341 245.969672 
L 611.555657 246.014697 
L 612.419749 245.923764 
L 612.623064 245.833714 
L 612.673893 245.879092 
L 612.724722 245.788688 
L 612.928038 245.698108 
L 613.080525 245.697932 
L 614.757879 245.608058 
L 614.859537 245.607881 
L 614.961195 245.608058 
L 615.21534 245.472099 
L 615.367827 245.472099 
L 616.130261 245.381872 
L 616.333576 245.336494 
L 616.689379 245.426544 
L 616.841866 245.426544 
L 617.451813 245.516242 
L 618.010931 245.877503 
L 618.824194 245.968083 
L 618.976681 245.968083 
L 619.48497 246.058663 
L 619.739115 246.194445 
L 619.891601 246.194798 
L 620.399891 246.149243 
L 620.603206 246.013991 
L 620.755693 246.013991 
L 620.959009 246.104395 
L 621.213154 246.194622 
L 621.619785 246.104395 
L 622.280561 245.607528 
L 622.382219 245.607175 
L 622.636364 245.426368 
L 622.636364 245.426368 
" clip-path="url(#pc958d1e2b5)" style="fill: none; stroke: #4c72b0; stroke-width: 1.75; stroke-linecap: round"/>
   </g>
   <g id="patch_3">
    <path d="M 90 256.32 
L 90 34.56 
" style="fill: none"/>
   </g>
   <g id="patch_4">
    <path d="M 648 256.32 
L 648 34.56 
" style="fill: none"/>
   </g>
   <g id="patch_5">
    <path d="M 90 256.32 
L 648 256.32 
" style="fill: none"/>
   </g>
   <g id="patch_6">
    <path d="M 90 34.56 
L 648 34.56 
" style="fill: none"/>
   </g>
  </g>
 </g>
 <defs>
  <clipPath id="pc958d1e2b5">
   <rect x="90" y="34.56" width="558" height="221.76"/>
  </clipPath>
 </defs>
</svg>
