<svg id="Layer_1" data-name="Layer 1" xmlns="http://www.w3.org/2000/svg" viewBox="0 0 1012.27 413"><defs><style>.cls-1{fill:#fff;}</style></defs><title>White 2 en</title><path class="cls-1" d="M340.05,214.59h3.13v8h.05l5.92-8H353l-6.52,8.75,7,9.68h-3.8l-6.43-9h-.05v9h-3.13Z"/><path class="cls-1" d="M355.41,214.59h3v2.94h-3Zm0,5.72h3V233h-3Z"/><path class="cls-1" d="M362.2,220.31h2.95v2.37h.06A4,4,0,0,1,369,220c1.86,0,3.44,1.28,3.44,4.18V233h-3v-7.26c0-2.59-.28-3-1.31-3-2,0-3,2.73-3,4.73V233H362.2Z"/><path class="cls-1" d="M385.8,233.9c0,3.72-2.22,5.13-6.06,5.13a16.49,16.49,0,0,1-4-.51v-2.91a7.9,7.9,0,0,0,3.92,1.11c2.94,0,3.28-2,3.28-3.7v-2h0a3.8,3.8,0,0,1-3.29,2c-3.39,0-4.35-3.27-4.35-6.65s1.33-6.35,4.35-6.35a3.52,3.52,0,0,1,3.29,1.81h0v-1.52h2.84Zm-5.18-3.18c1.71,0,2.34-2.53,2.34-4.35s-.5-4.06-2.34-4.06-2.19,2.38-2.19,4.06S378.67,230.72,380.62,230.72Z"/><path class="cls-1" d="M397.44,214.59h10.42V217h-7.29v5.31h6.89v2.39h-6.89V233h-3.13Z"/><path class="cls-1" d="M416.62,231.55h-.06a3.29,3.29,0,0,1-3.31,1.76c-2.13,0-3.74-1.28-3.74-3.34,0-4.21,5.34-4.24,7.11-4.28v-1.27c0-1.25-.32-2.33-1.79-2.33a1.76,1.76,0,0,0-1.95,2H410c0-2.44,1.61-4,4.84-4s4.62,1.35,4.62,3.94V233h-2.83Zm-2.65-.32c1.93,0,2.65-2.08,2.65-3.81-1.92,0-4.22.58-4.22,2.29A1.39,1.39,0,0,0,414,231.23Z"/><path class="cls-1" d="M423,214.59h3v8.09H426a4,4,0,0,1,3.76-2.66c1.87,0,3.44,1.28,3.44,4.18V233h-3v-7.26c0-2.59-.27-3-1.31-3-2,0-3,2.73-3,4.73V233h-3Z"/><path class="cls-1" d="M443.67,231.26h-.05a3.78,3.78,0,0,1-3.18,2.05c-3.39,0-4.36-3.1-4.36-6.65s1.31-6.64,4.36-6.64a3.55,3.55,0,0,1,3.18,1.81h.05v-7.24h3V233h-3Zm-2.24-.25c1.65,0,2.24-2.32,2.24-4.35,0-2.35-.54-4.35-2.24-4.35-2,0-2.2,2.24-2.2,4.35S439.55,231,441.43,231Z"/><path class="cls-1" d="M470.82,227.38c0,4.06-2.42,5.93-6.37,5.93-3.79,0-6.41-1.87-6.41-5.93V214.59h3.12v12.79c0,2.12.83,3.73,3.29,3.73s3.25-1.61,3.25-3.73V214.59h3.12Z"/><path class="cls-1" d="M474.43,220.31h3v2.37h.05a4,4,0,0,1,3.77-2.66c1.86,0,3.44,1.28,3.44,4.18V233h-3v-7.26c0-2.59-.27-3-1.31-3-2,0-3,2.73-3,4.73V233h-3Z"/><path class="cls-1" d="M488.43,214.59h3v2.94h-3Zm0,5.72h3V233h-3Z"/><path class="cls-1" d="M493.34,220.31h3.1l2.83,8.7h.05l2.86-8.7h3.09L500.74,233h-2.88Z"/><path class="cls-1" d="M516.25,232.81a11.34,11.34,0,0,1-3.54.5c-4.12,0-6.42-2.64-6.42-7.32,0-3.55,1.61-6,5.45-6,3.24,0,4.84,2,4.84,5.15v.71h-7.53c0,1.77,1.2,5.35,4.77,5.35a7.77,7.77,0,0,0,2.43-.48Zm-2.48-8.71a2.07,2.07,0,0,0-2.24-2.19,2.37,2.37,0,0,0-2.4,2.19Z"/><path class="cls-1" d="M519.37,220.31h3v2.35h.06a4.2,4.2,0,0,1,4.1-2.64v3.09c-3,0-4.16,1.26-4.16,4.33V233h-3Z"/><path class="cls-1" d="M535.41,223a6.48,6.48,0,0,0-2.83-.85c-.92,0-2,.43-2,1.17,0,1.68,5.59,2.53,5.59,6.18,0,2.62-2,3.81-4.81,3.81a10.2,10.2,0,0,1-3.36-.5v-2.56a8.53,8.53,0,0,0,3.23.76c.72,0,2.18-.12,2.18-1.14,0-1.5-5.47-2.75-5.47-6.12,0-2.38,1.82-3.73,4.56-3.73a10.31,10.31,0,0,1,2.9.48Z"/><path class="cls-1" d="M538.84,214.59h3v2.94h-3Zm0,5.72h3V233h-3Z"/><path class="cls-1" d="M553.13,233.1a15.33,15.33,0,0,1-2.43.21c-3.36,0-3.9-1.6-3.9-3.5v-7.45h-2.48v-2.05h2.48v-3l3-1.79v4.81h3.76v2.05h-3.76v6c0,1.53.19,2.86,2,2.86a5,5,0,0,0,1.36-.22Z"/><path class="cls-1" d="M558.34,233.19l-4.7-12.88h3.1l2.93,8.57h.06l2.74-8.57h3.11l-6.33,18.43h-2.73Z"/><path class="cls-1" d="M574.5,226.66c0-4.17,1.94-6.64,5.6-6.64s5.61,2.47,5.61,6.64-1.94,6.65-5.61,6.65S574.5,230.83,574.5,226.66Zm5.6,4.57c2.14,0,2.47-2.19,2.47-4.57s-.33-4.57-2.47-4.57-2.45,2.2-2.45,4.57S578,231.23,580.1,231.23Z"/><path class="cls-1" d="M589.69,222.36h-2.32v-2.05h2.32v-1.74c0-2.69,1.74-4.28,5.21-4.28a16.44,16.44,0,0,1,3,.27v2.27a7.29,7.29,0,0,0-2.32-.45c-2.45,0-2.89,1.58-2.89,3v.89h3.75v2.05h-3.75V233h-3Z"/><path class="cls-1" d="M606.52,214.59h4.75c2.85,0,6.46.42,6.46,5.32,0,4.4-3.89,5.26-6.46,5.26h-1.62V233h-3.13Zm3.13,8.36h1.62c1.87,0,3.29-.93,3.29-3,0-2.38-1.24-3.1-3.29-3.1h-1.62Z"/><path class="cls-1" d="M628,232.81a11.36,11.36,0,0,1-3.55.5c-4.11,0-6.41-2.64-6.41-7.32,0-3.55,1.6-6,5.45-6,3.23,0,4.83,2,4.83,5.15v.71h-7.52c0,1.77,1.2,5.35,4.78,5.35a7.64,7.64,0,0,0,2.42-.48Zm-2.48-8.71a2.07,2.07,0,0,0-2.23-2.19,2.36,2.36,0,0,0-2.41,2.19Z"/><path class="cls-1" d="M638.64,233.1a15.13,15.13,0,0,1-2.43.21c-3.36,0-3.89-1.6-3.89-3.5v-7.45h-2.49v-2.05h2.49v-3l3-1.79v4.81h3.76v2.05h-3.76v6c0,1.53.17,2.86,2,2.86a4.9,4.9,0,0,0,1.36-.22Z"/><path class="cls-1" d="M641,220.31h3v2.35h0A4.21,4.21,0,0,1,648.1,220v3.09c-3,0-4.16,1.26-4.16,4.33V233h-3Z"/><path class="cls-1" d="M649.65,226.66c0-4.17,2-6.64,5.61-6.64s5.61,2.47,5.61,6.64-2,6.65-5.61,6.65S649.65,230.83,649.65,226.66Zm5.61,4.57c2.14,0,2.45-2.19,2.45-4.57s-.31-4.57-2.45-4.57-2.47,2.2-2.47,4.57S653.12,231.23,655.26,231.23Z"/><path class="cls-1" d="M663.91,214.59h3V233h-3Z"/><path class="cls-1" d="M679.88,232.81a11.42,11.42,0,0,1-3.56.5c-4.11,0-6.4-2.64-6.4-7.32,0-3.55,1.59-6,5.45-6,3.22,0,4.83,2,4.83,5.15v.71h-7.53c0,1.77,1.2,5.35,4.78,5.35a7.65,7.65,0,0,0,2.43-.48Zm-2.49-8.71a2.06,2.06,0,0,0-2.24-2.19,2.37,2.37,0,0,0-2.4,2.19Z"/><path class="cls-1" d="M690.3,230.63h-.07a4,4,0,0,1-3.76,2.68c-1.87,0-3.44-1.28-3.44-4.19v-8.81h3v7.26c0,2.59.28,3,1.31,3,2,0,3-2.7,3-4.74v-5.49h3V233h-3Z"/><path class="cls-1" d="M696.92,220.31h3v1.94h0a3.54,3.54,0,0,1,3.34-2.23,3,3,0,0,1,3.21,2.53h0a4,4,0,0,1,3.59-2.53c1.85,0,3.43,1.28,3.43,4.18V233h-3v-7.26c0-2.59-.27-3-1.31-3-1.7,0-2.56,2.73-2.56,4.73V233h-3v-7.26c0-2.59-.27-3-1.31-3-1.7,0-2.56,2.73-2.56,4.73V233h-3Z"/><path class="cls-1" d="M733.55,232.89a12.8,12.8,0,0,1-3.12.42c-3.18,0-6-1.23-6-4.94,0-3.49,2.14-4.29,3.87-4.58v-.06c-1.27-.35-3.52-.91-3.52-3.95,0-3.64,2.87-4.55,5.48-4.55a9.62,9.62,0,0,1,3,.48v2.15a5.33,5.33,0,0,0-2.67-.7c-1.79,0-2.48,1.3-2.48,2.8,0,2.48,1.52,2.86,3.5,2.86h3.68v-5.61l3-1.77v7.38h3.36v1.89h-3.36v4.17c0,1.66.64,2.51,1.92,2.51a4,4,0,0,0,1.44-.34v2a9.48,9.48,0,0,1-2.14.21c-2.66,0-4.19-.74-4.19-3.38v-5.22h-3.62c-2.11,0-3.9.14-3.9,3.58a2.8,2.8,0,0,0,3.12,3.1,5.52,5.52,0,0,0,2.61-.64Z"/><path class="cls-1" d="M751.4,214.59h4.27l5.12,14.72h.06L766,214.59h4.24V233h-2.86V218.49h0L762.26,233h-2.88l-5.07-14.53h-.06V233H751.4Z"/><path class="cls-1" d="M774.17,214.59h3v2.94h-3Zm0,5.72h3V233h-3Z"/><path class="cls-1" d="M781,220.31h3v2.37H784a4,4,0,0,1,3.77-2.66c1.87,0,3.44,1.28,3.44,4.18V233h-3v-7.26c0-2.59-.26-3-1.32-3-2,0-3,2.73-3,4.73V233h-3Z"/><path class="cls-1" d="M804,232.81a11.36,11.36,0,0,1-3.55.5c-4.12,0-6.4-2.64-6.4-7.32,0-3.55,1.6-6,5.44-6,3.23,0,4.84,2,4.84,5.15v.71H796.8c0,1.77,1.19,5.35,4.78,5.35a7.64,7.64,0,0,0,2.42-.48Zm-2.48-8.71a2.07,2.07,0,0,0-2.24-2.19,2.37,2.37,0,0,0-2.4,2.19Z"/><path class="cls-1" d="M807.13,220.31h3v2.35h0a4.2,4.2,0,0,1,4.11-2.64v3.09c-3,0-4.16,1.26-4.16,4.33V233h-3Z"/><path class="cls-1" d="M823,231.55h0a3.29,3.29,0,0,1-3.31,1.76c-2.14,0-3.74-1.28-3.74-3.34,0-4.21,5.35-4.24,7.1-4.28v-1.27c0-1.25-.31-2.33-1.79-2.33a1.75,1.75,0,0,0-1.94,2h-2.89c0-2.44,1.6-4,4.83-4s4.62,1.35,4.62,3.94V233H823Zm-2.64-.32c1.92,0,2.64-2.08,2.64-3.81-1.92,0-4.22.58-4.22,2.29A1.4,1.4,0,0,0,820.4,231.23Z"/><path class="cls-1" d="M829.56,214.59h3V233h-3Z"/><path class="cls-1" d="M842.91,223a6.34,6.34,0,0,0-2.83-.85c-.91,0-2,.43-2,1.17,0,1.68,5.58,2.53,5.58,6.18,0,2.62-2,3.81-4.81,3.81a10.33,10.33,0,0,1-3.37-.5v-2.56a8.63,8.63,0,0,0,3.24.76c.72,0,2.18-.12,2.18-1.14,0-1.5-5.47-2.75-5.47-6.12,0-2.38,1.82-3.73,4.57-3.73a10.29,10.29,0,0,1,2.88.48Z"/><path class="cls-1" d="M351,193.21a3.57,3.57,0,0,1-.33,1.6,3.07,3.07,0,0,1-.9,1.11,3.82,3.82,0,0,1-1.27.65,5.28,5.28,0,0,1-1.47.21,5.17,5.17,0,0,1-1.47-.21,3.87,3.87,0,0,1-1.28-.65,3.15,3.15,0,0,1-.89-1.11,3.44,3.44,0,0,1-.34-1.6v-6h-3v6a6.63,6.63,0,0,0,.59,2.84,6.2,6.2,0,0,0,1.57,2.07,6.61,6.61,0,0,0,2.25,1.25,7.73,7.73,0,0,0,5.14,0,6.76,6.76,0,0,0,2.26-1.25,6.1,6.1,0,0,0,1.58-2.07,6.35,6.35,0,0,0,.61-2.84V180.79h-3Zm-4.41-14.54a1.55,1.55,0,0,0,.65-.14,1.61,1.61,0,0,0,.88-.87,1.66,1.66,0,0,0,.13-.64,1.62,1.62,0,0,0-.13-.64,1.49,1.49,0,0,0-.35-.53,1.58,1.58,0,0,0-.53-.35,1.71,1.71,0,0,0-.65-.13,1.59,1.59,0,0,0-1.16.48A1.55,1.55,0,0,0,345,177a1.64,1.64,0,0,0,.46,1.18A1.62,1.62,0,0,0,346.6,178.67ZM369.21,187a11.08,11.08,0,0,0-.73-2.15,7.32,7.32,0,0,0-1.14-1.75,7.66,7.66,0,0,0-3.59-2.27,18.85,18.85,0,0,0-5.66-.7l0,3a15.66,15.66,0,0,1,4.37.46,5.51,5.51,0,0,1,2.58,1.5,5.91,5.91,0,0,1,1.13,2.39,19.1,19.1,0,0,1,.49,3.63h-9.76v3h11.28a1.44,1.44,0,0,0,1.07-.43,1.46,1.46,0,0,0,.44-1.07c0-1.09,0-2.1-.12-3A17.85,17.85,0,0,0,369.21,187Zm70.49-13h-3V191H425.06v-9.45A1.66,1.66,0,0,0,425,181a1.59,1.59,0,0,0-.32-.46,1.52,1.52,0,0,0-.48-.31,1.47,1.47,0,0,0-.57-.13L421,180l-2.61,0a5.16,5.16,0,0,0-2.55.53,6.75,6.75,0,0,0-2.08,1.51,7,7,0,0,0-1.38,2.1,5.66,5.66,0,0,0-.51,2.32V191H398l2.33-3.61a5.07,5.07,0,0,0,.93-2.77,4.22,4.22,0,0,0-.42-1.88,4.74,4.74,0,0,0-1.13-1.46,5.09,5.09,0,0,0-1.66-.94,5.48,5.48,0,0,0-2-.35h-3.82a5.54,5.54,0,0,0-2.13.39,5.12,5.12,0,0,0-1.64,1,4.61,4.61,0,0,0-1,1.45,4.26,4.26,0,0,0-.36,1.7,4.47,4.47,0,0,0,.21,1.39,5.48,5.48,0,0,0,.7,1.45l2.34,3.61H376.17V173.92h-3v18.45a.32.32,0,0,0,0,.14,1.43,1.43,0,0,0,.45,1.08,1.44,1.44,0,0,0,1,.43h63.57a1.46,1.46,0,0,0,1.06-.43,1.43,1.43,0,0,0,.45-1.08.32.32,0,0,0,0-.14ZM394.45,191h-.54l-3.4-5.24a2.14,2.14,0,0,1-.41-1.21,1.19,1.19,0,0,1,.18-.61,1.59,1.59,0,0,1,.47-.5,2.67,2.67,0,0,1,.7-.33,2.51,2.51,0,0,1,.82-.13h3.82a3.63,3.63,0,0,1,.78.1,2.57,2.57,0,0,1,.69.3,1.77,1.77,0,0,1,.52.5,1.18,1.18,0,0,1,.2.67,2.24,2.24,0,0,1-.42,1.21ZM422,191h-7.21v-4.56a2.94,2.94,0,0,1,.3-1.29,3.73,3.73,0,0,1,.77-1.09,4.07,4.07,0,0,1,1.1-.78,2.85,2.85,0,0,1,1.27-.3h.12l.52,0H422Zm22.09,3h3V173.92h-3Zm20.29-12a2.06,2.06,0,0,0-.15-.79,2,2,0,0,0-.43-.65,2.08,2.08,0,0,0-1.42-.58h-4.57a6.36,6.36,0,0,0-2.58.52,6.58,6.58,0,0,0-3.5,3.51,6.45,6.45,0,0,0-.51,2.55v5.47a1.35,1.35,0,0,0,.61,1.16,4.65,4.65,0,0,0,1.59.68,12.31,12.31,0,0,0,2.13.29c.78,0,1.52,0,2.26,0s1.39-.08,2-.16a7.73,7.73,0,0,0,1.28-.25l-.15.7a15.68,15.68,0,0,1-.77,1.9,6.06,6.06,0,0,1-1.11,1.55,4.69,4.69,0,0,1-1.64,1.06,6.57,6.57,0,0,1-2.33.45v3a11.07,11.07,0,0,0,3.55-.76,8.08,8.08,0,0,0,4.22-4,13.92,13.92,0,0,0,1-2.83,19,19,0,0,0,.48-3.18c.1-1.1.14-2.21.15-3.33s0-2.22,0-3.3S464.42,183,464.42,182Zm-2.9,8.83c-.61.13-1.23.21-1.85.28s-1.21.08-1.82.08h-.92c-.24,0-.49,0-.75-.05s-.54,0-.85-.1-.66-.12-1.06-.21l0-4.25a3.53,3.53,0,0,1,.28-1.37,3.47,3.47,0,0,1,.77-1.15,4,4,0,0,1,1.16-.78,3.43,3.43,0,0,1,1.39-.29l3.6,0c0,.56,0,1.17.05,1.82s0,1.33.06,2,0,1.37,0,2.06S461.56,190.23,461.52,190.85Zm24.16,2.38a3.41,3.41,0,0,1-.33,1.58,3.15,3.15,0,0,1-.89,1.11,3.82,3.82,0,0,1-1.27.65,5.22,5.22,0,0,1-2.93,0,3.59,3.59,0,0,1-1.26-.65,3.15,3.15,0,0,1-.89-1.11,3.44,3.44,0,0,1-.35-1.6v-6h-3v6a6.35,6.35,0,0,0,.61,2.84,5.93,5.93,0,0,0,1.56,2.07,6.57,6.57,0,0,0,2.24,1.25,7.7,7.7,0,0,0,5.13,0,6.76,6.76,0,0,0,2.25-1.24,6.35,6.35,0,0,0,1.59-2,6.49,6.49,0,0,0,.6-2.85V173.92h-3ZM505,182a1.9,1.9,0,0,0-.17-.79,2,2,0,0,0-.43-.65,1.83,1.83,0,0,0-.63-.42A1.89,1.89,0,0,0,503,180h-4.57a6.35,6.35,0,0,0-2.57.52,6.5,6.5,0,0,0-3.5,3.51,6.46,6.46,0,0,0-.52,2.55v5.47a1.35,1.35,0,0,0,.63,1.16,4.35,4.35,0,0,0,1.58.68,12,12,0,0,0,2.13.29c.77,0,1.52,0,2.26,0s1.38-.08,2-.16a8,8,0,0,0,1.28-.25l-.16.7a14.2,14.2,0,0,1-.76,1.9,5.64,5.64,0,0,1-1.12,1.55A4.6,4.6,0,0,1,498,199a6.51,6.51,0,0,1-2.32.45v3a11,11,0,0,0,3.54-.76,8.24,8.24,0,0,0,2.54-1.64,8.34,8.34,0,0,0,1.69-2.32,13.32,13.32,0,0,0,1-2.83,20.11,20.11,0,0,0,.49-3.18c.09-1.1.13-2.21.15-3.33s0-2.22,0-3.3S505,183,505,182Zm-2.92,8.83a18.54,18.54,0,0,1-1.84.28c-.6.05-1.21.08-1.82.08h-.92c-.24,0-.49,0-.75-.05s-.56,0-.86-.1-.65-.12-1.06-.21l0-4.25a3.72,3.72,0,0,1,.28-1.37,3.5,3.5,0,0,1,.78-1.15,3.71,3.71,0,0,1,1.15-.78,3.47,3.47,0,0,1,1.4-.29l3.6,0c0,.56,0,1.17,0,1.82l.06,2c0,.68,0,1.37,0,2.06S502.1,190.23,502.05,190.85Zm24.2-13.49a1.57,1.57,0,0,0,1.17-.47,1.67,1.67,0,0,0,0-2.34,1.58,1.58,0,0,0-1.17-.48,1.65,1.65,0,1,0,0,3.29Zm4.57,0a1.54,1.54,0,0,0,1.19-.48,1.6,1.6,0,0,0,.35-.51,1.54,1.54,0,0,0,.13-.65,1.57,1.57,0,0,0-.13-.65,1.64,1.64,0,0,0-.35-.52,1.49,1.49,0,0,0-.52-.35,1.67,1.67,0,0,0-.67-.13,1.53,1.53,0,0,0-1.15.48,1.69,1.69,0,0,0,0,2.34A1.52,1.52,0,0,0,530.82,177.36Zm14.37,20.43a1.55,1.55,0,0,0-.53-.34,1.67,1.67,0,0,0-1.29,0,1.61,1.61,0,0,0-.52.34,2,2,0,0,0-.35.53,1.79,1.79,0,0,0-.13.65,1.65,1.65,0,1,0,3.3,0,1.79,1.79,0,0,0-.13-.65A1.75,1.75,0,0,0,545.19,197.79Zm25.22-23.87h-3V191h-6.2V173.92h-3V191H545.87V180.57h-3V191H530.56V180.57h-3V191H515.84c0-.19,0-.39,0-.6s0-.44,0-.66v-.66c0-.21,0-.41,0-.59s0-.33,0-.65,0-.7,0-1.13,0-.86,0-1.34,0-.93,0-1.33,0-.78,0-1.08,0-.51,0-.6h-3c0,.37,0,.75,0,1.15s0,.82.07,1.24c0,.58,0,1.15,0,1.77s0,1.21,0,1.82c0,.87,0,1.73-.07,2.6a17.21,17.21,0,0,1-.3,2.51,12.55,12.55,0,0,1-.66,2.28,6.32,6.32,0,0,1-1.15,1.87,5.22,5.22,0,0,1-1.76,1.29,6.69,6.69,0,0,1-2.52.55v3a9.63,9.63,0,0,0,3.62-.73,8.13,8.13,0,0,0,2.62-1.81,10,10,0,0,0,1.74-2.66,15.92,15.92,0,0,0,1-3.26h53.52a1.47,1.47,0,0,0,1.07-.43,1.45,1.45,0,0,0,.44-1.08.23.23,0,0,0,0-.14Zm77.29,7.36a1.91,1.91,0,0,0-.42-.66,2,2,0,0,0-.63-.45,1.93,1.93,0,0,0-.79-.17h-4.54a6.09,6.09,0,0,0-2.79.6,5.92,5.92,0,0,0-2,1.57,6.5,6.5,0,0,0-1.22,2.26,8.1,8.1,0,0,0-.43,2.6,8.91,8.91,0,0,0,.24,1.91,10.52,10.52,0,0,0,.77,2.07h-9.52c-.2,0-.42,0-.65,0h-2v-.37a15.1,15.1,0,0,0-.79-3.75,10.71,10.71,0,0,0-1.45-2.78,8.54,8.54,0,0,0-1.95-1.94,9.89,9.89,0,0,0-2.23-1.25,11.71,11.71,0,0,0-2.35-.64,15.39,15.39,0,0,0-2.28-.18c-.45,0-.87,0-1.29.05s-.81.07-1.16.12a6.58,6.58,0,0,0-2.27,1,8.83,8.83,0,0,0-1.95,1.82,9.66,9.66,0,0,0-1.35,2.42,7.6,7.6,0,0,0-.51,2.74,3.57,3.57,0,0,0,.06.6c0,.22.07.47.12.71a7.39,7.39,0,0,0,.18.75c.06.25.13.49.19.73h-10.8a21.32,21.32,0,0,0-.68-4.69,7.35,7.35,0,0,0-3.24-4.63,8.92,8.92,0,0,0-2-.92,15.46,15.46,0,0,0-2.54-.55,27.05,27.05,0,0,0-3.12-.16c0,.55,0,1,0,1.48s0,.95,0,1.52a15.71,15.71,0,0,1,4.37.46,5.52,5.52,0,0,1,2.57,1.5,5.85,5.85,0,0,1,1.14,2.36,18.5,18.5,0,0,1,.48,3.61h-9.75v3h65.29a1.49,1.49,0,0,0,1.49-1.51V182.05A2.16,2.16,0,0,0,647.7,181.28Zm-35,6.38a5.49,5.49,0,0,1-.84,1.57,4.47,4.47,0,0,1-1.18,1.16,2.9,2.9,0,0,1-1.34.55,2.36,2.36,0,0,1-1-.25,2.28,2.28,0,0,1-.71-.63,2.43,2.43,0,0,1-.4-.86,4.17,4.17,0,0,1-.13-1c0-.15,0-.31,0-.45s0-.29,0-.42a6.93,6.93,0,0,1,.64-1.67,6.15,6.15,0,0,1,1-1.4,3.72,3.72,0,0,1,1.15-.86,1.51,1.51,0,0,1,1.13-.1,3.11,3.11,0,0,1,1.42,1,3.06,3.06,0,0,1,.56,1.58A5.13,5.13,0,0,1,612.75,187.66Zm1.68,3.35a10.43,10.43,0,0,0,1.24-2.56,8.38,8.38,0,0,0,.43-2.57,4.31,4.31,0,0,0-.05-.54c0-.22-.08-.44-.13-.67s-.1-.45-.15-.65a4.37,4.37,0,0,0-.13-.5l.7.27a6.77,6.77,0,0,1,1.6.83,5.12,5.12,0,0,1,1.33,1.37,8.09,8.09,0,0,1,1,2.09,12.39,12.39,0,0,1,.47,2.93Zm30.43,0h-3.54a3.67,3.67,0,0,1-1.13-.18,3.48,3.48,0,0,1-.9-.47,3.57,3.57,0,0,1-.68-.72,3.93,3.93,0,0,1-.45-.86,4.08,4.08,0,0,1-.23-.88,6.49,6.49,0,0,1-.07-.86,5.47,5.47,0,0,1,.2-1.46,3.79,3.79,0,0,1,.63-1.29,3.2,3.2,0,0,1,1.08-.91,3.14,3.14,0,0,1,1.55-.35h3.54Zm-2.58-13.65a1.59,1.59,0,0,0,1.18-.47,1.67,1.67,0,0,0,0-2.34,1.6,1.6,0,0,0-1.18-.48,1.52,1.52,0,0,0-1.16.48,1.69,1.69,0,0,0,0,2.34A1.52,1.52,0,0,0,642.28,177.36ZM671,180.47h-3.76a1.44,1.44,0,0,1-1.06-.41,1.34,1.34,0,0,1-.33-.85,1.31,1.31,0,0,1,.37-.89,1.49,1.49,0,0,1,1.17-.42h3.33v-2.18h-3.33a4,4,0,0,0-1.61.3,3.89,3.89,0,0,0-1.17.79,3.34,3.34,0,0,0-.71,1.11,3.8,3.8,0,0,0-.23,1.28,3.53,3.53,0,0,0,.05.66,2.43,2.43,0,0,0,.17.6h-1.13v2.19H671Zm60.13-6.55h-3V191H716.49v-9.45a1.66,1.66,0,0,0-.11-.58,1.59,1.59,0,0,0-.32-.46,1.33,1.33,0,0,0-.48-.31,1.4,1.4,0,0,0-.57-.13l-2.62,0-2.63,0a5.23,5.23,0,0,0-2.55.53,6.82,6.82,0,0,0-2.07,1.51,7.18,7.18,0,0,0-1.39,2.1,5.66,5.66,0,0,0-.51,2.32V191H691.58V173.92h-3V191H676.43V173.92h-3V191h-9.28a5.42,5.42,0,0,1-1.78-.29,2.73,2.73,0,0,1-1.08-.74,2.47,2.47,0,0,1-.54-1.07,6.35,6.35,0,0,1-.14-1.28,7.53,7.53,0,0,1,.2-1.78,8.14,8.14,0,0,1,.48-1.53l-.68-.35-.64-.33c-.21-.1-.42-.22-.63-.34l-.7-.37a10.28,10.28,0,0,0-.73,2.12,11.15,11.15,0,0,0-.29,2.53,8.11,8.11,0,0,0,.34,2.33A5.4,5.4,0,0,0,659.1,192a5.62,5.62,0,0,0,2,1.47,7.69,7.69,0,0,0,3.17.56h65.32a1.5,1.5,0,0,0,1.52-1.51.33.33,0,0,0,0-.14ZM713.47,191h-7.21v-4.56a3.08,3.08,0,0,1,.3-1.29,3.55,3.55,0,0,1,.77-1.09,4.18,4.18,0,0,1,1.09-.78,3,3,0,0,1,1.27-.3h.12l.52,0h3.14Zm22.09,3h3V173.92h-3Zm24-16.63a1.78,1.78,0,0,0,.65-.12,1.91,1.91,0,0,0,.53-.36,1.75,1.75,0,0,0,.34-.51,1.54,1.54,0,0,0,.12-.65,1.57,1.57,0,0,0-.12-.65,1.8,1.8,0,0,0-.34-.52,1.53,1.53,0,0,0-.53-.35,1.61,1.61,0,0,0-.65-.13,1.65,1.65,0,1,0,0,3.29Zm-4.63,0a1.78,1.78,0,0,0,.65-.12,2.07,2.07,0,0,0,.53-.36,1.78,1.78,0,0,0,.35-.51,1.54,1.54,0,0,0,.13-.65,1.57,1.57,0,0,0-.13-.65,1.83,1.83,0,0,0-.35-.52,1.63,1.63,0,0,0-.53-.35,1.61,1.61,0,0,0-.65-.13,1.54,1.54,0,0,0-1.16.48,1.67,1.67,0,0,0,0,2.34A1.53,1.53,0,0,0,754.92,177.36Zm56,3.16a1.42,1.42,0,0,0-.48-.31,1.33,1.33,0,0,0-.57-.13l-2.62,0-2.61,0a5.17,5.17,0,0,0-2.54.53A7,7,0,0,0,800,182a7.35,7.35,0,0,0-1.38,2.1,5.83,5.83,0,0,0-.51,2.32V191H784.34l2.32-3.61a5,5,0,0,0,.94-2.77,4.22,4.22,0,0,0-.42-1.88,4.71,4.71,0,0,0-1.12-1.46,5.42,5.42,0,0,0-1.66-.94,5.56,5.56,0,0,0-2-.35h-3.83a5.63,5.63,0,0,0-2.14.39,5.25,5.25,0,0,0-1.62,1,4.49,4.49,0,0,0-1.05,1.45,4.11,4.11,0,0,0-.37,1.7,4.48,4.48,0,0,0,.22,1.39,6.18,6.18,0,0,0,.7,1.45l2.35,3.61h-13.8l-.07-9.08a1.88,1.88,0,0,0-.19-.74,2.53,2.53,0,0,0-.43-.62,2,2,0,0,0-.63-.41,1.81,1.81,0,0,0-.75-.16h-4.56a6.31,6.31,0,0,0-2.57.52,6.82,6.82,0,0,0-2.09,1.41,6.67,6.67,0,0,0-1.92,4.65V192a1.51,1.51,0,0,0,.3.94,1.29,1.29,0,0,0,.8.5,13,13,0,0,0,1.67.33,14.28,14.28,0,0,0,1.79.14,19,19,0,0,0,1.95-.07c.68,0,1.42-.15,2.21-.27,0-.53-.09-1-.14-1.47s-.08-1-.12-1.52c-.81.16-1.46.28-2,.36a9.87,9.87,0,0,1-1.32.11,8.2,8.2,0,0,1-1-.07c-.31-.05-.7-.12-1.13-.16l0-4.27a3.72,3.72,0,0,1,.27-1.37,3.6,3.6,0,0,1,.78-1.15,4,4,0,0,1,1.15-.78,3.54,3.54,0,0,1,1.38-.28l3.6,0,0,9.34a1.77,1.77,0,0,0,.4,1.17,1.32,1.32,0,0,0,1.11.48h48.51a1.35,1.35,0,0,0,1.1-.48,1.91,1.91,0,0,0,.39-1.19V181.56a1.67,1.67,0,0,0-.12-.58A1.59,1.59,0,0,0,810.94,180.52ZM780.76,191h-.54l-3.41-5.24a2.29,2.29,0,0,1-.4-1.21,1.28,1.28,0,0,1,.17-.61,1.9,1.9,0,0,1,.48-.5,3,3,0,0,1,.7-.33,2.51,2.51,0,0,1,.82-.13h3.83a3.54,3.54,0,0,1,.77.1,2.57,2.57,0,0,1,.69.3,1.44,1.44,0,0,1,.51.5,1.05,1.05,0,0,1,.21.67,2.24,2.24,0,0,1-.42,1.21Zm27.6,0h-7.19v-4.56a2.81,2.81,0,0,1,.3-1.29,3.93,3.93,0,0,1,.77-1.09,3.87,3.87,0,0,1,1.09-.78,2.89,2.89,0,0,1,1.27-.3h.12l.51,0h3.13Zm27.18,6.87a1.4,1.4,0,0,0-.53-.35,1.71,1.71,0,0,0-.65-.13,1.59,1.59,0,0,0-1.15.48,1.61,1.61,0,0,0-.48,1.18,1.56,1.56,0,0,0,.48,1.17,1.55,1.55,0,0,0,1.15.47,1.71,1.71,0,0,0,.65-.13,1.42,1.42,0,0,0,.53-.36,1.12,1.12,0,0,0,.35-.51,1.39,1.39,0,0,0,.14-.64,1.46,1.46,0,0,0-.14-.65A1.29,1.29,0,0,0,835.54,197.88Zm6.63-6.87a16.17,16.17,0,0,0-.65-4.4,9.92,9.92,0,0,0-1.46-3,7.16,7.16,0,0,0-2.06-1.85,9.85,9.85,0,0,0-2.42-1,13.39,13.39,0,0,0-2.58-.44c-.87-.06-1.7-.11-2.49-.14l-.85,0c-.21,0-.47,0-.77,0l-.25,3a4.09,4.09,0,0,0,.5,0h.56c.58,0,1.22,0,1.9,0a12.71,12.71,0,0,1,2,.28,8.5,8.5,0,0,1,2,.7,6.17,6.17,0,0,1,1.69,1.36,7.17,7.17,0,0,1,1.24,2.21,11.12,11.12,0,0,1,.6,3.3H817.8V173.92h-3v18.45a.32.32,0,0,0,0,.14,1.43,1.43,0,0,0,.45,1.08,1.46,1.46,0,0,0,1.06.43h27.41v-3Z"/><polygon class="cls-1" points="298.37 234.81 285.94 228.63 285.54 229.54 297.85 236 298.37 234.81"/><path class="cls-1" d="M272.31,133.13H211.54l-43,43v60.79l43,43h60.77l43-43V176.1Zm38.15,101.53-40.79,40.72H213.49l-40.14-40.17,0-57,40.18-40.44h56.95l39.84,39.81Z"/><path class="cls-1" d="M236.77,170.13a29,29,0,0,1,4.64-.42v-1.06c0-1.26-.6-1.89-2.13-1.83,0,0-1,.29-1.36-.21a1.35,1.35,0,0,1-.36.85,3.77,3.77,0,0,1-.85.7s1.36-.28,1.7-.28c.64,0,2-.49,1.91.85h0a37.11,37.11,0,0,0-3.7.42Z"/><path class="cls-1" d="M243.46,166.61h-.28l0,4.57h0c-.06,1.54-1.51.84-1.59.78a1.41,1.41,0,0,0,2.58-.85l.22-5.13A1.15,1.15,0,0,1,243.46,166.61Z"/><path class="cls-1" d="M243.81,164.36a.67.67,0,0,0,.68-.62.66.66,0,0,0-.59-.7.67.67,0,0,0-.68.63A.66.66,0,0,0,243.81,164.36Z"/><path class="cls-1" d="M256.15,169.15c-.09,0-.16-.08-.25-.08l-1.6,4.29h0c-.59,1.4-1.71.2-1.75.14a1.4,1.4,0,0,0,2.7.14l2-4.71A1.22,1.22,0,0,1,256.15,169.15Z"/><path class="cls-1" d="M250.23,172.65a.64.64,0,0,0,.69-.63.6.6,0,0,0-.61-.63.59.59,0,0,0-.69.57A.62.62,0,0,0,250.23,172.65Z"/><path class="cls-1" d="M255.32,167.11s-.45.77-1.72.41a1,1,0,0,1,.16.85c-.06.14-.35,1-.65,1.89a43,43,0,0,0-5.28-1.19,5,5,0,0,0,.8-1.12,3.81,3.81,0,0,0,.27-2.11c0,.56-.24,2.6-3.51,4,0,0,2.1-.14,8.44,1.75Z"/><path class="cls-1" d="M271.29,179.31l-1.91-2c-.57-.5-.81-.21-1.44.42L266.86,179l1.66,1.55-.95.91h0c-1.07,1-1.62-.49-1.62-.56a1.39,1.39,0,0,0,2.36,1.2Zm-3-.48.34-.27a.44.44,0,0,1,.72-.08l.59.63-.69.7Z"/><path class="cls-1" d="M267,172.09a.64.64,0,0,0,.65-.63.73.73,0,0,0-.64-.7.68.68,0,0,0-.67.7A.65.65,0,0,0,267,172.09Z"/><path class="cls-1" d="M269,173.5a.66.66,0,0,0,.67-.63.64.64,0,0,0-.65-.64.64.64,0,1,0,0,1.27Z"/><path class="cls-1" d="M266.51,172.72c-.62-.42-.95-.34-1.47.42l-.86,1.34,1.78,1.33-.49.64c-.7-.5-2.88-2-4-2.6l2.68-4.85a2.89,2.89,0,0,1-1.95.28.32.32,0,0,1,.15.49c-.05.08-2.47,4.85-2.49,4.92a1.3,1.3,0,0,1-1.85.63,1.47,1.47,0,0,1-.8-1.68,2.53,2.53,0,0,1,1.66-2s.21.35.64.07a1.81,1.81,0,0,0,.52-1c-.6.35-2.66,1.33-3.12,2.6a2.11,2.11,0,0,0,3.75,1.89l.3-.49a26.43,26.43,0,0,1,4.66,3.16l2.92-3.65Zm-.94,1.55.24-.42c.22-.29.32-.29.62-.07l.68.49-.56.77Z"/><path class="cls-1" d="M234,165.21a.65.65,0,0,0,.59-.7.59.59,0,0,0-.69-.56.63.63,0,1,0,.1,1.26Z"/><path class="cls-1" d="M227.56,175.11a.65.65,0,0,0,.6-.7.73.73,0,0,0-.7-.63.68.68,0,0,0-.6.7A.65.65,0,0,0,227.56,175.11Z"/><path class="cls-1" d="M229.53,174.13a.65.65,0,0,0,.59-.7.59.59,0,0,0-.7-.56.62.62,0,0,0-.6.69A.61.61,0,0,0,229.53,174.13Z"/><path class="cls-1" d="M234.32,169.56c-1,.21-2.06.49-2.06.49L230,167.6a1.14,1.14,0,0,0-1-.42,4.33,4.33,0,0,0-1.53.77c-.38.27-.67.78-.3,1.2l1.79,2a32.25,32.25,0,0,0-4,1.76,4.53,4.53,0,0,0,0-1.34,3.45,3.45,0,0,0-1.06-1.83c.32.43,1.35,2.19-.4,5.27,0,0,1.85-1.54,7.25-3.51l-2.63-2.8a1.33,1.33,0,0,1,1-.51l2.74,3c1-.21,2.49-.56,3.65-.77l-.65-4.15a1.79,1.79,0,0,1-.6,1,6.92,6.92,0,0,0-.93.36s.58-.29.79.7Z"/><path class="cls-1" d="M222.26,175.74h-.84c-.74,0-.88-.49-.88-.49a1,1,0,0,1-1.3.63,1.29,1.29,0,0,1-.93-1.33c0-.84.74-1.41,1.32-1.12-.07.28.1.56.28.56s.56,0,.54-.35a.48.48,0,0,0-.36-.43,1.87,1.87,0,0,0-2.34,1.55,1.65,1.65,0,0,0,1.42,1.82c-.45.36-.89.71-1.27,1.06l-3.81-4.35a2.46,2.46,0,0,1-.41,1.61.28.28,0,0,1,.43.06c.18.22,2,2.18,3,3.31-.37.35-.65.64-.85.84a1.93,1.93,0,0,0-.64-.14,1.7,1.7,0,0,0-1.79,1.55,1.5,1.5,0,0,0,.23.91,6.67,6.67,0,0,1-.67.84l-4.58-3.51a2.53,2.53,0,0,1-.09,1.68.28.28,0,0,1,.45-.06c.29.28,4.42,3.3,4.42,3.3l.21-.29s.1-.07.12-.07.52-.7.91-1.19a1.34,1.34,0,0,0,.52.14,1.67,1.67,0,0,0,1.78-1.54,1.52,1.52,0,0,0-.17-.85A29.33,29.33,0,0,1,222.26,175.74Zm-6.77,5.48a.65.65,0,0,1-.55-.63.6.6,0,0,1,.64-.57.55.55,0,0,1,.52.64A.58.58,0,0,1,215.49,181.22Z"/><path class="cls-1" d="M209.63,178.13a5.38,5.38,0,0,0,2-2.46h.27a2.14,2.14,0,0,1-.66,1.55A2.66,2.66,0,0,1,209.63,178.13Z"/><path class="cls-1" d="M210.38,178.76a5.76,5.76,0,0,0,2-2.53h.27a2.09,2.09,0,0,1-.66,1.54A3,3,0,0,1,210.38,178.76Z"/><path class="cls-1" d="M235.28,145.41c-.07-.56.41-.56.41-.56a3.48,3.48,0,0,1-2.2-1.2l1.37,10a.61.61,0,0,1-.49.71.57.57,0,0,1-.7-.5L232,143.94a3.76,3.76,0,0,1-1.73,1.82s.44-.21.55.35c0,.21.5,2.67.91,4.84-.79.15-1.58.36-2.32.57l-.67-3.16a3.8,3.8,0,0,1-1.61,2s.42-.2.54.36c.06.21.2.77.3,1.19-.61.21-1.26.35-1.82.49l-.87-3a3.71,3.71,0,0,1-1.5,2s.4-.21.56.35c.07.21.44,1.19.44,1.19a11.22,11.22,0,0,0-1.64.49l-1-2.88a3.85,3.85,0,0,1-1.43,2,.41.41,0,0,1,.59.29c0,.13,1.84,5,1.84,5a1.1,1.1,0,0,1-1.07,1.47,1,1,0,0,1-.42-.13,1.49,1.49,0,0,0,.9.27,1.79,1.79,0,0,0,1.89-2.25l-.78-2.31A47.24,47.24,0,0,1,232,152.5c.19.91.34,1.54.34,1.54a2,2,0,0,0,1.66,1.62c.46,0,.62.64.62.64a1.49,1.49,0,0,1,.32-.85,1.85,1.85,0,0,0,1.24-1.9v.07S235.33,145.76,235.28,145.41Z"/><path class="cls-1" d="M254.94,145.2a.89.89,0,0,0,.87-.91.83.83,0,0,0-.87-.84.85.85,0,0,0-.89.84A.92.92,0,0,0,254.94,145.2Z"/><path class="cls-1" d="M284.47,171.18l-.86-1.13,6.23-5.47a3.89,3.89,0,0,0,.22,2.53.4.4,0,0,0-.66-.07C289,167.39,284.47,171.18,284.47,171.18Z"/><path class="cls-1" d="M201.58,169.63l-.91,1.13-6.33-5.48a3.9,3.9,0,0,0,2.47-.56s-.36.28,0,.7Z"/><path class="cls-1" d="M223.36,147.45a.9.9,0,0,0,.86-.91.86.86,0,0,0-1.71,0A.9.9,0,0,0,223.36,147.45Z"/><path class="cls-1" d="M224.08,149.62a.83.83,0,0,0,.87-.84.87.87,0,1,0-1.73,0A.83.83,0,0,0,224.08,149.62Z"/><path class="cls-1" d="M229.8,157.28a.82.82,0,0,0,.85-.85.85.85,0,1,0-1.7,0A.83.83,0,0,0,229.8,157.28Z"/><path class="cls-1" d="M188.29,196.87a40.65,40.65,0,0,1,1.51-6.52l-1.48-.5a3.07,3.07,0,0,0-3.75,2.11s-.23,1.83-.92,1.91a2.14,2.14,0,0,1,1,.9,5.32,5.32,0,0,1,.57,1.54s.41-2,.53-2.52c.29-.91.29-3.09,2.16-2.32h0a38.26,38.26,0,0,0-1.18,5.13Z"/><path class="cls-1" d="M217.85,151.52a2,2,0,0,1-.91,1.4c-1.89.91-2.08,2.32-1.56,3.44l.9,1.76,2.34-1.19.78,1.68,0,.07c.81,1.82-1.39,1.89-1.52,1.82a1.9,1.9,0,0,0,2.66-2.53Zm-1.08,4.56a1.3,1.3,0,0,1-.22-1.12c.13-.28.83-.7.83-.7l.58,1.26Z"/><path class="cls-1" d="M202.55,161.42a2,2,0,0,1-.44,1.62c-1.52,1.47-1.28,2.87-.43,3.78l1.38,1.4,1.86-2,1.27,1.41h0c1.35,1.54-.72,2.31-.88,2.31a1.94,1.94,0,0,0,1.76-3.29Zm.36,4.7a1.31,1.31,0,0,1-.55-1c0-.35.58-1,.58-1l.93,1Z"/><path class="cls-1" d="M211.14,153.69c-.29-.49.15-.63.15-.63a3.69,3.69,0,0,1-2.47-.21l3.47,5.83c-.91.56-2.31,1.61-3.72,2.67a6.27,6.27,0,0,0-.56-1.76,3.05,3.05,0,0,0-1.53-1.12c.57.57,2.07,2.38.62,6,0,0,1.39-1.55,7.19-5.2Z"/><path class="cls-1" d="M260.78,145.9a1.64,1.64,0,0,1-1.54.42c-2.05-.49-3.1.42-3.43,1.68l-.41,1.9,2.57.63-1,3.58s-.17,1.34-.87,1.2-.3-1.4-.3-1.4l.49-2.17s-2.81-.64-3.21-.71a3.84,3.84,0,0,0-.53-2.95c-.87-1.19-1.71-1.19-1.71-1.19l.43-3.24a2.53,2.53,0,0,1-2.42,1.48h0a.79.79,0,0,1,.69,1l-.07.63a3.08,3.08,0,0,0-2.24.85,4.14,4.14,0,0,0-1,2.53s-.81-.08-1-.08l0-1.19a2.62,2.62,0,0,0-2.75-2.17s-1.94.21-2.41-.5a1.63,1.63,0,0,1-.43,1.06,3.48,3.48,0,0,1-1.17.76,23.89,23.89,0,0,1,2.45-.06c1.65.14,3-.35,3,2,0,.07-5.39.22-5.39.22l.08,1.54a59.26,59.26,0,0,1,7.6-.07v2s.07,1.83,1.66,2a1.84,1.84,0,0,0,2.05-1.61l.27-1.9c1,.21,3,.56,4.53.91l-.22,1.34a2,2,0,0,0,1.08,2.24.68.68,0,0,1,.08.63,1.35,1.35,0,0,1,.5-.48c1.11.14,1.55-.5,1.84-1.48C257.92,155.17,260.62,146.39,260.78,145.9Zm-12.2,7.93a.61.61,0,0,1-.64.5c-.42,0-.64-.64-.64-.64l.08-1.95,1.43.13Zm.41-3.51-1.46-.13c.08-1.06.65-2,1.72-2Zm2.83.49-1.48-.28.24-2.24a2.24,2.24,0,0,1,1.21,1.06A3,3,0,0,1,251.82,150.81Zm5.22-2.17a1.49,1.49,0,0,1,.56-1,1.89,1.89,0,0,1,1.18.08l-.38,1.34Z"/><path class="cls-1" d="M182.11,199.9a4.09,4.09,0,0,1,1.4,1,1.7,1.7,0,0,1,2.9,1,1.63,1.63,0,0,1-1.72,1.82c-.48,0-1.21.06-2.83-1.62-1.77-1.75-2.58-1.19-2.91-.84h0a.73.73,0,0,0-.17.49.8.8,0,0,0,.8.77.88.88,0,0,0,.76-.84,1,1,0,0,0-.11-.35c.39.07.56.21,1.3,1.06,1.56,1.68,2.65,2,3.44,2a2.76,2.76,0,0,0,2.58-2.81,2.88,2.88,0,0,0-2.93-2.74A3.25,3.25,0,0,0,182.11,199.9Z"/><path class="cls-1" d="M285.54,162s.39.28,0,.71c-.58.56-3.4,3.51-3.4,3.51-.23-.22-.72-.71-1.33-1.2a2.43,2.43,0,0,0,.11-.7,4.05,4.05,0,0,0-.36-1.34.94.94,0,0,1,0-.84.88.88,0,0,1-.91.14,4.06,4.06,0,0,0-1-.28,2.14,2.14,0,0,0-1.12.34c-.4-.27-1.82-1.32-1.82-1.32l4.05-5.69a3.6,3.6,0,0,1-2.49,0,.41.41,0,0,1,.13.64c-.25.35-4.24,6.31-4.24,6.31a.58.58,0,0,1-.84.21.61.61,0,0,1-.17-.84l2.05-3.3a2,2,0,0,0-.86-2.88,79.79,79.79,0,0,0-9.15-4.35l7.55,1.61c1,.28,1.12.63,1.18.78,0,0,.37-1.27,2.45-1.13l-12.25-2.66-.75,2.17a83.69,83.69,0,0,1,8.8,3.93c1.08.63,2.38,1.06,1.19,2.88a64.35,64.35,0,0,0-9.85-5s-1.05-.28-1.1-.84c0,0-.24,1.41-2.25,1.19a49,49,0,0,1,12.46,5.84l-.6,1a2.13,2.13,0,0,0,.16,2.4c.31.28.07.84.07.84a.94.94,0,0,1,.75-.35,1.7,1.7,0,0,0,2.13-.57h0l.81-1.12.79.7.84.63a2.4,2.4,0,0,0-.18.85,2.23,2.23,0,0,0,2.23,2.24,2.07,2.07,0,0,0,1.12-.27c.46.41.79.7.81.7l1.35,1.4,6-5.83A3.51,3.51,0,0,1,285.54,162Zm-6.88,3.23a.94.94,0,0,1-.92-1,.93.93,0,1,1,1.86.07A.93.93,0,0,1,278.66,165.21Z"/><path class="cls-1" d="M294.28,201.23a.88.88,0,0,0,.84-.91.83.83,0,0,0-.84-.85.85.85,0,0,0-.86.85A.9.9,0,0,0,294.28,201.23Z"/><path class="cls-1" d="M300.72,198.07a6.79,6.79,0,0,1-1.1-1.12s.33,1.9.36,2.38c.07,1.06.77,3-1.24,3v-.07c-.3-3.59-1.26-8.29-1.26-8.29s6.5-1.69,6.5-1.69a4.1,4.1,0,0,1-1.87-1.68.61.61,0,0,1-.47.63l-6,1.54c.11.43.23.85.35,1.41h0a59.4,59.4,0,0,1,1.35,9.83l1.54-.07a2.92,2.92,0,0,0,2.8-3.16,2.75,2.75,0,0,1,.25-2.25A1.81,1.81,0,0,1,300.72,198.07Z"/><path class="cls-1" d="M292.23,169.77a.88.88,0,0,0,0-1.75.88.88,0,0,0,0,1.75Z"/><path class="cls-1" d="M294.27,172.65a.86.86,0,0,0,.87-.84.85.85,0,0,0-.83-.91.85.85,0,0,0-.87.84A.85.85,0,0,0,294.27,172.65Z"/><path class="cls-1" d="M299.09,188.45c-.51-1.34-1.85-2.95-3.83-2-.2-.57-1.56-3.52-1.84-4.22a5.49,5.49,0,0,1,2.11,1.19,2.51,2.51,0,0,0,.71-2.1,1.26,1.26,0,0,0,.24-.77c-.17-.91.29-1.13.29-1.13s-.53.22-1.11-.48a1.42,1.42,0,0,0-.68-.29,2.22,2.22,0,0,0-2.49-.56,4.49,4.49,0,0,1-.14,2.1c-1.51-2.59-2.42-4.06-2.42-4.06l1.65-1.14,2.73-1.75a3.84,3.84,0,0,1-2.3-1,.53.53,0,0,1-.25.71c-.08.07-.24.13-.44.27-1.34-1.68-2.86-2.45-5.34-.42a75.43,75.43,0,0,1,5.35,8.57l.8.35-.19.84a63,63,0,0,1,3.32,8.36l5-1.47A1.63,1.63,0,0,1,299.09,188.45Zm-5.46-9.27a1.73,1.73,0,0,1,1.3,1,2.14,2.14,0,0,1,.09,1.62,4,4,0,0,0-1.55-.77A4.77,4.77,0,0,0,293.63,179.18Zm-5.58-5.82c.89-.57,1.56-.07,2,.7l-1,.77Zm8.13,15.86-.48-1.4a1.26,1.26,0,0,1,1.39-.07,1.79,1.79,0,0,1,.72,1Z"/><path class="cls-1" d="M199.55,172l-6.31-5.41a4,4,0,0,1-.18,2.54.4.4,0,0,1,.65-.08l3.81,3.09-1.2,1.55h0c-.17,0-.34-.07-.52-.07a2.41,2.41,0,0,0-1.56.63,1,1,0,0,1-.68,0,.89.89,0,0,1,.21.69,2.14,2.14,0,0,0-.2.92,2.09,2.09,0,0,0,.48,1.34c-.35.63-1.64,2.74-1.65,2.66a15.94,15.94,0,0,1,.07-1.89,2.28,2.28,0,0,0-2.58.49c-.36-.07-.72.21-1,.63a1,1,0,0,1-.72.07,1.07,1.07,0,0,1,.31.7,1.39,1.39,0,0,0,.06,1.06,2.32,2.32,0,0,0,1,2.45,7,7,0,0,1,1.62-1s-1,2.11-1.41,3.44l-6.33-2.39a3.83,3.83,0,0,1,.67,2.39s.06-.42.57-.28,6,2.11,6,2.11,1.53-3.86,2.09-5.13l-.28-.91,1-.28c.62-1.19,1.2-2.25,1.7-3.09l.09-.21a1.15,1.15,0,0,0,.48.07,2.24,2.24,0,0,0,2.23-2.18,2.11,2.11,0,0,0-.41-1.26Zm-8.84,9.2a2.16,2.16,0,0,0-.81.63,2,2,0,0,1,0-1.75,2.23,2.23,0,0,1,1.37-1.06,6.14,6.14,0,0,0,0,1.06c0,.34.1.84.1.84A7.1,7.1,0,0,0,190.71,181.22Zm5.09-4.43a.91.91,0,0,1-.9-.91.92.92,0,1,1,.9.91Z"/><path class="cls-1" d="M292.22,244.85l-5-3.72.41-.49-.87-.63-.37.49L284.48,239l-.64.76,1.91,1.55-.71.91c-.29.36-.85-.13-.85-.13l-3.13-2.6a.66.66,0,0,1-.32-.78l1.26-1.62-.83-.63-1.5,1.9a.92.92,0,0,0,.17,1.4l3.89,3.38c.57.48.85.34,1.12.14a.72.72,0,0,0,.26,1.05l3.71,3.3a1,1,0,0,0,1.42-.28Zm-1.68.7c0,.07-.48.63-.48.63a.68.68,0,0,1-.93.15l-2.87-2.46c-.49-.42-.56-.56-.42-.77l.77-1.06,3.52,2.81C290.37,245.07,290.79,245.21,290.54,245.55Z"/><path class="cls-1" d="M295.36,208l-3.14-.14c-.57,0-1,.28-1,1.75-.16,1.48.22,1.69.94,1.83l4.32.35s.44.14,1.16-.84l1.1-1.54c.33-.36.73-.29,1.76-.22l2.71.14c.31.08.67.14.66.56l-.11,1c0,.42-.28.56-.77.42L300,211l-.07,1.13,3.81.41a1.14,1.14,0,0,0,1.2-1.2l.13-1.89c0-.84-.47-1.19-1.33-1.26l-4.25-.14c-.69,0-1.17,0-1.36.35l-1.27,1.69c-.6.84-.93.55-.93.55l-2.88-.13c-.68,0-.88-.21-.79-.92s.13-.84.94-.76l2.06.13Z"/><polygon class="cls-1" points="301.91 226.22 300.74 225.87 300.29 227.13 295.61 225.44 295.94 224.47 294.9 224.12 294.56 225.03 289.4 223.2 289.71 222.23 288.77 221.88 288.1 223.76 301.04 228.67 301.91 226.22"/><polygon class="cls-1" points="304.74 213.2 303.71 213.13 303.53 214.61 290.89 212.92 290.73 213.83 304.37 215.87 304.74 213.2"/><polygon class="cls-1" points="297.28 237.14 285.11 230.47 284.67 231.31 290.21 235.87 283.53 233.2 282.97 234.04 294.5 241.69 295.21 240.72 287.91 236.01 295.97 239.31 289.07 233.83 296.67 238.12 297.28 237.14"/><path class="cls-1" d="M297.7,221l5.31,1.4.34-1.19-5.69-1.41s-.76,0-1,.42c-.05-.27-.13-.84-.84-.84l-4.81-1.12s-1.12-.42-1.34.49l-.77,2.53,13.23,4.21.36-1.19-6-1.76.34-1.26C297,220.88,297.35,221,297.7,221Zm-2.22,1.19-5.13-1.47.26-1.05s0-.57.61-.36,4.09,1,4.09,1,.7.15.57.64Z"/><polygon class="cls-1" points="286.4 227.66 298.93 233.7 299.44 232.58 290.1 228.36 300.08 230.89 300.58 229.76 287.73 224.57 287.32 225.48 294.47 228.5 286.76 226.75 286.4 227.66"/><path class="cls-1" d="M304,217.51l.18-1-13.83-1.12-.23,1,13.26,4.21.27-1.2-3.15-.83.28-1.34Zm-4.35.84-6.92-2,7.15.76Z"/><polygon class="cls-1" points="193.34 212.11 193.44 213.1 179.81 214.86 179.68 213.59 193.34 212.11"/><polygon class="cls-1" points="193.67 213.79 179.98 215.83 180.16 216.96 189.76 215.34 180.46 218.92 180.64 220.04 194.28 217.02 194.09 216.18 185.53 217.87 193.83 214.72 193.67 213.79"/><polygon class="cls-1" points="179.64 213.1 186.18 209.93 193.3 211.69 193.2 210.71 187.72 209.37 193.16 209.16 193.13 208.25 179.3 208.66 179.32 209.87 184.71 209.51 179.53 211.9 179.64 213.1"/><path class="cls-1" d="M187.42,223.91l-.53-1.89-1,.27.24.84-2.56.85a.83.83,0,0,1-.94-.56l-.2-.84c-.14-.5.32-.64.73-.7l9.67-2.53c.66-.14.89-.14,1.12.77.19.69-.21.91-.74,1l-2.86.84.28,1,3.65-1.12c.75-.22,1.14-.5.69-2.05s-.69-1.68-1.62-1.47l-11,2.6c-.89.28-1.34.63-1.09,1.69,0,0,.32,1.69,1.3,1.61l-.72.21.37,1.19Z"/><path class="cls-1" d="M272.88,245l7.24,9.2c.39.57.47.84.19,1.13l-.65.55c-.44.28-.77,0-1.12-.49l-7-9.4-.78.56,7.38,10.38a1,1,0,0,0,1.47.36l1.78-1.41c.52-.42.89-.77.35-1.54l-8.2-9.89Z"/><path class="cls-1" d="M241.6,256.84c0-.71-.12-1.19-1.72-1.27s-1.88.28-1.91,1.05l-1.11,11.52c-.05.85.65,1.19,1.51,1.19l1.69.07c.85.07,1.28-.28,1.33-1.11Zm-2.12,11.51-.88-.06c-.44,0-.54-.5-.53-.92l.74-9.9c.07-.63.16-.91,1.05-.85.72.08.81.28.78.92l-.35,10.11A.77.77,0,0,1,239.48,268.35Z"/><path class="cls-1" d="M266.36,250.72c-.37-.63-.73-1-2.14-.27s-1.47,1.19-1.14,1.9l4.7,10.53c.39.76,1.14.7,1.92.34l1.51-.77c.77-.42.92-.83.56-1.61Zm3.81,11.1-.81.35c-.39.14-.64-.14-.84-.55l-4.3-9c-.27-.64-.3-.85.51-1.27.65-.28.84-.14,1.14.49l4.51,8.92A.75.75,0,0,1,270.17,261.82Z"/><polygon class="cls-1" points="244.65 263.3 244.62 262.11 243.65 262.17 243.53 256.77 244.74 256.77 244.69 255.65 242.62 255.72 242.58 269.55 243.76 269.55 243.67 263.37 244.65 263.3"/><path class="cls-1" d="M253.13,260.91l-1-5.26s-.15-1-1.07-.78l-2.61.49L250,269l1.28-.22-.87-6.1,2-.43S253.4,262.24,253.13,260.91Zm-1.61.36-1.29.28-.68-5.34.84-.15c.43-.14.72,0,.76.29l.77,4.21S252,261.18,251.52,261.27Z"/><polygon class="cls-1" points="258.09 267.44 257.85 266.46 256.42 266.8 255.27 261.82 256.24 261.55 255.97 260.49 255.02 260.7 253.78 255.36 254.88 255.08 254.64 254.03 252.59 254.59 255.43 268.14 258.09 267.44"/><polygon class="cls-1" points="278.23 258.24 277.66 257.4 276.37 258.24 273.47 253.96 274.33 253.26 273.77 252.41 272.88 253.04 269.83 248.41 270.95 247.64 270.41 246.79 268.52 248.06 275.91 259.86 278.23 258.24"/><polygon class="cls-1" points="275.52 260.07 274.95 259.08 273.68 259.86 267.27 248.83 266.46 249.32 273.18 261.4 275.52 260.07"/><polygon class="cls-1" points="261.29 266.53 257.45 254.38 258.36 254.1 258.06 253.12 255.18 253.96 255.48 255.01 256.49 254.66 260.11 266.88 261.29 266.53"/><polygon class="cls-1" points="287.17 250.59 277.36 240.82 276.61 241.53 280.63 247.57 275.12 243.08 274.29 243.85 283.28 254.31 284.19 253.46 278.49 246.94 285.26 252.56 280.21 245.18 286.32 251.43 287.17 250.59"/><path class="cls-1" d="M264.06,259.72l2,5,1.17-.42-2.4-5.69a1.09,1.09,0,0,0-.8-.2.82.82,0,0,0,.15-1.2l-1.93-4.49s-.34-1.2-1.2-.78l-2.5.91L263.13,266l1.17-.42-2.14-5.9,1.2-.42C263.78,259.08,263.92,259.37,264.06,259.72Zm-2.3-1.06-1.85-5,1-.42s.46-.36.68.28l1.57,3.93s.26.56-.22.7Z"/><path class="cls-1" d="M222.85,256.13l1.2-2.87c.2-.57.11-1-1.32-1.62-1.28-.63-1.63-.35-2,.35l-1.86,3.86s-.25.43.4,1.41l1.06,1.55c.33.56.09.76-.11,1.19l-1.35,3.08a.54.54,0,0,1-.79.35l-.86-.42c-.39-.13-.31-.42-.1-.9l1.2-2.6-1-.5-1.67,3.52a1.07,1.07,0,0,0,.69,1.47l1.71.77a1.19,1.19,0,0,0,1.73-.7L221.4,260a1.47,1.47,0,0,0-.05-1.62l-1-1.48c-.62-.91-.28-1.12-.28-1.12l1.17-2.59c.29-.63.58-.71,1.12-.5s.76.43.45,1.2l-.85,1.89Z"/><path class="cls-1" d="M206.32,240l-8.77,8.15c-.44.43-.72.56-1,.28l-.66-.84c-.3-.28-.23-.56.23-1l9.09-7.79-.58-.71-9.78,8.15a1,1,0,0,0-.14,1.47l1.25,1.41c.59.69,1.07.83,1.71.27l9.25-8.77Z"/><polygon class="cls-1" points="209.31 260.35 209.84 259.43 208.5 258.59 211.42 254.31 212.2 254.8 212.82 253.89 212.05 253.32 215.06 248.83 216.15 249.54 216.71 248.62 214.86 247.43 206.92 258.74 209.31 260.35"/><polygon class="cls-1" points="225.29 267.3 228.77 254.94 229.98 255.22 230.23 254.24 227.02 253.32 226.69 254.38 227.84 254.74 224.16 266.94 225.29 267.3"/><path class="cls-1" d="M215.39,257.82l-2.34,4.49,1.11.57,2.55-5.06c.43-.85,0-1.12-.17-1.26.26,0,.76.14,1.05-.43.63-1.12,2.32-4.49,2.32-4.49s.56-1-.26-1.4L217.34,249l-7.05,11.86,1,.63,3.1-5.41.76.5C215.85,257,215.58,257.47,215.39,257.82Zm-.42-2.74,2.66-4.63,1,.42c.51.28.14.7,0,1l-1.89,3.58s-.18.49-.61.28Z"/><polygon class="cls-1" points="225.52 252.77 226.35 253.04 221.94 266.18 220.73 265.83 225.52 252.77"/><polygon class="cls-1" points="210.66 244.2 211.34 244.83 202.6 255.51 201.74 254.8 210.66 244.2"/><polygon class="cls-1" points="207.55 241.32 197.75 251.08 198.54 251.85 205.15 245.04 199.85 253.04 200.71 253.82 209.8 243.58 209.12 242.87 203.92 248.56 208.12 241.96 207.55 241.32"/><polygon class="cls-1" points="234.26 255.01 233.23 254.87 231.56 260.13 231.86 254.59 230.79 254.38 230.58 262.17 229.23 268.21 230.42 268.42 231.58 262.39 234.26 255.01"/><polygon class="cls-1" points="211.7 245.12 204.38 256.9 205.2 257.54 214.45 247.15 213.63 246.52 207.15 254.1 212.52 245.74 211.7 245.12"/><path class="cls-1" d="M185.62,234l.5,1,11.82-7.23-.48-1-13.12,4.35.46,1.12,3-1.19.56,1.26Zm3.07-3.23,6.75-2.46-6.26,3.51Z"/><polygon class="cls-1" points="187.95 238.38 188.5 239.35 200.34 232.2 199.82 231.42 194.09 234.79 193.29 233.31 199.1 230.16 198.75 229.39 186.44 235.63 186.97 236.76 192.38 233.74 193.24 235.28 187.95 238.38"/><path class="cls-1" d="M201.8,236.47s1.07-.42.31-1.54-1.23-1.89-1.23-1.89l-11.66,7.44,1.78,2.6a1,1,0,0,0,1.59.21C193.55,242.51,201.8,236.47,201.8,236.47Zm-10.53,5.13-.55-.78,9.95-6.66.67,1c.27.41-.42.69-.54.84s-7.55,5.26-8.5,6C191.83,242.23,191.65,242.16,191.27,241.6Z"/><polygon class="cls-1" points="189.58 227.69 190.02 228.68 191.02 228.27 190.62 227.21 195.58 225.31 196.2 226.65 197.2 226.22 196.35 224.06 183.43 228.9 183.81 229.95 189.58 227.69"/><polygon class="cls-1" points="239.14 182.69 237.56 183.53 238.11 187.26 239.5 186.83 239.14 182.69"/><polygon class="cls-1" points="239.57 187.54 238.19 187.96 238.5 191.19 239.7 191.05 239.57 187.54"/><polygon class="cls-1" points="239.74 181.71 239 176.23 242.25 175.74 242.23 181.57 239.74 181.71"/><polygon class="cls-1" points="236.3 177.85 237.44 182.84 239.13 181.92 238.39 176.52 236.3 177.85"/><polygon class="cls-1" points="239.81 182.34 240.14 186.62 242.23 186.62 242.23 182.2 239.81 182.34"/><polygon class="cls-1" points="240.25 187.33 240.35 190.98 242.26 190.98 242.26 187.33 240.25 187.33"/><polygon class="cls-1" points="245.95 182.69 247.53 183.53 246.99 187.26 245.6 186.83 245.95 182.69"/><polygon class="cls-1" points="245.53 187.54 246.92 187.96 246.6 191.19 245.39 191.05 245.53 187.54"/><polygon class="cls-1" points="245.35 181.71 246.09 176.23 242.86 175.74 242.86 181.57 245.35 181.71"/><polygon class="cls-1" points="248.8 177.85 247.65 182.84 245.97 181.92 246.7 176.52 248.8 177.85"/><polygon class="cls-1" points="245.29 182.34 244.96 186.62 242.86 186.62 242.86 182.2 245.29 182.34"/><polygon class="cls-1" points="244.88 187.33 244.78 190.98 242.86 190.98 242.86 187.33 244.88 187.33"/><path class="cls-1" d="M239.21,226.15l-1.09,1.06H247l-1.11-1.06h-.07v-.28a3.22,3.22,0,0,1,.72-2.45v-31.6l-1.18-.07v34.4h-1.26v-.56a3.39,3.39,0,0,1,.63-2.31v-31.6h-1.85v31.53a3.37,3.37,0,0,1,.74,2.45v.49h-2.07v-.49a3.43,3.43,0,0,1,.73-2.45l0-31.53h-1.81v31.6a3.39,3.39,0,0,1,.63,2.31v.56h-1.3v-34.4l-1.18.07v31.6a3.22,3.22,0,0,1,.72,2.45v.28Z"/><path class="cls-1" d="M251.18,221.38a3.66,3.66,0,0,0-.56.85s1.75,1.33,1.7,4.56C252.32,226.79,253.2,223.35,251.18,221.38Z"/><path class="cls-1" d="M257.56,221.45c0,.22-.06.57-.73.57a.74.74,0,0,1-.75-.71c-.21.5-.48.71-.9.63-.43.08-.7-.49-.84-.56l-.17.21c-.07.15-.17.18-.38.56a6,6,0,0,1,1.71,4.64,7.47,7.47,0,0,0-.23-4.07c.85,0,.81-.64.81-.64s.07.57.82.57S257.6,221.73,257.56,221.45Z"/><path class="cls-1" d="M265.94,221.45c0,.22-.09.57-.74.57a.7.7,0,0,1-.76-.64.86.86,0,0,1-.88.64c-.44,0-.71-.5-.85-.64l-.17.3a2.82,2.82,0,0,0-.38.55s1.75,1.33,1.71,4.56a7.31,7.31,0,0,0-.23-4c.84,0,.8-.71.8-.71a.74.74,0,0,0,.83.57C266,222.65,266,221.81,265.94,221.45Z"/><path class="cls-1" d="M265.92,221.38s0,0,0,.07S265.92,221.38,265.92,221.38Z"/><path class="cls-1" d="M259.87,221.45a8,8,0,0,1-1.83,4.42l.42,1a6.73,6.73,0,0,0,1.41-3.93,6.68,6.68,0,0,0,1.79,3.93l.25-1A9.13,9.13,0,0,1,259.87,221.45Z"/><path class="cls-1" d="M222.63,223.83a1.12,1.12,0,0,1-.19-.7,1,1,0,0,1,.29-.84.6.6,0,0,1,.48-.14.68.68,0,0,1,.6.28,1.14,1.14,0,0,1,.2.7,1.12,1.12,0,0,1-.34.85,1,1,0,0,1-.43.07A.77.77,0,0,1,222.63,223.83Zm-.8.64A1.57,1.57,0,0,0,223,225a1.31,1.31,0,0,0,.76-.21.88.88,0,0,0,.3-.28,3.19,3.19,0,0,1-.14,1,.77.77,0,0,1-.73.56.79.79,0,0,1-.46-.14.51.51,0,0,1-.2-.42h-1.07a1.31,1.31,0,0,0,.56,1.05,1.67,1.67,0,0,0,1.11.43,1.8,1.8,0,0,0,1.78-1.27,5.34,5.34,0,0,0,.24-1.68,4.16,4.16,0,0,0-.26-1.61,1.67,1.67,0,0,0-1.7-1.13,1.76,1.76,0,0,0-1.33.57,1.94,1.94,0,0,0-.5,1.4A1.59,1.59,0,0,0,221.83,224.47Z"/><path class="cls-1" d="M230.69,225.1h1.05a1.31,1.31,0,0,0,.1.56.81.81,0,0,0,.72.35.74.74,0,0,0,.54-.2.83.83,0,0,0,.25-.63.74.74,0,0,0-.43-.71,2.5,2.5,0,0,0-.8-.07v-.77a1.71,1.71,0,0,0,.74-.14c.23-.07.35-.28.35-.63a.71.71,0,0,0-.17-.49.67.67,0,0,0-.53-.22.71.71,0,0,0-.56.22,1.31,1.31,0,0,0-.17.69h-1a2.59,2.59,0,0,1,.12-.77,2.27,2.27,0,0,1,.42-.62,1.23,1.23,0,0,1,.51-.29,2.13,2.13,0,0,1,.7-.07,1.78,1.78,0,0,1,1.27.36,1.39,1.39,0,0,1,.49,1.12,1.13,1.13,0,0,1-.3.77c-.12.14-.25.27-.37.27.08,0,.23.15.43.29a1.5,1.5,0,0,1,.4,1.06,1.75,1.75,0,0,1-.48,1.18,1.83,1.83,0,0,1-1.42.57,1.74,1.74,0,0,1-1.61-.78A2.17,2.17,0,0,1,230.69,225.1Z"/><path class="cls-1" d="M227.41,224.27a.6.6,0,0,1,.47-.22.87.87,0,0,1,.57.28.92.92,0,0,1,.24.7,1.1,1.1,0,0,1-.2.7.61.61,0,0,1-.58.28.66.66,0,0,1-.59-.28.92.92,0,0,1-.23-.7A.83.83,0,0,1,227.41,224.27Zm1.75-2.6a1.71,1.71,0,0,0-1.21-.43,1.83,1.83,0,0,0-.91.21,2.92,2.92,0,0,0-.62.7,2.78,2.78,0,0,0-.36,1.13,7.63,7.63,0,0,0-.06,1.05,3.07,3.07,0,0,0,.39,1.68,1.56,1.56,0,0,0,1.52.92,1.65,1.65,0,0,0,1.41-.63,2.09,2.09,0,0,0,.45-1.34,1.92,1.92,0,0,0-.45-1.26,1.53,1.53,0,0,0-1.2-.49,1.61,1.61,0,0,0-.61.14.84.84,0,0,0-.46.35,5.07,5.07,0,0,1,.16-1,.73.73,0,0,1,.75-.57.67.67,0,0,1,.53.22.86.86,0,0,1,.11.28h1.07A1.37,1.37,0,0,0,229.16,221.67Z"/><path class="cls-1" d="M220.75,226h-.66v-4.5h-.89a.47.47,0,0,1,0,.22,2,2,0,0,1-.21.41,1.26,1.26,0,0,1-.52.29h-.23v.76H219V226h-.79v.91h2.54Z"/><path class="cls-1" d="M261.38,241.53l-6.06-1.48,5.11-.42-4.11-8.42c-4.54,1.34-8.38-1.41-9.85-1.61-1.75-.29-2.76.42-4.11,1.54a4.54,4.54,0,0,0-4.62-1.54c-3.13.63-5,2.52-9.49,1.47l-4,8.22,5.22.84-6.1.91-1.46,2.88,18.13-2.39a2.88,2.88,0,0,0,2.29,1.34,2.78,2.78,0,0,0,1.92-1.27l18.57,2.46Zm-19.1-.07a1.29,1.29,0,0,1-1-.91c-.09-.77.82-3.09,1-4.21.21,1.12,1.14,3.51,1,4.21A1.22,1.22,0,0,1,242.28,241.46Z"/></svg>